{
.appVersion = "1343";
classes = (
{
automatic = 1;

glyphs = (
{
glyphname = A;
layers = (
{
anchors = (
{
name = bottom;
position = "{293, 0}";
},
{
name = ogonek;
position = "{562, 0}";
},
{
name = top;
position = "{408, 660}";
},
{
name = top_ring;
position = "{385, 534}";
}
);
background = {
paths = (
{
closed = 1;
nodes = (
"55 0 LINE",
"342 478 LINE",
"400 574 LINE",
"400 574 LINE",
"414 474 LINE",
"483 0 LINE",
"562 0 LINE",
"466 660 LINE",
"367 660 LINE",
"-35 0 LINE"
);
},
{
closed = 1;
nodes = (
"478 189 LINE",
"495 264 LINE",
"149 264 LINE",
"132 189 LINE"
);
}
);
};
layerId = "DBFAC7D3-9CB2-48DD-9F53-AD59A4BD1301";
paths = (
{
closed = 1;
nodes = (
"55 0 LINE",
"168 189 LINE",
"455 189 LINE",
"483 0 LINE",
"562 0 LINE",
"466 660 LINE",
"367 660 LINE",
"-35 0 LINE"
);
},
{
closed = 1;
nodes = (
"400 574 LINE",
"445 264 LINE",
"214 264 LINE"
);
}
);
width = 643;
},
{
anchors = (
{
name = bottom;
position = "{301, 0}";
},
{
name = ogonek;
position = "{641, 0}";
},
{
name = top;
position = "{441, 660}";
},
{
name = top_ring;
position = "{426, 543}";
}
);
background = {
paths = (
{
closed = 1;
nodes = (
"170 0 LINE",
"358 379 LINE",
"409 497 LINE",
"412 497 LINE",
"413 379 LINE",
"422 0 LINE",
"641 0 LINE",
"581 660 LINE",
"301 660 LINE",
"-68 0 LINE"
);
},
{
closed = 1;
nodes = (
"513 132 LINE",
"547 277 LINE",
"170 277 LINE",
"136 132 LINE"
);
}
);
};
layerId = "EA77C764-8343-414A-A941-E69667BA8F3A";
paths = (
{
closed = 1;
nodes = (
"170 0 LINE",
"235 132 LINE",
"419 132 LINE",
"422 0 LINE",
"641 0 LINE",
"581 660 LINE",
"301 660 LINE",
"-68 0 LINE"
);
},
{
closed = 1;
nodes = (
"412 497 LINE",
"415 277 LINE",
"307 277 LINE"
);
}
);
width = 689;
},
{
anchors = (
{
name = bottom;
position = "{251, 0}";
},
{
name = ogonek;
position = "{505, 0}";
},
{
name = top;
position = "{380, 660}";
},
{
name = top_ring;
position = "{362, 571}";
}
);
background = {
paths = (
{
closed = 1;
nodes = (
"-27 0 LINE",
"352 597 LINE",
"379 642 LINE",
"379 642 LINE",
"387 595 LINE",
"489 0 LINE",
"505 0 LINE",
"393 660 LINE",
"372 660 LINE",
"-46 0 LINE"
);
},
{
closed = 1;
nodes = (
"454 236 LINE",
"458 250 LINE",
"116 250 LINE",
"112 236 LINE"
);
}
);
};
layerId = "F97236B5-7CBD-4FD1-81B0-6670342ADB4E";
paths = (
{
closed = 1;
nodes = (
"-27 0 LINE",
"123 236 LINE",
"449 236 LINE",
"489 0 LINE",
"505 0 LINE",
"393 660 LINE",
"372 660 LINE",
"-46 0 LINE"
);
},
{
closed = 1;
nodes = (
"379 642 LINE",
"446 250 LINE",
"132 250 LINE"
);
}
);
width = 575;
}
);
leftKerningGroup = A;
rightKerningGroup = A;
unicode = 0041;
},
{
glyphname = AE;
layers = (
{
anchors = (
{
name = bottom;
position = "{424, 0}";
},
{
name = ogonek;
position = "{826, 0}";
},
{
name = top;
position = "{577, 660}";
}
);
layerId = "DBFAC7D3-9CB2-48DD-9F53-AD59A4BD1301";
paths = (
{
closed = 1;
nodes = (
"43 0 LINE",
"211 213 LINE",
"433 213 LINE",
"384 0 LINE",
"826 0 LINE",
"844 75 LINE",
"481 75 LINE",
"533 297 LINE",
"797 297 LINE",
"814 372 LINE",
"550 372 LINE",
"600 585 LINE",
"946 585 LINE",
"964 660 LINE",
"473 660 LINE",
"-52 0 LINE"
);
},
{
closed = 1;
nodes = (
"506 585 LINE",
"520 585 LINE",
"451 288 LINE",
"271 288 LINE"
);
}
);
width = 935;
},
{
anchors = (
{
name = bottom;
position = "{450, 0}";
},
{
name = ogonek;
position = "{830, 0}";
},
{
name = top;
position = "{603, 660}";
}
);
layerId = "EA77C764-8343-414A-A941-E69667BA8F3A";
leftMetricsKey = "=A";
paths = (
{
closed = 1;
nodes = (
"175 0 LINE",
"260 185 LINE",
"386 185 LINE",
"343 0 LINE",
"830 0 LINE",
"867 161 LINE",
"594 161 LINE",
"616 254 LINE",
"816 254 LINE",
"850 403 LINE",
"650 403 LINE",
"672 499 LINE",
"933 499 LINE",
"971 660 LINE",
"289 660 LINE",
"-68 0 LINE"
);
},
{
closed = 1;
nodes = (
"407 507 LINE",
"460 507 LINE",
"417 321 LINE",
"322 321 LINE"
);
}
);
width = 904;
},
{
anchors = (
{
name = bottom;
position = "{379, 0}";
},
{
name = ogonek;
position = "{780, 0}";
},
{
name = top;
position = "{532, 660}";
}
);
layerId = "F97236B5-7CBD-4FD1-81B0-6670342ADB4E";
paths = (
{
closed = 1;
nodes = (
"-41 0 LINE",
"172 254 LINE",
"430 254 LINE",
"371 0 LINE",
"780 0 LINE",
"784 14 LINE",
"391 14 LINE",
"463 328 LINE",
"765 328 LINE",
"768 342 LINE",
"466 342 LINE",
"536 646 LINE",
"913 646 LINE",
"917 660 LINE",
"497 660 LINE",
"-66 0 LINE"
);
},
{
closed = 1;
nodes = (
"505 646 LINE",
"520 646 LINE",
"433 268 LINE",
"184 268 LINE"
);
}
);
width = 868;
}
);
leftKerningGroup = AE;
rightKerningGroup = E;
rightMetricsKey = E;
unicode = 00C6;
},
{
glyphname = B;
layers = (
{
anchors = (
{
name = bottom;
position = "{243, 0}";
},
{
name = ogonek;
position = "{278, 0}";
},
{
name = top;
position = "{396, 660}";
}
);
layerId = "DBFAC7D3-9CB2-48DD-9F53-AD59A4BD1301";
paths = (
{
closed = 1;
nodes = (
"327 0 LINE SMOOTH",
"474 0 OFFCURVE",
"577 69 OFFCURVE",
"577 202 CURVE SMOOTH",
"577 264 OFFCURVE",
"535 317 OFFCURVE",
"472 327 CURVE",
"472 328 LINE",
"553 348 OFFCURVE",
"610 416 OFFCURVE",
"610 511 CURVE SMOOTH",
"610 602 OFFCURVE",
"547 660 OFFCURVE",
"436 660 CURVE SMOOTH",
"200 660 LINE",
"47 0 LINE"
);
},
{
closed = 1;
nodes = (
"195 292 LINE",
"376 292 LINE SMOOTH",
"453 292 OFFCURVE",
"493 261 OFFCURVE",
"493 202 CURVE SMOOTH",
"493 123 OFFCURVE",
"435 75 OFFCURVE",
"327 75 CURVE SMOOTH",
"145 75 LINE"
);
},
{
closed = 1;
nodes = (
"263 585 LINE",
"416 585 LINE SMOOTH",
"480 585 OFFCURVE",
"527 563 OFFCURVE",
"527 500 CURVE SMOOTH",
"527 422 OFFCURVE",
"473 367 OFFCURVE",
"379 367 CURVE SMOOTH",
"212 367 LINE"
);
}
);
width = 645;
},
{
anchors = (
{
name = bottom;
position = "{269, 0}";
},
{
name = ogonek;
position = "{364, 0}";
},
{
name = top;
position = "{422, 660}";
}
);
layerId = "EA77C764-8343-414A-A941-E69667BA8F3A";
paths = (
{
closed = 1;
nodes = (
"416 0 LINE SMOOTH",
"572 0 OFFCURVE",
"677 63 OFFCURVE",
"677 197 CURVE SMOOTH",
"677 271 OFFCURVE",
"621 320 OFFCURVE",
"543 325 CURVE",
"543 326 LINE",
"634 340 OFFCURVE",
"712 396 OFFCURVE",
"712 503 CURVE SMOOTH",
"712 602 OFFCURVE",
"630 660 OFFCURVE",
"499 660 CURVE SMOOTH",
"145 660 LINE",
"-8 0 LINE"
);
},
{
closed = 1;
nodes = (
"273 248 LINE",
"386 248 LINE SMOOTH",
"424 248 OFFCURVE",
"443 232 OFFCURVE",
"443 205 CURVE SMOOTH",
"443 168 OFFCURVE",
"414 152 OFFCURVE",
"367 152 CURVE SMOOTH",
"250 152 LINE"
);
},
{
closed = 1;
nodes = (
"331 500 LINE",
"420 500 LINE SMOOTH",
"455 500 OFFCURVE",
"475 485 OFFCURVE",
"475 457 CURVE SMOOTH",
"475 425 OFFCURVE",
"448 404 OFFCURVE",
"401 404 CURVE SMOOTH",
"309 404 LINE"
);
}
);
width = 708;
},
{
anchors = (
{
name = bottom;
position = "{218, 0}";
},
{
name = ogonek;
position = "{251, 0}";
},
{
name = top;
position = "{371, 660}";
}
);
guideLines = (
{
angle = 256.9483;
position = "{208, 660}";
},
{
position = "{140, 337}";
},
{
position = "{312, 14}";
},
{
position = "{303, 646}";
},
{
position = "{140, 323}";
}
);
hints = (
{
horizontal = 1;
place = "{0, 14}";
type = Stem;
},
{
horizontal = 1;
place = "{660, -14}";
type = Stem;
},
{
place = "{39, 20}";
type = Stem;
},
{
horizontal = 1;
place = "{326, 14}";
type = Stem;
}
);
layerId = "F97236B5-7CBD-4FD1-81B0-6670342ADB4E";
paths = (
{
closed = 1;
nodes = (
"311 0 LINE SMOOTH",
"468 0 OFFCURVE",
"555 69 OFFCURVE",
"555 194 CURVE SMOOTH",
"555 267 OFFCURVE",
"506 321 OFFCURVE",
"410 330 CURVE",
"410 329 LINE",
"519 340 OFFCURVE",
"588 416 OFFCURVE",
"588 511 CURVE SMOOTH",
"588 602 OFFCURVE",
"525 660 OFFCURVE",
"404 660 CURVE SMOOTH",
"192 660 LINE",
"39 0 LINE"
);
},
{
closed = 1;
nodes = (
"130 323 LINE",
"354 323 LINE SMOOTH",
"499 323 OFFCURVE",
"539 262 OFFCURVE",
"539 194 CURVE SMOOTH",
"539 78 OFFCURVE",
"459 14 OFFCURVE",
"311 14 CURVE SMOOTH",
"58 14 LINE"
);
},
{
closed = 1;
nodes = (
"205 646 LINE",
"401 646 LINE SMOOTH",
"516 646 OFFCURVE",
"572 594 OFFCURVE",
"572 511 CURVE SMOOTH",
"572 422 OFFCURVE",
"499 337 OFFCURVE",
"370 337 CURVE SMOOTH",
"133 337 LINE"
);
}
);
width = 630;
}
);
leftKerningGroup = I;
leftMetricsKey = H;
unicode = 0042;
},
{
glyphname = C;
layers = (
{
anchors = (
{
name = bottom;
position = "{342, 0}";
},
{
name = ogonek;
position = "{445, 0}";
},
{
name = top;
position = "{436, 660}";
}
);
background = {
anchors = (
{
name = bottom;
position = "{342, 0}";
},
{
name = ogonek;
position = "{445, 0}";
},
{
name = top;
position = "{436, 660}";
}
);
paths = (
{
closed = 1;
nodes = (
"484 -10 OFFCURVE",
"558 45 OFFCURVE",
"613 129 CURVE",
"536 166 LINE",
"501 105 OFFCURVE",
"456 65 OFFCURVE",
"368 65 CURVE SMOOTH",
"256 65 OFFCURVE",
"168 147 OFFCURVE",
"168 285 CURVE SMOOTH",
"168 436 OFFCURVE",
"254 595 OFFCURVE",
"414 595 CURVE SMOOTH",
"504 595 OFFCURVE",
"561 556 OFFCURVE",
"584 457 CURVE",
"668 485 LINE",
"634 611 OFFCURVE",
"548 670 OFFCURVE",
"422 670 CURVE SMOOTH",
"200 670 OFFCURVE",
"79 469 OFFCURVE",
"84 267 CURVE SMOOTH",
"87 86 OFFCURVE",
"209 -10 OFFCURVE",
"363 -10 CURVE SMOOTH"
);
}
);
};
layerId = "DBFAC7D3-9CB2-48DD-9F53-AD59A4BD1301";
paths = (
{
closed = 1;
nodes = (
"484 -10 OFFCURVE",
"558 45 OFFCURVE",
"613 129 CURVE",
"536 166 LINE",
"501 105 OFFCURVE",
"456 65 OFFCURVE",
"368 65 CURVE SMOOTH",
"256 65 OFFCURVE",
"168 147 OFFCURVE",
"168 285 CURVE SMOOTH",
"168 436 OFFCURVE",
"254 595 OFFCURVE",
"414 595 CURVE SMOOTH",
"504 595 OFFCURVE",
"561 556 OFFCURVE",
"584 457 CURVE",
"668 485 LINE",
"634 611 OFFCURVE",
"548 670 OFFCURVE",
"422 670 CURVE SMOOTH",
"200 670 OFFCURVE",
"83 469 OFFCURVE",
"83 273 CURVE SMOOTH",
"83 86 OFFCURVE",
"209 -10 OFFCURVE",
"363 -10 CURVE SMOOTH"
);
}
);
width = 674;
},
{
anchors = (
{
name = bottom;
position = "{316, 0}";
},
{
name = bottomC;
position = "{316, 0}";
},
{
name = ogonek;
position = "{393, 0}";
},
{
name = top;
position = "{469, 660}";
}
);
associatedMasterId = "DBFAC7D3-9CB2-48DD-9F53-AD59A4BD1301";
background = {
components = (
{
name = O;
transform = "{1, 0, 0, 1, -1, 0}";
}
);
};
color = 5;
layerId = "E905E347-5695-4D43-B1A4-3BD71A71C132";
name = "Sep 2 18, 17:58";
paths = (
{
closed = 1;
nodes = (
"668 485 LINE",
"632 614 OFFCURVE",
"545 670 OFFCURVE",
"425 670 CURVE SMOOTH",
"199 670 OFFCURVE",
"79 476 OFFCURVE",
"84 267 CURVE SMOOTH",
"87 90 OFFCURVE",
"208 -10 OFFCURVE",
"346 -10 CURVE SMOOTH",
"469 -10 OFFCURVE",
"554 43 OFFCURVE",
"610 129 CURVE",
"535 166 LINE",
"495 105 OFFCURVE",
"441 66 OFFCURVE",
"356 66 CURVE SMOOTH",
"244 66 OFFCURVE",
"168 147 OFFCURVE",
"168 285 CURVE SMOOTH",
"168 441 OFFCURVE",
"254 594 OFFCURVE",
"415 594 CURVE SMOOTH",
"511 594 OFFCURVE",
"562 551 OFFCURVE",
"585 457 CURVE"
);
}
);
width = 674;
},
{
anchors = (
{
name = bottom;
position = "{297, 0}";
},
{
name = ogonek;
position = "{406, 0}";
},
{
name = top;
position = "{436, 660}";
}
);
background = {
anchors = (
{
name = bottom;
position = "{297, 0}";
},
{
name = ogonek;
position = "{406, 0}";
},
{
name = top;
position = "{436, 660}";
}
);
paths = (
{
closed = 1;
nodes = (
"512 -10 OFFCURVE",
"616 61 OFFCURVE",
"675 183 CURVE",
"470 258 LINE",
"448 203 OFFCURVE",
"420 165 OFFCURVE",
"366 165 CURVE SMOOTH",
"300 165 OFFCURVE",
"274 203 OFFCURVE",
"274 263 CURVE SMOOTH",
"274 355 OFFCURVE",
"313 495 OFFCURVE",
"413 495 CURVE SMOOTH",
"472 495 OFFCURVE",
"495 459 OFFCURVE",
"492 392 CURVE",
"712 435 LINE",
"693 583 OFFCURVE",
"578 670 OFFCURVE",
"415 670 CURVE SMOOTH",
"183 670 OFFCURVE",
"52 518 OFFCURVE",
"42 297 CURVE SMOOTH",
"34 104 OFFCURVE",
"170 -10 OFFCURVE",
"352 -10 CURVE SMOOTH"
);
}
);
};
layerId = "EA77C764-8343-414A-A941-E69667BA8F3A";
paths = (
{
closed = 1;
nodes = (
"512 -10 OFFCURVE",
"616 61 OFFCURVE",
"675 183 CURVE",
"470 258 LINE",
"448 203 OFFCURVE",
"420 165 OFFCURVE",
"366 165 CURVE SMOOTH",
"300 165 OFFCURVE",
"274 203 OFFCURVE",
"274 263 CURVE SMOOTH",
"274 355 OFFCURVE",
"313 495 OFFCURVE",
"413 495 CURVE SMOOTH",
"472 495 OFFCURVE",
"495 459 OFFCURVE",
"492 392 CURVE",
"712 435 LINE",
"693 583 OFFCURVE",
"578 670 OFFCURVE",
"415 670 CURVE SMOOTH",
"183 670 OFFCURVE",
"43 518 OFFCURVE",
"43 276 CURVE SMOOTH",
"43 104 OFFCURVE",
"170 -10 OFFCURVE",
"352 -10 CURVE SMOOTH"
);
}
);
width = 698;
},
{
anchors = (
{
name = bottom;
position = "{298, 0}";
},
{
name = bottomC;
position = "{306, 0}";
},
{
name = ogonek;
position = "{407, 0}";
},
{
name = top;
position = "{451, 660}";
}
);
associatedMasterId = "EA77C764-8343-414A-A941-E69667BA8F3A";
background = {
components = (
{
name = O;
}
);
};
layerId = "10263FBF-82B1-49D2-901B-D8A774677928";
name = "Sep 22 18, 15:05";
paths = (
{
closed = 1;
nodes = (
"471 258 LINE",
"449 203 OFFCURVE",
"421 165 OFFCURVE",
"367 165 CURVE SMOOTH",
"301 165 OFFCURVE",
"275 203 OFFCURVE",
"275 263 CURVE SMOOTH",
"275 355 OFFCURVE",
"314 495 OFFCURVE",
"414 495 CURVE SMOOTH",
"481 495 OFFCURVE",
"504 459 OFFCURVE",
"501 392 CURVE",
"719 435 LINE",
"717 588 OFFCURVE",
"577 670 OFFCURVE",
"424 670 CURVE SMOOTH",
"184 670 OFFCURVE",
"53 518 OFFCURVE",
"43 297 CURVE SMOOTH",
"35 104 OFFCURVE",
"169 -10 OFFCURVE",
"351 -10 CURVE SMOOTH",
"511 -10 OFFCURVE",
"615 61 OFFCURVE",
"674 183 CURVE"
);
}
);
width = 699;
},
{
anchors = (
{
name = bottom;
position = "{328, 0}";
},
{
name = ogonek;
position = "{426, 0}";
},
{
name = top;
position = "{421, 660}";
}
);
layerId = "F97236B5-7CBD-4FD1-81B0-6670342ADB4E";
paths = (
{
closed = 1;
nodes = (
"459 -10 OFFCURVE",
"546 40 OFFCURVE",
"597 130 CURVE",
"584 140 LINE",
"536 52 OFFCURVE",
"454 4 OFFCURVE",
"344 4 CURVE SMOOTH",
"205 4 OFFCURVE",
"90 105 OFFCURVE",
"90 280 CURVE SMOOTH",
"90 473 OFFCURVE",
"198 656 OFFCURVE",
"406 656 CURVE SMOOTH",
"516 656 OFFCURVE",
"602 595 OFFCURVE",
"636 486 CURVE",
"651 490 LINE",
"616 605 OFFCURVE",
"524 670 OFFCURVE",
"407 670 CURVE SMOOTH",
"187 670 OFFCURVE",
"74 483 OFFCURVE",
"74 277 CURVE SMOOTH",
"74 91 OFFCURVE",
"194 -10 OFFCURVE",
"343 -10 CURVE SMOOTH"
);
}
);
width = 661;
}
);
leftKerningGroup = O;
leftMetricsKey = O;
rightKerningGroup = C;
unicode = 0043;
},
{
glyphname = D;
layers = (
{
anchors = (
{
name = bottom;
position = "{290, 0}";
},
{
name = center;
position = "{373, 330}";
},
{
name = ogonek;
position = "{269, 0}";
},
{
name = top;
position = "{414, 660}";
}
);
layerId = "DBFAC7D3-9CB2-48DD-9F53-AD59A4BD1301";
paths = (
{
closed = 1;
nodes = (
"290 0 LINE SMOOTH",
"512 0 OFFCURVE",
"661 168 OFFCURVE",
"661 390 CURVE SMOOTH",
"661 546 OFFCURVE",
"560 660 OFFCURVE",
"391 660 CURVE SMOOTH",
"200 660 LINE",
"47 0 LINE"
);
},
{
closed = 1;
nodes = (
"263 585 LINE",
"381 585 LINE SMOOTH",
"512 585 OFFCURVE",
"575 495 OFFCURVE",
"575 378 CURVE SMOOTH",
"575 219 OFFCURVE",
"470 75 OFFCURVE",
"302 75 CURVE SMOOTH",
"144 75 LINE"
);
}
);
width = 706;
},
{
anchors = (
{
name = bottom;
position = "{273, 0}";
},
{
name = center;
position = "{-39, 14}";
},
{
name = ogonek;
position = "{316, 0}";
},
{
name = top;
position = "{426, 660}";
}
);
layerId = "EA77C764-8343-414A-A941-E69667BA8F3A";
paths = (
{
closed = 1;
nodes = (
"336 0 LINE SMOOTH",
"572 0 OFFCURVE",
"704 153 OFFCURVE",
"704 390 CURVE SMOOTH",
"704 554 OFFCURVE",
"606 660 OFFCURVE",
"406 660 CURVE SMOOTH",
"145 660 LINE",
"-8 0 LINE"
);
},
{
closed = 1;
nodes = (
"339 494 LINE",
"381 494 LINE SMOOTH",
"442 494 OFFCURVE",
"472 460 OFFCURVE",
"472 396 CURVE SMOOTH",
"472 292 OFFCURVE",
"429 166 OFFCURVE",
"319 166 CURVE SMOOTH",
"264 166 LINE"
);
}
);
width = 709;
},
{
anchors = (
{
name = bottom;
position = "{294, 0}";
},
{
name = center;
position = "{366, 330}";
},
{
name = ogonek;
position = "{287, 0}";
},
{
name = top;
position = "{398, 660}";
}
);
guideLines = (
{
angle = 256.9483;
position = "{147, 330}";
},
{
position = "{207, 646}";
}
);
layerId = "F97236B5-7CBD-4FD1-81B0-6670342ADB4E";
paths = (
{
closed = 1;
nodes = (
"287 0 LINE SMOOTH",
"512 0 OFFCURVE",
"651 168 OFFCURVE",
"651 390 CURVE SMOOTH",
"651 546 OFFCURVE",
"560 660 OFFCURVE",
"391 660 CURVE SMOOTH",
"197 660 LINE",
"44 0 LINE"
);
},
{
closed = 1;
nodes = (
"210 646 LINE",
"388 646 LINE SMOOTH",
"553 646 OFFCURVE",
"635 536 OFFCURVE",
"635 389 CURVE SMOOTH",
"635 177 OFFCURVE",
"502 14 OFFCURVE",
"288 14 CURVE SMOOTH",
"64 14 LINE"
);
}
);
width = 686;
}
);
leftKerningGroup = I;
rightKerningGroup = O;
rightMetricsKey = O;
unicode = 0044;
},
{
glyphname = Dcroat;
layers = (
{
components = (
{
name = D;
transform = "{1, 0, 0, 1, 19, 0}";
}
);
layerId = "DBFAC7D3-9CB2-48DD-9F53-AD59A4BD1301";
paths = (
{
closed = 1;
nodes = (
"402 296 LINE",
"419 371 LINE",
"44 371 LINE",
"27 296 LINE"
);
}
);
width = 725;
},
{
components = (
{
name = D;
transform = "{1, 0, 0, 1, 28, 0}";
}
);
layerId = "EA77C764-8343-414A-A941-E69667BA8F3A";
paths = (
{
closed = 1;
nodes = (
"398 253 LINE",
"432 403 LINE",
"39 403 LINE",
"5 253 LINE"
);
}
);
width = 737;
},
{
components = (
{
alignment = -1;
name = D;
transform = "{1, 0, 0, 1, 7, 0}";
}
);
layerId = "F97236B5-7CBD-4FD1-81B0-6670342ADB4E";
paths = (
{
closed = 1;
nodes = (
"351 327 LINE",
"354 341 LINE",
"25 341 LINE",
"22 327 LINE"
);
}
);
width = 693;
}
);
leftKerningGroup = I;
rightKerningGroup = O;
rightMetricsKey = D;
unicode = 0110;
},
{
glyphname = E;
layers = (
{
anchors = (
{
name = bottom;
position = "{311, 0}";
},
{
name = ogonek;
position = "{516, 0}";
},
{
name = top;
position = "{420, 660}";
}
);
layerId = "DBFAC7D3-9CB2-48DD-9F53-AD59A4BD1301";
paths = (
{
closed = 1;
nodes = (
"516 0 LINE",
"534 75 LINE",
"145 75 LINE",
"196 297 LINE",
"488 297 LINE",
"505 372 LINE",
"213 372 LINE",
"262 585 LINE",
"635 585 LINE",
"653 660 LINE",
"200 660 LINE",
"47 0 LINE"
);
}
);
width = 625;
},
{
anchors = (
{
name = bottom;
position = "{271, 0}";
},
{
name = ogonek;
position = "{553, 0}";
},
{
name = top;
position = "{419, 660}";
}
);
layerId = "EA77C764-8343-414A-A941-E69667BA8F3A";
leftMetricsKey = "=I";
paths = (
{
closed = 1;
nodes = (
"552 0 LINE",
"592 171 LINE",
"265 171 LINE",
"283 249 LINE",
"537 249 LINE",
"573 407 LINE",
"319 407 LINE",
"338 489 LINE",
"659 489 LINE",
"699 660 LINE",
"145 660 LINE",
"-8 0 LINE"
);
}
);
width = 626;
},
{
anchors = (
{
name = bottom;
position = "{283, 0}";
},
{
name = ogonek;
position = "{484, 0}";
},
{
name = top;
position = "{396, 660}";
}
);
layerId = "F97236B5-7CBD-4FD1-81B0-6670342ADB4E";
paths = (
{
closed = 1;
nodes = (
"484 0 LINE",
"487 14 LINE",
"59 14 LINE",
"131 330 LINE",
"462 330 LINE",
"466 344 LINE",
"135 344 LINE",
"204 646 LINE",
"614 646 LINE",
"618 660 LINE",
"192 660 LINE",
"39 0 LINE"
);
}
);
width = 572;
}
);
leftKerningGroup = I;
rightKerningGroup = E;
unicode = 0045;
},
{
glyphname = F;
layers = (
{
anchors = (
{
name = bottom;
position = "{87, 0}";
},
{
name = ogonek;
position = "{127, 0}";
},
{
name = top;
position = "{423, 660}";
}
);
layerId = "DBFAC7D3-9CB2-48DD-9F53-AD59A4BD1301";
paths = (
{
closed = 1;
nodes = (
"639 660 LINE",
"200 660 LINE",
"47 0 LINE",
"127 0 LINE",
"196 297 LINE",
"494 297 LINE",
"511 372 LINE",
"213 372 LINE",
"263 585 LINE",
"621 585 LINE"
);
}
);
width = 585;
},
{
anchors = (
{
name = bottom;
position = "{109, 0}";
},
{
name = ogonek;
position = "{225, 0}";
},
{
name = top;
position = "{402, 660}";
}
);
layerId = "EA77C764-8343-414A-A941-E69667BA8F3A";
leftMetricsKey = "=I";
paths = (
{
closed = 1;
nodes = (
"687 660 LINE",
"145 660 LINE",
"-8 0 LINE",
"225 0 LINE",
"277 226 LINE",
"528 226 LINE",
"568 397 LINE",
"317 397 LINE",
"338 489 LINE",
"647 489 LINE"
);
}
);
width = 609;
},
{
anchors = (
{
name = bottom;
position = "{47, 0}";
},
{
name = ogonek;
position = "{55, 0}";
},
{
name = top;
position = "{403, 660}";
}
);
layerId = "F97236B5-7CBD-4FD1-81B0-6670342ADB4E";
paths = (
{
closed = 1;
nodes = (
"605 660 LINE",
"192 660 LINE",
"39 0 LINE",
"55 0 LINE",
"131 330 LINE",
"457 330 LINE",
"461 344 LINE",
"135 344 LINE",
"204 646 LINE",
"601 646 LINE"
);
}
);
width = 530;
}
);
leftKerningGroup = I;
leftMetricsKey = H;
unicode = 0046;
},
{
glyphname = G;
layers = (
{
anchors = (
{
name = bottom;
position = "{369, 0}";
},
{
name = ogonek;
position = "{353, 0}";
},
{
name = top;
position = "{447, 660}";
}
);
layerId = "DBFAC7D3-9CB2-48DD-9F53-AD59A4BD1301";
paths = (
{
closed = 1;
nodes = (
"442 -8 OFFCURVE",
"510 39 OFFCURVE",
"548 121 CURVE",
"539 132 LINE",
"512 0 LINE",
"575 0 LINE",
"655 328 LINE",
"378 328 LINE",
"361 253 LINE",
"567 253 LINE",
"560 223 LINE SMOOTH",
"538 131 OFFCURVE",
"471 68 OFFCURVE",
"359 68 CURVE SMOOTH",
"242 68 OFFCURVE",
"168 147 OFFCURVE",
"168 284 CURVE SMOOTH",
"168 438 OFFCURVE",
"257 596 OFFCURVE",
"423 596 CURVE SMOOTH",
"513 596 OFFCURVE",
"580 559 OFFCURVE",
"604 465 CURVE",
"685 493 LINE",
"648 624 OFFCURVE",
"547 670 OFFCURVE",
"428 670 CURVE SMOOTH",
"205 670 OFFCURVE",
"84 479 OFFCURVE",
"84 275 CURVE SMOOTH",
"84 97 OFFCURVE",
"202 -8 OFFCURVE",
"343 -8 CURVE SMOOTH"
);
}
);
width = 707;
},
{
anchors = (
{
name = bottom;
position = "{318, 0}";
},
{
name = ogonek;
position = "{340, 0}";
},
{
name = top;
position = "{436, 660}";
}
);
layerId = "EA77C764-8343-414A-A941-E69667BA8F3A";
paths = (
{
closed = 1;
nodes = (
"423 -10 OFFCURVE",
"486 46 OFFCURVE",
"520 151 CURVE",
"501 171 LINE",
"463 0 LINE",
"611 0 LINE",
"705 368 LINE",
"399 368 LINE",
"367 228 LINE",
"493 228 LINE",
"485 211 LINE SMOOTH",
"470 180 OFFCURVE",
"439 157 OFFCURVE",
"388 157 CURVE SMOOTH",
"304 157 OFFCURVE",
"274 212 OFFCURVE",
"274 294 CURVE SMOOTH",
"274 415 OFFCURVE",
"338 495 OFFCURVE",
"415 495 CURVE SMOOTH",
"470 495 OFFCURVE",
"493 459 OFFCURVE",
"493 412 CURVE",
"709 444 LINE",
"697 582 OFFCURVE",
"581 670 OFFCURVE",
"418 670 CURVE SMOOTH",
"177 670 OFFCURVE",
"42 497 OFFCURVE",
"42 278 CURVE SMOOTH",
"42 100 OFFCURVE",
"156 -10 OFFCURVE",
"308 -10 CURVE SMOOTH"
);
}
);
width = 720;
},
{
anchors = (
{
name = bottom;
position = "{352, 0}";
},
{
name = ogonek;
position = "{370, 0}";
},
{
name = top;
position = "{420, 660}";
}
);
layerId = "F97236B5-7CBD-4FD1-81B0-6670342ADB4E";
paths = (
{
closed = 1;
nodes = (
"459 -9 OFFCURVE",
"569 42 OFFCURVE",
"604 199 CURVE",
"596 186 LINE",
"552 0 LINE",
"568 0 LINE",
"638 304 LINE",
"386 304 LINE",
"383 290 LINE",
"619 290 LINE",
"606 234 LINE SMOOTH",
"567 60 OFFCURVE",
"455 5 OFFCURVE",
"344 5 CURVE SMOOTH",
"205 5 OFFCURVE",
"90 104 OFFCURVE",
"90 279 CURVE SMOOTH",
"90 472 OFFCURVE",
"201 656 OFFCURVE",
"419 656 CURVE SMOOTH",
"526 656 OFFCURVE",
"610 599 OFFCURVE",
"653 491 CURVE",
"668 495 LINE",
"624 609 OFFCURVE",
"534 670 OFFCURVE",
"420 670 CURVE SMOOTH",
"190 670 OFFCURVE",
"74 482 OFFCURVE",
"74 276 CURVE SMOOTH",
"74 90 OFFCURVE",
"194 -9 OFFCURVE",
"343 -9 CURVE SMOOTH"
);
}
);
width = 689;
},
{
anchors = (
{
name = bottom;
position = "{292, 0}";
},
{
name = ogonek;
position = "{370, 0}";
},
{
name = top;
position = "{437, 660}";
}
);
associatedMasterId = "F97236B5-7CBD-4FD1-81B0-6670342ADB4E";
background = {
paths = (
{
closed = 1;
nodes = (
"585 140 LINE",
"537 52 OFFCURVE",
"455 4 OFFCURVE",
"345 4 CURVE SMOOTH",
"206 4 OFFCURVE",
"91 105 OFFCURVE",
"91 280 CURVE SMOOTH",
"91 473 OFFCURVE",
"199 656 OFFCURVE",
"407 656 CURVE SMOOTH",
"517 656 OFFCURVE",
"603 595 OFFCURVE",
"637 486 CURVE",
"652 490 LINE",
"617 605 OFFCURVE",
"525 670 OFFCURVE",
"408 670 CURVE SMOOTH",
"188 670 OFFCURVE",
"75 483 OFFCURVE",
"75 277 CURVE SMOOTH",
"75 91 OFFCURVE",
"195 -10 OFFCURVE",
"344 -10 CURVE SMOOTH",
"460 -10 OFFCURVE",
"547 40 OFFCURVE",
"598 130 CURVE"
);
}
);
};
layerId = "4CF324B0-99C6-470B-84C0-5B845BC1F2AE";
name = "Oct 24 18, 12:01";
paths = (
{
closed = 1;
nodes = (
"459 -9 OFFCURVE",
"550 42 OFFCURVE",
"589 132 CURVE",
"585 140 LINE",
"552 0 LINE",
"568 0 LINE",
"638 304 LINE",
"386 304 LINE",
"383 290 LINE",
"619 290 LINE",
"594 180 LINE SMOOTH",
"567 60 OFFCURVE",
"455 5 OFFCURVE",
"344 5 CURVE SMOOTH",
"205 5 OFFCURVE",
"90 104 OFFCURVE",
"90 279 CURVE SMOOTH",
"90 472 OFFCURVE",
"201 656 OFFCURVE",
"409 656 CURVE SMOOTH",
"521 656 OFFCURVE",
"601 597 OFFCURVE",
"642 489 CURVE",
"657 493 LINE",
"615 607 OFFCURVE",
"529 670 OFFCURVE",
"410 670 CURVE SMOOTH",
"190 670 OFFCURVE",
"74 482 OFFCURVE",
"74 276 CURVE SMOOTH",
"74 90 OFFCURVE",
"194 -9 OFFCURVE",
"343 -9 CURVE SMOOTH"
);
}
);
width = 698;
}
);
leftKerningGroup = O;
leftMetricsKey = O;
rightKerningGroup = G;
unicode = 0047;
},
{
glyphname = H;
layers = (
{
anchors = (
{
name = bottom;
position = "{308, 0}";
},
{
name = ogonek;
position = "{556, 0}";
},
{
name = top;
position = "{455, 660}";
}
);
layerId = "DBFAC7D3-9CB2-48DD-9F53-AD59A4BD1301";
paths = (
{
closed = 1;
nodes = (
"629 660 LINE",
"476 0 LINE",
"556 0 LINE",
"709 660 LINE"
);
},
{
closed = 1;
nodes = (
"200 660 LINE",
"47 0 LINE",
"127 0 LINE",
"280 660 LINE"
);
},
{
closed = 1;
nodes = (
"175 372 LINE",
"158 297 LINE",
"582 297 LINE",
"599 372 LINE"
);
}
);
width = 719;
},
{
anchors = (
{
name = bottom;
position = "{316, 0}";
},
{
name = ogonek;
position = "{650, 0}";
},
{
name = top;
position = "{469, 660}";
}
);
layerId = "EA77C764-8343-414A-A941-E69667BA8F3A";
paths = (
{
closed = 1;
nodes = (
"559 660 LINE",
"406 0 LINE",
"639 0 LINE",
"792 660 LINE"
);
},
{
closed = 1;
nodes = (
"145 660 LINE",
"-8 0 LINE",
"225 0 LINE",
"378 660 LINE"
);
},
{
closed = 1;
nodes = (
"201 417 LINE",
"161 246 LINE",
"592 246 LINE",
"632 417 LINE"
);
}
);
width = 747;
},
{
anchors = (
{
name = bottom;
position = "{287, 0}";
},
{
name = ogonek;
position = "{527, 0}";
},
{
name = top;
position = "{440, 660}";
}
);
layerId = "F97236B5-7CBD-4FD1-81B0-6670342ADB4E";
paths = (
{
closed = 1;
nodes = (
"664 660 LINE",
"511 0 LINE",
"527 0 LINE",
"680 660 LINE"
);
},
{
closed = 1;
nodes = (
"192 660 LINE",
"39 0 LINE",
"55 0 LINE",
"208 660 LINE"
);
},
{
closed = 1;
nodes = (
"127 344 LINE",
"123 330 LINE",
"596 330 LINE",
"600 344 LINE"
);
}
);
width = 682;
}
);
leftKerningGroup = I;
rightKerningGroup = I;
unicode = 0048;
},
{
glyphname = I;
layers = (
{
anchors = (
{
name = bottom;
position = "{87, 0}";
},
{
name = ogonek;
position = "{127, 0}";
},
{
name = top;
position = "{240, 660}";
}
);
layerId = "DBFAC7D3-9CB2-48DD-9F53-AD59A4BD1301";
paths = (
{
closed = 1;
nodes = (
"200 660 LINE",
"47 0 LINE",
"127 0 LINE",
"280 660 LINE"
);
}
);
width = 290;
},
{
anchors = (
{
name = bottom;
position = "{109, 0}";
},
{
name = ogonek;
position = "{225, 0}";
},
{
name = top;
position = "{261, 660}";
}
);
layerId = "EA77C764-8343-414A-A941-E69667BA8F3A";
paths = (
{
closed = 1;
nodes = (
"145 660 LINE",
"-8 0 LINE",
"225 0 LINE",
"378 660 LINE"
);
}
);
width = 333;
},
{
anchors = (
{
name = bottom;
position = "{47, 0}";
},
{
name = ogonek;
position = "{55, 0}";
},
{
name = top;
position = "{200, 660}";
}
);
layerId = "F97236B5-7CBD-4FD1-81B0-6670342ADB4E";
paths = (
{
closed = 1;
nodes = (
"192 660 LINE",
"39 0 LINE",
"55 0 LINE",
"208 660 LINE"
);
}
);
width = 210;
}
);
leftKerningGroup = I;
leftMetricsKey = H;
rightKerningGroup = I;
rightMetricsKey = H;
unicode = 0049;
},
{
glyphname = Idieresis;
layers = (
{
anchors = (
{
name = top;
position = "{284, 829}";
}
);
background = {
components = (
{
name = I;
}
);
paths = (
{
closed = 1;
nodes = (
"382 742 OFFCURVE",
"410 765 OFFCURVE",
"418 799 CURVE SMOOTH",
"419 804 OFFCURVE",
"420 810 OFFCURVE",
"420 814 CURVE SMOOTH",
"420 840 OFFCURVE",
"403 856 OFFCURVE",
"374 856 CURVE SMOOTH",
"340 856 OFFCURVE",
"312 833 OFFCURVE",
"304 799 CURVE SMOOTH",
"303 794 OFFCURVE",
"302 788 OFFCURVE",
"302 784 CURVE SMOOTH",
"302 758 OFFCURVE",
"319 742 OFFCURVE",
"348 742 CURVE SMOOTH"
);
},
{
closed = 1;
nodes = (
"210 742 OFFCURVE",
"238 765 OFFCURVE",
"246 799 CURVE SMOOTH",
"247 804 OFFCURVE",
"248 810 OFFCURVE",
"248 814 CURVE SMOOTH",
"248 840 OFFCURVE",
"231 856 OFFCURVE",
"202 856 CURVE SMOOTH",
"168 856 OFFCURVE",
"140 833 OFFCURVE",
"132 799 CURVE SMOOTH",
"131 794 OFFCURVE",
"130 788 OFFCURVE",
"130 784 CURVE SMOOTH",
"130 758 OFFCURVE",
"147 742 OFFCURVE",
"176 742 CURVE SMOOTH"
);
}
);
};
components = (
{
name = I;
}
);
hints = (
{
horizontal = 1;
place = "{742, 114}";
type = Stem;
}
);
layerId = "DBFAC7D3-9CB2-48DD-9F53-AD59A4BD1301";
paths = (
{
closed = 1;
nodes = (
"387 742 OFFCURVE",
"414 767 OFFCURVE",
"414 807 CURVE SMOOTH",
"414 835 OFFCURVE",
"393 856 OFFCURVE",
"364 856 CURVE SMOOTH",
"329 856 OFFCURVE",
"302 831 OFFCURVE",
"302 791 CURVE SMOOTH",
"302 763 OFFCURVE",
"323 742 OFFCURVE",
"352 742 CURVE SMOOTH"
);
},
{
closed = 1;
nodes = (
"213 742 OFFCURVE",
"240 767 OFFCURVE",
"240 807 CURVE SMOOTH",
"240 835 OFFCURVE",
"219 856 OFFCURVE",
"190 856 CURVE SMOOTH",
"155 856 OFFCURVE",
"128 831 OFFCURVE",
"128 791 CURVE SMOOTH",
"128 763 OFFCURVE",
"149 742 OFFCURVE",
"178 742 CURVE SMOOTH"
);
}
);
width = 290;
},
{
anchors = (
{
name = top;
position = "{300, 864}";
}
);
background = {
components = (
{
name = I;
}
);
paths = (
{
closed = 1;
nodes = (
"219 698 OFFCURVE",
"265 731 OFFCURVE",
"278 789 CURVE SMOOTH",
"292 847 OFFCURVE",
"261 880 OFFCURVE",
"197 880 CURVE SMOOTH",
"135 880 OFFCURVE",
"92 847 OFFCURVE",
"78 789 CURVE SMOOTH",
"65 731 OFFCURVE",
"93 698 OFFCURVE",
"155 698 CURVE SMOOTH"
);
},
{
closed = 1;
nodes = (
"444 698 OFFCURVE",
"490 731 OFFCURVE",
"503 789 CURVE SMOOTH",
"517 847 OFFCURVE",
"486 880 OFFCURVE",
"422 880 CURVE SMOOTH",
"360 880 OFFCURVE",
"317 847 OFFCURVE",
"303 789 CURVE SMOOTH",
"290 731 OFFCURVE",
"318 698 OFFCURVE",
"380 698 CURVE SMOOTH"
);
}
);
};
components = (
{
name = I;
}
);
layerId = "EA77C764-8343-414A-A941-E69667BA8F3A";
paths = (
{
closed = 1;
nodes = (
"466 697 OFFCURVE",
"510 726 OFFCURVE",
"510 806 CURVE SMOOTH",
"510 856 OFFCURVE",
"473 877 OFFCURVE",
"414 877 CURVE SMOOTH",
"341 877 OFFCURVE",
"296 848 OFFCURVE",
"296 769 CURVE SMOOTH",
"296 717 OFFCURVE",
"335 697 OFFCURVE",
"394 697 CURVE SMOOTH"
);
},
{
closed = 1;
nodes = (
"225 697 OFFCURVE",
"269 726 OFFCURVE",
"269 806 CURVE SMOOTH",
"269 856 OFFCURVE",
"232 877 OFFCURVE",
"173 877 CURVE SMOOTH",
"100 877 OFFCURVE",
"55 848 OFFCURVE",
"55 769 CURVE SMOOTH",
"55 717 OFFCURVE",
"94 697 OFFCURVE",
"153 697 CURVE SMOOTH"
);
}
);
width = 333;
},
{
anchors = (
{
name = top;
position = "{222, 798}";
}
);
background = {
components = (
{
alignment = -1;
name = I;
}
);
paths = (
{
closed = 1;
nodes = (
"297 758 OFFCURVE",
"306 768 OFFCURVE",
"306 782 CURVE SMOOTH",
"306 794 OFFCURVE",
"299 802 OFFCURVE",
"286 802 CURVE SMOOTH",
"272 802 OFFCURVE",
"264 791 OFFCURVE",
"264 778 CURVE SMOOTH",
"264 766 OFFCURVE",
"272 758 OFFCURVE",
"284 758 CURVE SMOOTH"
);
},
{
closed = 1;
nodes = (
"181 758 OFFCURVE",
"190 768 OFFCURVE",
"190 782 CURVE SMOOTH",
"190 794 OFFCURVE",
"183 802 OFFCURVE",
"170 802 CURVE SMOOTH",
"156 802 OFFCURVE",
"148 791 OFFCURVE",
"148 778 CURVE SMOOTH",
"148 766 OFFCURVE",
"156 758 OFFCURVE",
"168 758 CURVE SMOOTH"
);
}
);
};
components = (
{
alignment = -1;
name = I;
}
);
layerId = "F97236B5-7CBD-4FD1-81B0-6670342ADB4E";
paths = (
{
closed = 1;
nodes = (
"294 758 OFFCURVE",
"303 768 OFFCURVE",
"303 782 CURVE SMOOTH",
"303 794 OFFCURVE",
"296 802 OFFCURVE",
"283 802 CURVE SMOOTH",
"269 802 OFFCURVE",
"261 791 OFFCURVE",
"261 778 CURVE SMOOTH",
"261 766 OFFCURVE",
"269 758 OFFCURVE",
"281 758 CURVE SMOOTH"
);
},
{
closed = 1;
nodes = (
"170 758 OFFCURVE",
"179 768 OFFCURVE",
"179 782 CURVE SMOOTH",
"179 794 OFFCURVE",
"172 802 OFFCURVE",
"159 802 CURVE SMOOTH",
"145 802 OFFCURVE",
"137 791 OFFCURVE",
"137 778 CURVE SMOOTH",
"137 766 OFFCURVE",
"145 758 OFFCURVE",
"157 758 CURVE SMOOTH"
);
}
);
width = 209;
}
);
leftKerningGroup = I;
rightKerningGroup = I;
unicode = 00CF;
},
{
glyphname = Imacron;
layers = (
{
components = (
{
name = I;
}
);
layerId = "DBFAC7D3-9CB2-48DD-9F53-AD59A4BD1301";
paths = (
{
closed = 1;
nodes = (
"172 823 LINE",
"157 756 LINE",
"373 756 LINE",
"388 823 LINE"
);
}
);
width = 296;
},
{
components = (
{
name = I;
}
);
layerId = "EA77C764-8343-414A-A941-E69667BA8F3A";
paths = (
{
closed = 1;
nodes = (
"137 841 LINE",
"107 711 LINE",
"436 711 LINE",
"466 841 LINE"
);
}
);
width = 333;
},
{
components = (
{
name = I;
}
);
hints = (
{
horizontal = 1;
place = "{765, 14}";
type = Stem;
}
);
layerId = "F97236B5-7CBD-4FD1-81B0-6670342ADB4E";
paths = (
{
closed = 1;
nodes = (
"119 779 LINE",
"116 765 LINE",
"332 765 LINE",
"335 779 LINE"
);
}
);
width = 210;
}
);
leftKerningGroup = I;
rightKerningGroup = I;
unicode = 012A;
},
{
glyphname = J;
layers = (
{
anchors = (
{
name = bottom;
position = "{191, 0}";
},
{
name = ogonek;
position = "{244, 0}";
},
{
name = top;
position = "{510, 660}";
}
);
layerId = "DBFAC7D3-9CB2-48DD-9F53-AD59A4BD1301";
paths = (
{
closed = 1;
nodes = (
"357 -8 OFFCURVE",
"416 84 OFFCURVE",
"445 207 CURVE SMOOTH",
"550 660 LINE",
"469 660 LINE",
"369 227 LINE SMOOTH",
"343 110 OFFCURVE",
"307 64 OFFCURVE",
"221 64 CURVE SMOOTH",
"119 64 OFFCURVE",
"87 141 OFFCURVE",
"122 245 CURVE",
"46 240 LINE",
"-3 101 OFFCURVE",
"74 -8 OFFCURVE",
"214 -8 CURVE SMOOTH"
);
}
);
width = 549;
},
{
anchors = (
{
name = bottom;
position = "{260, 0}";
},
{
name = ogonek;
position = "{340, 0}";
},
{
name = top;
position = "{593, 660}";
}
);
layerId = "EA77C764-8343-414A-A941-E69667BA8F3A";
paths = (
{
closed = 1;
nodes = (
"495 -10 OFFCURVE",
"578 93 OFFCURVE",
"615 252 CURVE SMOOTH",
"709 660 LINE",
"476 660 LINE",
"390 289 LINE SMOOTH",
"370 201 OFFCURVE",
"355 165 OFFCURVE",
"309 165 CURVE SMOOTH",
"255 165 OFFCURVE",
"226 204 OFFCURVE",
"272 319 CURVE",
"38 310 LINE",
"-28 145 OFFCURVE",
"60 -10 OFFCURVE",
"294 -10 CURVE SMOOTH"
);
}
);
width = 649;
},
{
anchors = (
{
name = bottom;
position = "{155, 1}";
},
{
name = ogonek;
position = "{209, -5}";
},
{
name = top;
position = "{485, 660}";
}
);
guideLines = (
{
angle = 3.764;
position = "{38, 220}";
}
);
layerId = "F97236B5-7CBD-4FD1-81B0-6670342ADB4E";
paths = (
{
closed = 1;
nodes = (
"286 -10 OFFCURVE",
"353 51 OFFCURVE",
"384 187 CURVE SMOOTH",
"493 660 LINE",
"477 660 LINE",
"369 189 LINE SMOOTH",
"340 61 OFFCURVE",
"278 4 OFFCURVE",
"178 4 CURVE SMOOTH",
"59 4 OFFCURVE",
"3 84 OFFCURVE",
"42 220 CURVE",
"27 219 LINE",
"-15 79 OFFCURVE",
"50 -10 OFFCURVE",
"177 -10 CURVE SMOOTH"
);
}
);
width = 483;
}
);
leftKerningGroup = J;
rightKerningGroup = U;
unicode = 004A;
},
{
glyphname = K;
layers = (
{
anchors = (
{
name = bottom;
position = "{307, 0}";
},
{
name = ogonek;
position = "{553, 0}";
},
{
name = top;
position = "{441, 660}";
}
);
layerId = "DBFAC7D3-9CB2-48DD-9F53-AD59A4BD1301";
paths = (
{
closed = 1;
nodes = (
"127 0 LINE",
"174 202 LINE",
"324 331 LINE",
"463 0 LINE",
"551 0 LINE",
"386 385 LINE",
"701 660 LINE",
"589 660 LINE",
"202 324 LINE",
"280 660 LINE",
"200 660 LINE",
"47 0 LINE"
);
}
);
width = 637;
},
{
anchors = (
{
name = bottom;
position = "{298, 0}";
},
{
name = ogonek;
position = "{663, 0}";
},
{
name = top;
position = "{454, 660}";
}
);
layerId = "EA77C764-8343-414A-A941-E69667BA8F3A";
paths = (
{
closed = 1;
nodes = (
"225 0 LINE",
"262 161 LINE",
"343 236 LINE",
"427 0 LINE",
"663 0 LINE",
"522 382 LINE",
"808 660 LINE",
"557 660 LINE",
"326 437 LINE",
"378 660 LINE",
"145 660 LINE",
"-8 0 LINE"
);
}
);
width = 717;
},
{
anchors = (
{
name = bottom;
position = "{259, 0}";
},
{
name = ogonek;
position = "{475, 0}";
},
{
name = top;
position = "{408, 660}";
}
);
layerId = "F97236B5-7CBD-4FD1-81B0-6670342ADB4E";
paths = (
{
closed = 1;
nodes = (
"55 0 LINE",
"109 233 LINE",
"290 385 LINE",
"457 0 LINE",
"475 0 LINE",
"304 397 LINE",
"618 660 LINE",
"592 660 LINE",
"115 260 LINE",
"208 660 LINE",
"192 660 LINE",
"39 0 LINE"
);
}
);
width = 546;
}
);
leftKerningGroup = I;
leftMetricsKey = H;
rightKerningGroup = K;
unicode = 004B;
},
{
glyphname = L;
layers = (
{
anchors = (
{
name = bottom;
position = "{293, 0}";
},
{
name = center;
position = "{411, 354}";
},
{
name = ogonek;
position = "{497, 0}";
},
{
name = top;
position = "{240, 660}";
},
{
name = topright;
position = "{420, 660}";
}
);
layerId = "DBFAC7D3-9CB2-48DD-9F53-AD59A4BD1301";
paths = (
{
closed = 1;
nodes = (
"280 660 LINE",
"200 660 LINE",
"47 0 LINE",
"497 0 LINE",
"515 75 LINE",
"144 75 LINE"
);
}
);
width = 586;
},
{
anchors = (
{
name = bottom;
position = "{271, 0}";
},
{
name = center;
position = "{405, 391}";
},
{
name = ogonek;
position = "{534, 0}";
},
{
name = top;
position = "{261, 660}";
},
{
name = topright;
position = "{512, 660}";
}
);
layerId = "EA77C764-8343-414A-A941-E69667BA8F3A";
paths = (
{
closed = 1;
nodes = (
"378 660 LINE",
"145 660 LINE",
"-8 0 LINE",
"534 0 LINE",
"574 171 LINE",
"265 171 LINE"
);
}
);
width = 615;
},
{
anchors = (
{
name = bottom;
position = "{272, 0}";
},
{
name = center;
position = "{370, 344}";
},
{
name = ogonek;
position = "{462, 0}";
},
{
name = top;
position = "{200, 660}";
},
{
name = topright;
position = "{397, 660}";
}
);
layerId = "F97236B5-7CBD-4FD1-81B0-6670342ADB4E";
paths = (
{
closed = 1;
nodes = (
"208 660 LINE",
"192 660 LINE",
"39 0 LINE",
"462 0 LINE",
"466 14 LINE",
"59 14 LINE"
);
}
);
width = 532;
}
);
leftKerningGroup = I;
leftMetricsKey = H;
rightKerningGroup = L;
unicode = 004C;
},
{
glyphname = Lslash;
layers = (
{
components = (
{
name = L;
transform = "{1, 0, 0, 1, 21, 0}";
}
);
layerId = "DBFAC7D3-9CB2-48DD-9F53-AD59A4BD1301";
paths = (
{
closed = 1;
nodes = (
"35 289 LINE",
"14 201 LINE",
"395 393 LINE",
"416 481 LINE"
);
}
);
width = 607;
},
{
components = (
{
name = L;
transform = "{1, 0, 0, 1, 83, 0}";
}
);
layerId = "EA77C764-8343-414A-A941-E69667BA8F3A";
paths = (
{
closed = 1;
nodes = (
"36 306 LINE",
"-2 141 LINE",
"538 364 LINE",
"576 529 LINE"
);
}
);
width = 698;
},
{
components = (
{
alignment = -1;
name = L;
transform = "{1, 0, 0, 1, 11, 0}";
}
);
layerId = "F97236B5-7CBD-4FD1-81B0-6670342ADB4E";
paths = (
{
closed = 1;
nodes = (
"5 234 LINE",
"0 212 LINE",
"367 419 LINE",
"372 441 LINE"
);
}
);
width = 543;
}
);
leftKerningGroup = I;
rightKerningGroup = L;
rightMetricsKey = L;
unicode = 0141;
},
{
glyphname = M;
layers = (
{
anchors = (
{
name = bottom;
position = "{371, 0}";
},
{
name = ogonek;
position = "{674, 0}";
},
{
name = top;
position = "{514, 660}";
}
);
layerId = "DBFAC7D3-9CB2-48DD-9F53-AD59A4BD1301";
paths = (
{
closed = 1;
nodes = (
"123 0 LINE",
"219 415 LINE",
"251 589 LINE",
"252 589 LINE",
"324 0 LINE",
"392 0 LINE",
"739 589 LINE",
"740 589 LINE",
"695 415 LINE",
"599 0 LINE",
"674 0 LINE",
"827 660 LINE",
"698 660 LINE",
"460 248 LINE",
"379 97 LINE",
"378 97 LINE",
"364 250 LINE",
"315 660 LINE",
"200 660 LINE",
"47 0 LINE"
);
}
);
width = 837;
},
{
anchors = (
{
name = bottom;
position = "{416, 0}";
},
{
name = ogonek;
position = "{840, 0}";
},
{
name = top;
position = "{569, 660}";
}
);
layerId = "EA77C764-8343-414A-A941-E69667BA8F3A";
leftMetricsKey = "=I";
rightMetricsKey = "=I";
paths = (
{
closed = 1;
nodes = (
"195 0 LINE",
"248 229 LINE",
"286 430 LINE",
"288 430 LINE",
"330 0 LINE",
"505 0 LINE",
"736 437 LINE",
"738 437 LINE",
"690 229 LINE",
"637 0 LINE",
"840 0 LINE",
"993 660 LINE",
"669 660 LINE",
"537 401 LINE",
"457 231 LINE",
"456 231 LINE",
"451 400 LINE",
"430 660 LINE",
"145 660 LINE",
"-8 0 LINE"
);
}
);
width = 948;
},
{
anchors = (
{
name = bottom;
position = "{416, 0}";
},
{
name = bottomC;
position = "{433, 0}";
},
{
name = ogonek;
position = "{840, 0}";
},
{
name = top;
position = "{569, 660}";
}
);
associatedMasterId = "EA77C764-8343-414A-A941-E69667BA8F3A";
layerId = "4EC0181C-3FFB-40C2-A1C7-5A833B98BBE8";
leftMetricsKey = "=I";
rightMetricsKey = "=I";
name = "Sep 22 18, 14:46";
paths = (
{
closed = 1;
nodes = (
"519 348 LINE",
"463 212 LINE",
"461 348 LINE",
"438 660 LINE",
"145 660 LINE",
"-8 0 LINE",
"196 0 LINE",
"249 229 LINE",
"298 464 LINE",
"300 464 LINE",
"320 0 LINE",
"512 0 LINE",
"746 464 LINE",
"748 464 LINE",
"690 229 LINE",
"637 0 LINE",
"840 0 LINE",
"993 660 LINE",
"668 660 LINE"
);
}
);
width = 948;
},
{
anchors = (
{
name = bottom;
position = "{416, 0}";
},
{
name = ogonek;
position = "{840, 0}";
},
{
name = top;
position = "{569, 660}";
}
);
associatedMasterId = "EA77C764-8343-414A-A941-E69667BA8F3A";
background = {
paths = (
{
closed = 1;
nodes = (
"403 128 LINE",
"468 116 LINE",
"418 660 LINE",
"145 660 LINE",
"-8 0 LINE",
"196 0 LINE",
"249 229 LINE",
"319 565 LINE",
"268 567 LINE",
"330 0 LINE",
"505 0 LINE",
"818 566 LINE",
"777 564 LINE",
"690 229 LINE",
"637 0 LINE",
"840 0 LINE",
"993 660 LINE",
"687 660 LINE"
);
}
);
};
color = 3;
layerId = "375C58BF-B443-4CB1-86EF-7613E871DDBC";
leftMetricsKey = "=I";
rightMetricsKey = "=I";
name = "Oct 17 18, 23:13";
paths = (
{
closed = 1;
nodes = (
"406 145 LINE",
"474 121 LINE",
"430 660 LINE",
"145 660 LINE",
"-8 0 LINE",
"195 0 LINE",
"248 229 LINE",
"286 430 LINE",
"288 430 LINE",
"330 0 LINE",
"505 0 LINE",
"736 437 LINE",
"738 437 LINE",
"690 229 LINE",
"637 0 LINE",
"840 0 LINE",
"993 660 LINE",
"669 660 LINE"
);
}
);
width = 948;
},
{
anchors = (
{
name = bottom;
position = "{327, 0}";
},
{
name = ogonek;
position = "{615, 0}";
},
{
name = top;
position = "{480, 660}";
}
);
layerId = "F97236B5-7CBD-4FD1-81B0-6670342ADB4E";
paths = (
{
closed = 1;
nodes = (
"55 0 LINE",
"190 582 LINE",
"201 637 LINE",
"201 637 LINE",
"318 0 LINE",
"337 0 LINE",
"748 637 LINE",
"748 637 LINE",
"734 582 LINE",
"599 0 LINE",
"615 0 LINE",
"768 660 LINE",
"746 660 LINE",
"348 47 LINE",
"330 17 LINE",
"330 17 LINE",
"325 50 LINE",
"213 660 LINE",
"192 660 LINE",
"39 0 LINE"
);
}
);
width = 770;
}
);
leftKerningGroup = I;
leftMetricsKey = H;
rightKerningGroup = I;
rightMetricsKey = H;
unicode = 004D;
},
{
glyphname = N;
layers = (
{
anchors = (
{
name = bottom;
position = "{322, 0}";
},
{
name = ogonek;
position = "{556, 0}";
},
{
name = top;
position = "{447, 660}";
}
);
layerId = "DBFAC7D3-9CB2-48DD-9F53-AD59A4BD1301";
paths = (
{
closed = 1;
nodes = (
"123 0 LINE",
"231 466 LINE",
"252 572 LINE",
"253 572 LINE",
"294 442 LINE",
"461 0 LINE",
"556 0 LINE",
"709 660 LINE",
"633 660 LINE",
"525 194 LINE",
"504 88 LINE",
"503 88 LINE",
"460 220 LINE",
"296 660 LINE",
"200 660 LINE",
"47 0 LINE"
);
}
);
width = 719;
},
{
anchors = (
{
name = bottom;
position = "{331, 0}";
},
{
name = ogonek;
position = "{638, 0}";
},
{
name = top;
position = "{468, 660}";
}
);
layerId = "EA77C764-8343-414A-A941-E69667BA8F3A";
paths = (
{
closed = 1;
nodes = (
"194 0 LINE",
"251 245 LINE",
"279 394 LINE",
"281 394 LINE",
"306 300 LINE",
"399 0 LINE",
"638 0 LINE",
"791 660 LINE",
"589 660 LINE",
"532 415 LINE",
"501 256 LINE",
"499 256 LINE",
"476 349 LINE",
"387 660 LINE",
"145 660 LINE",
"-8 0 LINE"
);
}
);
width = 746;
},
{
anchors = (
{
name = bottom;
position = "{287, 0}";
},
{
name = ogonek;
position = "{525, 0}";
},
{
name = top;
position = "{431, 660}";
}
);
layerId = "F97236B5-7CBD-4FD1-81B0-6670342ADB4E";
paths = (
{
closed = 1;
nodes = (
"55 0 LINE",
"191 587 LINE",
"203 644 LINE",
"203 644 LINE",
"221 604 LINE",
"504 0 LINE",
"525 0 LINE",
"678 660 LINE",
"662 660 LINE",
"526 73 LINE",
"514 16 LINE",
"514 16 LINE",
"496 56 LINE",
"213 660 LINE",
"192 660 LINE",
"39 0 LINE"
);
}
);
width = 680;
}
);
leftKerningGroup = I;
leftMetricsKey = H;
rightKerningGroup = I;
rightMetricsKey = H;
unicode = 004E;
},
{
glyphname = Eng;
layers = (
{
layerId = "DBFAC7D3-9CB2-48DD-9F53-AD59A4BD1301";
paths = (
{
closed = 1;
nodes = (
"454 -215 OFFCURVE",
"516 -173 OFFCURVE",
"538 -78 CURVE SMOOTH",
"709 660 LINE",
"633 660 LINE",
"540 255 LINE",
"514 119 LINE",
"512 119 LINE",
"455 263 LINE",
"296 660 LINE",
"200 660 LINE",
"47 0 LINE",
"123 0 LINE",
"231 466 LINE",
"252 572 LINE",
"253 572 LINE",
"300 442 LINE",
"482 1 LINE",
"468 -57 LINE SMOOTH",
"452 -119 OFFCURVE",
"426 -135 OFFCURVE",
"386 -135 CURVE SMOOTH",
"360 -135 OFFCURVE",
"332 -123 OFFCURVE",
"314 -107 CURVE",
"286 -179 LINE",
"309 -203 OFFCURVE",
"352 -215 OFFCURVE",
"392 -215 CURVE SMOOTH"
);
}
);
width = 719;
},
{
layerId = "EA77C764-8343-414A-A941-E69667BA8F3A";
paths = (
{
closed = 1;
nodes = (
"526 -215 OFFCURVE",
"602 -155 OFFCURVE",
"635 -13 CURVE SMOOTH",
"791 660 LINE",
"589 660 LINE",
"525 386 LINE",
"504 287 LINE",
"503 287 LINE",
"470 381 LINE",
"366 660 LINE",
"145 660 LINE",
"-8 0 LINE",
"194 0 LINE",
"251 245 LINE",
"278 381 LINE",
"280 381 LINE",
"325 268 LINE",
"438 7 LINE",
"438 7 LINE",
"427 -41 OFFCURVE",
"405 -59 OFFCURVE",
"372 -59 CURVE SMOOTH",
"345 -59 OFFCURVE",
"327 -53 OFFCURVE",
"315 -45 CURVE",
"257 -192 LINE",
"291 -209 OFFCURVE",
"332 -215 OFFCURVE",
"391 -215 CURVE SMOOTH"
);
}
);
width = 746;
},
{
hints = (
{
horizontal = 1;
place = "{-215, 14}";
type = Stem;
},
{
horizontal = 1;
place = "{500, -20}";
target = down;
type = TopGhost;
},
{
horizontal = 1;
place = "{598, 44}";
type = Stem;
},
{
place = "{779, 16}";
type = Stem;
}
);
layerId = "F97236B5-7CBD-4FD1-81B0-6670342ADB4E";
paths = (
{
closed = 1;
nodes = (
"445 -215 OFFCURVE",
"489 -159 OFFCURVE",
"509 -73 CURVE SMOOTH",
"678 660 LINE",
"662 660 LINE",
"524 65 LINE",
"515 24 LINE",
"515 24 LINE",
"503 53 LINE",
"214 660 LINE",
"192 660 LINE",
"39 0 LINE",
"55 0 LINE",
"191 587 LINE",
"204 645 LINE",
"204 645 LINE",
"221 607 LINE",
"510 0 LINE",
"495 -65 LINE SMOOTH",
"474 -156 OFFCURVE",
"430 -201 OFFCURVE",
"362 -201 CURVE SMOOTH",
"340 -201 OFFCURVE",
"320 -194 OFFCURVE",
"305 -182 CURVE",
"297 -196 LINE",
"312 -207 OFFCURVE",
"335 -215 OFFCURVE",
"362 -215 CURVE SMOOTH"
);
}
);
width = 681;
}
);
leftKerningGroup = I;
leftMetricsKey = I;
rightKerningGroup = I;
rightMetricsKey = I;
unicode = 014A;
},
{
glyphname = O;
layers = (
{
anchors = (
{
name = bottom;
position = "{343, 0}";
},
{
name = center;
position = "{389, 330}";
},
{
name = ogonek;
position = "{450, 2}";
},
{
name = top;
position = "{437, 660}";
},
{
name = topleft;
position = "{115, 660}";
},
{
name = topright;
position = "{640, 660}";
}
);
guideLines = (
{
angle = 77;
position = "{390, 330}";
}
);
layerId = "DBFAC7D3-9CB2-48DD-9F53-AD59A4BD1301";
paths = (
{
closed = 1;
nodes = (
"577 -10 OFFCURVE",
"694 177 OFFCURVE",
"694 380 CURVE SMOOTH",
"694 565 OFFCURVE",
"571 670 OFFCURVE",
"423 670 CURVE SMOOTH",
"203 670 OFFCURVE",
"85 484 OFFCURVE",
"85 280 CURVE SMOOTH",
"85 94 OFFCURVE",
"210 -10 OFFCURVE",
"359 -10 CURVE SMOOTH"
);
},
{
closed = 1;
nodes = (
"248 66 OFFCURVE",
"169 146 OFFCURVE",
"169 285 CURVE SMOOTH",
"169 441 OFFCURVE",
"253 594 OFFCURVE",
"413 594 CURVE SMOOTH",
"530 594 OFFCURVE",
"610 513 OFFCURVE",
"610 375 CURVE SMOOTH",
"610 220 OFFCURVE",
"527 66 OFFCURVE",
"368 66 CURVE SMOOTH"
);
}
);
width = 742;
},
{
anchors = (
{
name = bottom;
position = "{311, 0}";
},
{
name = bottomC;
position = "{311, 0}";
},
{
name = ogonek;
position = "{388, 0}";
},
{
name = top;
position = "{464, 660}";
}
);
associatedMasterId = "DBFAC7D3-9CB2-48DD-9F53-AD59A4BD1301";
background = {
paths = (
{
closed = 1;
nodes = (
"278 688 OFFCURVE",
"133 567 OFFCURVE",
"86 362 CURVE SMOOTH",
"39 157 OFFCURVE",
"124 13 OFFCURVE",
"307 -8 CURVE SMOOTH",
"490 -29 OFFCURVE",
"635 90 OFFCURVE",
"682 294 CURVE SMOOTH",
"729 499 OFFCURVE",
"644 646 OFFCURVE",
"461 667 CURVE SMOOTH"
);
},
{
closed = 1;
nodes = (
"576 578 OFFCURVE",
"636 467 OFFCURVE",
"599 304 CURVE SMOOTH",
"562 141 OFFCURVE",
"456 51 OFFCURVE",
"324 66 CURVE SMOOTH",
"192 81 OFFCURVE",
"132 190 OFFCURVE",
"170 353 CURVE SMOOTH",
"208 516 OFFCURVE",
"312 608 OFFCURVE",
"444 593 CURVE SMOOTH"
);
},
{
closed = 1;
nodes = (
"979 670 OFFCURVE",
"833 539 OFFCURVE",
"784 330 CURVE SMOOTH",
"735 121 OFFCURVE",
"822 -10 OFFCURVE",
"1006 -10 CURVE SMOOTH",
"1190 -10 OFFCURVE",
"1336 121 OFFCURVE",
"1384 330 CURVE SMOOTH",
"1432 539 OFFCURVE",
"1347 670 OFFCURVE",
"1163 670 CURVE SMOOTH"
);
},
{
closed = 1;
nodes = (
"1279 595 OFFCURVE",
"1339 496 OFFCURVE",
"1300 330 CURVE SMOOTH",
"1261 164 OFFCURVE",
"1156 65 OFFCURVE",
"1023 65 CURVE SMOOTH",
"890 65 OFFCURVE",
"830 164 OFFCURVE",
"868 330 CURVE SMOOTH",
"906 496 OFFCURVE",
"1013 595 OFFCURVE",
"1146 595 CURVE SMOOTH"
);
}
);
};
guideLines = (
{
angle = 77;
position = "{385, 330}";
}
);
layerId = "6EF5DE75-3F00-435F-9C21-93076978BDDF";
name = "Sep 2 18, 15:55";
paths = (
{
closed = 1;
nodes = (
"198 670 OFFCURVE",
"76 479 OFFCURVE",
"76 270 CURVE SMOOTH",
"76 94 OFFCURVE",
"200 -10 OFFCURVE",
"347 -10 CURVE SMOOTH",
"571 -10 OFFCURVE",
"693 181 OFFCURVE",
"693 390 CURVE SMOOTH",
"693 566 OFFCURVE",
"569 670 OFFCURVE",
"422 670 CURVE SMOOTH"
);
},
{
closed = 1;
nodes = (
"529 595 OFFCURVE",
"609 513 OFFCURVE",
"609 382 CURVE SMOOTH",
"609 225 OFFCURVE",
"520 65 OFFCURVE",
"361 65 CURVE SMOOTH",
"240 65 OFFCURVE",
"160 147 OFFCURVE",
"160 278 CURVE SMOOTH",
"160 435 OFFCURVE",
"249 595 OFFCURVE",
"408 595 CURVE SMOOTH"
);
}
);
width = 732;
},
{
anchors = (
{
name = bottom;
position = "{311, 0}";
},
{
name = bottomC;
position = "{311, 0}";
},
{
name = ogonek;
position = "{388, 0}";
},
{
name = top;
position = "{464, 660}";
}
);
associatedMasterId = "DBFAC7D3-9CB2-48DD-9F53-AD59A4BD1301";
background = {
paths = (
{
closed = 1;
nodes = (
"198 670 OFFCURVE",
"76 479 OFFCURVE",
"76 270 CURVE SMOOTH",
"76 94 OFFCURVE",
"200 -10 OFFCURVE",
"347 -10 CURVE SMOOTH",
"571 -10 OFFCURVE",
"693 181 OFFCURVE",
"693 390 CURVE SMOOTH",
"693 566 OFFCURVE",
"569 670 OFFCURVE",
"422 670 CURVE SMOOTH"
);
},
{
closed = 1;
nodes = (
"529 595 OFFCURVE",
"609 513 OFFCURVE",
"609 382 CURVE SMOOTH",
"609 225 OFFCURVE",
"520 65 OFFCURVE",
"361 65 CURVE SMOOTH",
"240 65 OFFCURVE",
"160 147 OFFCURVE",
"160 278 CURVE SMOOTH",
"160 435 OFFCURVE",
"249 595 OFFCURVE",
"408 595 CURVE SMOOTH"
);
}
);
};
color = 5;
guideLines = (
{
angle = 77;
position = "{385, 330}";
}
);
layerId = "FFD6E767-6CFA-443E-8660-45EAB30D8AAB";
name = "Sep 2 18, 17:12";
paths = (
{
closed = 1;
nodes = (
"197 667 OFFCURVE",
"78 476 OFFCURVE",
"78 269 CURVE SMOOTH",
"78 91 OFFCURVE",
"206 -13 OFFCURVE",
"353 -10 CURVE SMOOTH",
"572 -6 OFFCURVE",
"691 185 OFFCURVE",
"691 392 CURVE SMOOTH",
"691 570 OFFCURVE",
"563 674 OFFCURVE",
"416 671 CURVE SMOOTH"
);
},
{
closed = 1;
nodes = (
"528 596 OFFCURVE",
"607 514 OFFCURVE",
"607 385 CURVE SMOOTH",
"607 226 OFFCURVE",
"519 65 OFFCURVE",
"358 65 CURVE SMOOTH",
"241 65 OFFCURVE",
"162 147 OFFCURVE",
"162 276 CURVE SMOOTH",
"162 435 OFFCURVE",
"250 596 OFFCURVE",
"411 596 CURVE SMOOTH"
);
}
);
width = 732;
},
{
anchors = (
{
name = bottom;
position = "{316, 0}";
},
{
name = bottomC;
position = "{316, 0}";
},
{
name = ogonek;
position = "{393, 0}";
},
{
name = top;
position = "{440, 660}";
}
);
associatedMasterId = "DBFAC7D3-9CB2-48DD-9F53-AD59A4BD1301";
background = {
paths = (
{
closed = 1;
nodes = (
"203 670 OFFCURVE",
"81 479 OFFCURVE",
"81 270 CURVE SMOOTH",
"81 94 OFFCURVE",
"205 -10 OFFCURVE",
"352 -10 CURVE SMOOTH",
"576 -10 OFFCURVE",
"698 181 OFFCURVE",
"698 390 CURVE SMOOTH",
"698 566 OFFCURVE",
"574 670 OFFCURVE",
"427 670 CURVE SMOOTH"
);
},
{
closed = 1;
nodes = (
"534 595 OFFCURVE",
"614 513 OFFCURVE",
"614 382 CURVE SMOOTH",
"614 225 OFFCURVE",
"525 65 OFFCURVE",
"366 65 CURVE SMOOTH",
"245 65 OFFCURVE",
"165 147 OFFCURVE",
"165 278 CURVE SMOOTH",
"165 435 OFFCURVE",
"254 595 OFFCURVE",
"413 595 CURVE SMOOTH"
);
}
);
};
color = 5;
guideLines = (
{
angle = 77;
position = "{390, 330}";
}
);
layerId = "B76B498B-630C-426C-AE9A-BB19F0F05DBB";
name = "Sep 9 18, 14:34";
paths = (
{
closed = 1;
nodes = (
"198 670 OFFCURVE",
"80 476 OFFCURVE",
"85 267 CURVE SMOOTH",
"89 90 OFFCURVE",
"214 -10 OFFCURVE",
"356 -10 CURVE SMOOTH",
"581 -10 OFFCURVE",
"699 184 OFFCURVE",
"694 393 CURVE SMOOTH",
"690 570 OFFCURVE",
"565 670 OFFCURVE",
"423 670 CURVE SMOOTH"
);
},
{
closed = 1;
nodes = (
"530 594 OFFCURVE",
"610 513 OFFCURVE",
"610 375 CURVE SMOOTH",
"610 219 OFFCURVE",
"526 66 OFFCURVE",
"366 66 CURVE SMOOTH",
"249 66 OFFCURVE",
"169 147 OFFCURVE",
"169 285 CURVE SMOOTH",
"169 441 OFFCURVE",
"253 594 OFFCURVE",
"413 594 CURVE SMOOTH"
);
}
);
width = 742;
},
{
anchors = (
{
name = bottom;
position = "{326, 0}";
},
{
name = center;
position = "{381, 330}";
},
{
name = ogonek;
position = "{455, 1}";
},
{
name = top;
position = "{437, 660}";
},
{
name = topleft;
position = "{115, 660}";
},
{
name = topright;
position = "{691, 660}";
}
);
background = {
anchors = (
{
name = bottom;
position = "{326, 0}";
},
{
name = center;
position = "{381, 330}";
},
{
name = ogonek;
position = "{455, 1}";
},
{
name = top;
position = "{437, 660}";
},
{
name = topleft;
position = "{115, 660}";
},
{
name = topright;
position = "{691, 660}";
}
);
paths = (
{
closed = 1;
nodes = (
"580 -10 OFFCURVE",
"709 142 OFFCURVE",
"719 363 CURVE SMOOTH",
"727 556 OFFCURVE",
"593 670 OFFCURVE",
"411 670 CURVE SMOOTH",
"182 670 OFFCURVE",
"53 518 OFFCURVE",
"43 297 CURVE SMOOTH",
"35 104 OFFCURVE",
"169 -10 OFFCURVE",
"351 -10 CURVE SMOOTH"
);
},
{
closed = 1;
nodes = (
"300 165 OFFCURVE",
"275 197 OFFCURVE",
"275 258 CURVE SMOOTH",
"275 357 OFFCURVE",
"317 495 OFFCURVE",
"407 495 CURVE SMOOTH",
"462 495 OFFCURVE",
"487 463 OFFCURVE",
"487 402 CURVE SMOOTH",
"487 303 OFFCURVE",
"445 165 OFFCURVE",
"355 165 CURVE SMOOTH"
);
}
);
};
layerId = "EA77C764-8343-414A-A941-E69667BA8F3A";
paths = (
{
closed = 1;
nodes = (
"581 -10 OFFCURVE",
"719 149 OFFCURVE",
"719 379 CURVE SMOOTH",
"719 562 OFFCURVE",
"588 670 OFFCURVE",
"411 670 CURVE SMOOTH",
"181 670 OFFCURVE",
"43 511 OFFCURVE",
"43 281 CURVE SMOOTH",
"43 98 OFFCURVE",
"174 -10 OFFCURVE",
"351 -10 CURVE SMOOTH"
);
},
{
closed = 1;
nodes = (
"300 165 OFFCURVE",
"275 197 OFFCURVE",
"275 258 CURVE SMOOTH",
"275 357 OFFCURVE",
"317 495 OFFCURVE",
"407 495 CURVE SMOOTH",
"462 495 OFFCURVE",
"487 463 OFFCURVE",
"487 402 CURVE SMOOTH",
"487 303 OFFCURVE",
"445 165 OFFCURVE",
"355 165 CURVE SMOOTH"
);
}
);
width = 725;
},
{
anchors = (
{
name = bottom;
position = "{305, 0}";
},
{
name = bottomC;
position = "{305, 0}";
},
{
name = ogonek;
position = "{392, 0}";
},
{
name = top;
position = "{458, 660}";
}
);
associatedMasterId = "EA77C764-8343-414A-A941-E69667BA8F3A";
background = {
paths = (
{
closed = 1;
nodes = (
"251 670 OFFCURVE",
"95 546 OFFCURVE",
"45 330 CURVE SMOOTH",
"-4 114 OFFCURVE",
"94 -10 OFFCURVE",
"303 -10 CURVE SMOOTH",
"513 -10 OFFCURVE",
"667 114 OFFCURVE",
"716 330 CURVE SMOOTH",
"766 546 OFFCURVE",
"670 670 OFFCURVE",
"460 670 CURVE SMOOTH"
);
},
{
closed = 1;
nodes = (
"488 495 OFFCURVE",
"505 445 OFFCURVE",
"478 330 CURVE SMOOTH",
"452 215 OFFCURVE",
"411 165 OFFCURVE",
"343 165 CURVE SMOOTH",
"275 165 OFFCURVE",
"257 215 OFFCURVE",
"283 330 CURVE SMOOTH",
"310 445 OFFCURVE",
"352 495 OFFCURVE",
"420 495 CURVE SMOOTH"
);
}
);
};
color = 3;
layerId = "E4D104AA-65F3-43D1-865D-93B26CF4A17B";
name = "Sep 14 18, 19:53";
paths = (
{
closed = 1;
nodes = (
"571 670 OFFCURVE",
"404 670 CURVE SMOOTH",
"175 670 OFFCURVE",
"53 518 OFFCURVE",
"43 297 CURVE SMOOTH",
"35 104 OFFCURVE",
"191 -10 OFFCURVE",
"358 -10 CURVE SMOOTH",
"587 -10 OFFCURVE",
"709 142 OFFCURVE",
"719 363 CURVE SMOOTH",
"727 556 OFFCURVE"
);
},
{
closed = 1;
nodes = (
"462 495 OFFCURVE",
"487 463 OFFCURVE",
"487 402 CURVE SMOOTH",
"487 303 OFFCURVE",
"445 165 OFFCURVE",
"355 165 CURVE SMOOTH",
"300 165 OFFCURVE",
"275 197 OFFCURVE",
"275 258 CURVE SMOOTH",
"275 357 OFFCURVE",
"317 495 OFFCURVE",
"407 495 CURVE SMOOTH"
);
}
);
width = 725;
},
{
anchors = (
{
name = bottom;
position = "{305, 0}";
},
{
name = bottomC;
position = "{305, 0}";
},
{
name = ogonek;
position = "{392, 0}";
},
{
name = top;
position = "{458, 660}";
}
);
associatedMasterId = "EA77C764-8343-414A-A941-E69667BA8F3A";
background = {
paths = (
{
closed = 1;
nodes = (
"173 670 OFFCURVE",
"46 546 OFFCURVE",
"46 330 CURVE SMOOTH",
"46 114 OFFCURVE",
"173 -10 OFFCURVE",
"382 -10 CURVE SMOOTH",
"592 -10 OFFCURVE",
"717 114 OFFCURVE",
"717 330 CURVE SMOOTH",
"717 546 OFFCURVE",
"592 670 OFFCURVE",
"382 670 CURVE SMOOTH"
);
},
{
closed = 1;
nodes = (
"450 495 OFFCURVE",
"479 445 OFFCURVE",
"479 330 CURVE SMOOTH",
"479 215 OFFCURVE",
"450 165 OFFCURVE",
"382 165 CURVE SMOOTH",
"314 165 OFFCURVE",
"284 215 OFFCURVE",
"284 330 CURVE SMOOTH",
"284 445 OFFCURVE",
"314 495 OFFCURVE",
"382 495 CURVE SMOOTH"
);
}
);
};
color = 3;
layerId = "B711EFA5-60DB-41CB-BC19-1A7C0B6E189F";
name = "Sep 16 18, 17:07";
paths = (
{
closed = 1;
nodes = (
"583 670 OFFCURVE",
"411 670 CURVE SMOOTH",
"182 670 OFFCURVE",
"53 518 OFFCURVE",
"43 297 CURVE SMOOTH",
"35 104 OFFCURVE",
"179 -10 OFFCURVE",
"351 -10 CURVE SMOOTH",
"580 -10 OFFCURVE",
"709 142 OFFCURVE",
"719 363 CURVE SMOOTH",
"727 556 OFFCURVE"
);
},
{
closed = 1;
nodes = (
"462 495 OFFCURVE",
"487 463 OFFCURVE",
"487 402 CURVE SMOOTH",
"487 303 OFFCURVE",
"445 165 OFFCURVE",
"355 165 CURVE SMOOTH",
"300 165 OFFCURVE",
"275 197 OFFCURVE",
"275 258 CURVE SMOOTH",
"275 357 OFFCURVE",
"317 495 OFFCURVE",
"407 495 CURVE SMOOTH"
);
}
);
width = 725;
},
{
anchors = (
{
name = bottom;
position = "{328, 0}";
},
{
name = center;
position = "{374, 330}";
},
{
name = ogonek;
position = "{394, -6}";
},
{
name = top;
position = "{420, 660}";
},
{
name = topleft;
position = "{100, 660}";
},
{
name = topright;
position = "{586, 660}";
}
);
layerId = "F97236B5-7CBD-4FD1-81B0-6670342ADB4E";
paths = (
{
closed = 1;
nodes = (
"562 -10 OFFCURVE",
"674 177 OFFCURVE",
"674 380 CURVE SMOOTH",
"674 565 OFFCURVE",
"556 670 OFFCURVE",
"408 670 CURVE SMOOTH",
"188 670 OFFCURVE",
"75 484 OFFCURVE",
"75 280 CURVE SMOOTH",
"75 94 OFFCURVE",
"195 -10 OFFCURVE",
"344 -10 CURVE SMOOTH"
);
},
{
closed = 1;
nodes = (
"206 4 OFFCURVE",
"91 102 OFFCURVE",
"91 280 CURVE SMOOTH",
"91 476 OFFCURVE",
"199 656 OFFCURVE",
"407 656 CURVE SMOOTH",
"546 656 OFFCURVE",
"658 557 OFFCURVE",
"658 380 CURVE SMOOTH",
"658 184 OFFCURVE",
"550 4 OFFCURVE",
"345 4 CURVE SMOOTH"
);
}
);
width = 712;
}
);
leftKerningGroup = O;
rightKerningGroup = O;
unicode = 004F;
},
{
glyphname = Oslash;
layers = (
{
components = (
{
name = O;
}
);
layerId = "DBFAC7D3-9CB2-48DD-9F53-AD59A4BD1301";
paths = (
{
closed = 1;
nodes = (
"599 521 LINE",
"562 566 LINE",
"176 136 LINE",
"216 94 LINE"
);
},
{
closed = 1;
nodes = (
"121 -12 LINE",
"216 94 LINE",
"176 136 LINE",
"44 -12 LINE"
);
},
{
closed = 1;
nodes = (
"737 674 LINE",
"659 674 LINE",
"562 566 LINE",
"599 521 LINE"
);
}
);
width = 742;
},
{
components = (
{
name = O;
}
);
layerId = "EA77C764-8343-414A-A941-E69667BA8F3A";
paths = (
{
closed = 1;
nodes = (
"538 469 LINE",
"502 530 LINE",
"222 204 LINE",
"263 148 LINE"
);
},
{
closed = 1;
nodes = (
"100 -21 LINE",
"197 84 LINE",
"153 134 LINE",
"15 -21 LINE"
);
},
{
closed = 1;
nodes = (
"732 680 LINE",
"647 680 LINE",
"558 583 LINE",
"569 498 LINE"
);
}
);
width = 725;
},
{
components = (
{
alignment = -1;
name = O;
}
);
layerId = "F97236B5-7CBD-4FD1-81B0-6670342ADB4E";
paths = (
{
closed = 1;
nodes = (
"611 566 LINE",
"602 577 LINE",
"151 82 LINE",
"161 71 LINE"
);
},
{
closed = 1;
nodes = (
"85 -12 LINE",
"161 71 LINE",
"151 82 LINE",
"65 -12 LINE"
);
},
{
closed = 1;
nodes = (
"710 674 LINE",
"690 674 LINE",
"602 577 LINE",
"611 566 LINE"
);
}
);
width = 712;
}
);
leftKerningGroup = O;
leftMetricsKey = O;
rightKerningGroup = O;
rightMetricsKey = O;
unicode = 00D8;
},
{
glyphname = OE;
layers = (
{
anchors = (
{
name = bottom;
position = "{537, 0}";
},
{
name = ogonek;
position = "{961, 0}";
},
{
name = top;
position = "{690, 660}";
}
);
layerId = "DBFAC7D3-9CB2-48DD-9F53-AD59A4BD1301";
paths = (
{
closed = 1;
nodes = (
"427 -10 OFFCURVE",
"492 17 OFFCURVE",
"548 84 CURVE",
"528 0 LINE",
"961 0 LINE",
"979 75 LINE",
"617 75 LINE",
"669 297 LINE",
"932 297 LINE",
"949 372 LINE",
"686 372 LINE",
"736 585 LINE",
"1081 585 LINE",
"1099 660 LINE",
"681 660 LINE",
"648 517 LINE",
"618 616 OFFCURVE",
"524 670 OFFCURVE",
"422 670 CURVE SMOOTH",
"200 670 OFFCURVE",
"80 476 OFFCURVE",
"85 267 CURVE SMOOTH",
"89 90 OFFCURVE",
"214 -10 OFFCURVE",
"353 -10 CURVE SMOOTH"
);
},
{
closed = 1;
nodes = (
"249 66 OFFCURVE",
"169 147 OFFCURVE",
"169 285 CURVE SMOOTH",
"169 441 OFFCURVE",
"255 594 OFFCURVE",
"412 594 CURVE SMOOTH",
"526 594 OFFCURVE",
"604 513 OFFCURVE",
"604 375 CURVE SMOOTH",
"604 212 OFFCURVE",
"515 66 OFFCURVE",
"363 66 CURVE SMOOTH"
);
}
);
width = 1070;
},
{
anchors = (
{
name = bottom;
position = "{488, 0}";
},
{
name = ogonek;
position = "{948, 0}";
},
{
name = top;
position = "{660, 660}";
}
);
background = {
paths = (
{
closed = 1;
nodes = (
"397 -10 OFFCURVE",
"458 22 OFFCURVE",
"505 72 CURVE",
"488 0 LINE",
"948 0 LINE",
"988 171 LINE",
"681 171 LINE",
"699 249 LINE",
"933 249 LINE",
"969 407 LINE",
"735 407 LINE",
"754 489 LINE",
"1055 489 LINE",
"1095 660 LINE",
"621 660 LINE",
"601 577 LINE",
"570 633 OFFCURVE",
"505 670 OFFCURVE",
"394 670 CURVE SMOOTH",
"181 670 OFFCURVE",
"53 518 OFFCURVE",
"43 297 CURVE SMOOTH",
"35 104 OFFCURVE",
"166 -10 OFFCURVE",
"318 -10 CURVE SMOOTH"
);
},
{
closed = 1;
nodes = (
"300 165 OFFCURVE",
"275 197 OFFCURVE",
"275 258 CURVE SMOOTH",
"275 357 OFFCURVE",
"317 495 OFFCURVE",
"407 495 CURVE SMOOTH",
"462 495 OFFCURVE",
"487 463 OFFCURVE",
"487 402 CURVE SMOOTH",
"487 303 OFFCURVE",
"445 165 OFFCURVE",
"355 165 CURVE SMOOTH"
);
}
);
};
layerId = "EA77C764-8343-414A-A941-E69667BA8F3A";
paths = (
{
closed = 1;
nodes = (
"397 -10 OFFCURVE",
"458 22 OFFCURVE",
"505 72 CURVE",
"488 0 LINE",
"948 0 LINE",
"988 171 LINE",
"681 171 LINE",
"699 249 LINE",
"933 249 LINE",
"969 407 LINE",
"735 407 LINE",
"754 489 LINE",
"1055 489 LINE",
"1095 660 LINE",
"621 660 LINE",
"601 577 LINE",
"570 633 OFFCURVE",
"505 670 OFFCURVE",
"394 670 CURVE SMOOTH",
"175 670 OFFCURVE",
"43 504 OFFCURVE",
"43 280 CURVE SMOOTH",
"43 97 OFFCURVE",
"170 -10 OFFCURVE",
"318 -10 CURVE SMOOTH"
);
},
{
closed = 1;
nodes = (
"300 165 OFFCURVE",
"275 197 OFFCURVE",
"275 258 CURVE SMOOTH",
"275 357 OFFCURVE",
"317 495 OFFCURVE",
"407 495 CURVE SMOOTH",
"462 495 OFFCURVE",
"487 463 OFFCURVE",
"487 402 CURVE SMOOTH",
"487 303 OFFCURVE",
"445 165 OFFCURVE",
"355 165 CURVE SMOOTH"
);
}
);
width = 1022;
},
{
anchors = (
{
name = bottom;
position = "{471, 0}";
},
{
name = ogonek;
position = "{950, 0}";
},
{
name = top;
position = "{614, 660}";
}
);
layerId = "F97236B5-7CBD-4FD1-81B0-6670342ADB4E";
paths = (
{
closed = 1;
nodes = (
"431 -10 OFFCURVE",
"512 45 OFFCURVE",
"562 140 CURVE",
"530 0 LINE",
"950 0 LINE",
"954 14 LINE",
"550 14 LINE",
"622 330 LINE",
"928 330 LINE",
"932 344 LINE",
"626 344 LINE",
"695 646 LINE",
"1080 646 LINE",
"1084 660 LINE",
"683 660 LINE",
"621 394 LINE",
"626 557 OFFCURVE",
"560 670 OFFCURVE",
"396 670 CURVE SMOOTH",
"201 670 OFFCURVE",
"74 487 OFFCURVE",
"74 284 CURVE SMOOTH",
"74 97 OFFCURVE",
"171 -10 OFFCURVE",
"320 -10 CURVE SMOOTH"
);
},
{
closed = 1;
nodes = (
"183 4 OFFCURVE",
"90 106 OFFCURVE",
"90 284 CURVE SMOOTH",
"90 474 OFFCURVE",
"209 656 OFFCURVE",
"395 656 CURVE SMOOTH",
"555 656 OFFCURVE",
"614 536 OFFCURVE",
"607 382 CURVE SMOOTH",
"595 170 OFFCURVE",
"502 4 OFFCURVE",
"320 4 CURVE SMOOTH"
);
}
);
width = 1038;
},
{
anchors = (
{
name = bottom;
position = "{520, 0}";
},
{
name = center;
position = "{379, 330}";
},
{
name = ogonek;
position = "{960, 0}";
},
{
name = top;
position = "{673, 660}";
},
{
name = topleft;
position = "{105, 660}";
},
{
name = topright;
position = "{630, 660}";
}
);
associatedMasterId = "F97236B5-7CBD-4FD1-81B0-6670342ADB4E";
background = {
components = (
{
name = O;
transform = "{1, 0, 0, 1, -46, 0}";
}
);
};
guideLines = (
{
angle = 256.9633;
position = "{646, 511}";
}
);
layerId = "FD785272-5614-4CCD-BF27-4E97E74AD0F4";
name = "Oct 24 18, 12:03";
paths = (
{
closed = 1;
nodes = (
"457 -10 OFFCURVE",
"545 101 OFFCURVE",
"585 217 CURVE",
"576 214 LINE",
"527 0 LINE",
"947 0 LINE",
"951 14 LINE",
"547 14 LINE",
"619 330 LINE",
"935 330 LINE",
"939 344 LINE",
"623 344 LINE",
"692 646 LINE",
"1077 646 LINE",
"1081 660 LINE",
"680 660 LINE",
"611 362 LINE",
"621 385 LINE",
"635 547 OFFCURVE",
"529 670 OFFCURVE",
"387 670 CURVE SMOOTH",
"188 670 OFFCURVE",
"75 484 OFFCURVE",
"75 277 CURVE SMOOTH",
"75 104 OFFCURVE",
"161 -10 OFFCURVE",
"314 -10 CURVE SMOOTH"
);
},
{
closed = 1;
nodes = (
"172 4 OFFCURVE",
"91 112 OFFCURVE",
"91 277 CURVE SMOOTH",
"91 476 OFFCURVE",
"199 656 OFFCURVE",
"386 656 CURVE SMOOTH",
"516 656 OFFCURVE",
"608 547 OFFCURVE",
"608 404 CURVE SMOOTH",
"608 215 OFFCURVE",
"497 4 OFFCURVE",
"315 4 CURVE SMOOTH"
);
}
);
width = 1035;
}
);
leftKerningGroup = O;
leftMetricsKey = O;
rightKerningGroup = E;
rightMetricsKey = E;
unicode = 0152;
},
{
glyphname = P;
layers = (
{
anchors = (
{
name = bottom;
position = "{87, 0}";
},
{
name = ogonek;
position = "{127, 0}";
},
{
name = top;
position = "{404, 660}";
}
);
background = {
paths = (
{
closed = 1;
nodes = (
"127 0 LINE",
"263 585 LINE",
"386 585 LINE SMOOTH",
"472 585 OFFCURVE",
"519 544 OFFCURVE",
"521 481 CURVE SMOOTH",
"524 400 OFFCURVE",
"472 329 OFFCURVE",
"364 329 CURVE SMOOTH",
"170 329 LINE",
"153 254 LINE",
"345 254 LINE SMOOTH",
"501 254 OFFCURVE",
"606 348 OFFCURVE",
"604 479 CURVE SMOOTH",
"602 587 OFFCURVE",
"524 660 OFFCURVE",
"392 660 CURVE SMOOTH",
"200 660 LINE",
"47 0 LINE"
);
}
);
};
layerId = "DBFAC7D3-9CB2-48DD-9F53-AD59A4BD1301";
paths = (
{
closed = 1;
nodes = (
"127 0 LINE",
"263 585 LINE",
"386 585 LINE SMOOTH",
"475 585 OFFCURVE",
"521 541 OFFCURVE",
"521 474 CURVE SMOOTH",
"521 396 OFFCURVE",
"469 329 OFFCURVE",
"364 329 CURVE SMOOTH",
"170 329 LINE",
"153 254 LINE",
"345 254 LINE SMOOTH",
"501 254 OFFCURVE",
"604 348 OFFCURVE",
"604 479 CURVE SMOOTH",
"604 587 OFFCURVE",
"524 660 OFFCURVE",
"392 660 CURVE SMOOTH",
"200 660 LINE",
"47 0 LINE"
);
}
);
width = 610;
},
{
anchors = (
{
name = bottom;
position = "{109, 0}";
},
{
name = ogonek;
position = "{225, 0}";
},
{
name = top;
position = "{432, 660}";
}
);
layerId = "EA77C764-8343-414A-A941-E69667BA8F3A";
paths = (
{
closed = 1;
nodes = (
"225 0 LINE",
"339 495 LINE",
"402 495 LINE SMOOTH",
"459 495 OFFCURVE",
"479 471 OFFCURVE",
"479 433 CURVE SMOOTH",
"479 391 OFFCURVE",
"445 356 OFFCURVE",
"386 356 CURVE SMOOTH",
"195 356 LINE",
"158 191 LINE",
"406 191 LINE SMOOTH",
"595 191 OFFCURVE",
"708 298 OFFCURVE",
"708 450 CURVE SMOOTH",
"708 584 OFFCURVE",
"605 660 OFFCURVE",
"430 660 CURVE SMOOTH",
"145 660 LINE",
"-8 0 LINE"
);
}
);
width = 700;
},
{
anchors = (
{
name = bottom;
position = "{47, 0}";
},
{
name = ogonek;
position = "{55, 0}";
},
{
name = top;
position = "{383, 660}";
}
);
background = {
paths = (
{
closed = 1;
nodes = (
"55 0 LINE",
"205 646 LINE",
"363 646 LINE SMOOTH",
"482 646 OFFCURVE",
"553 587 OFFCURVE",
"554 493 CURVE SMOOTH",
"555 383 OFFCURVE",
"473 294 OFFCURVE",
"329 294 CURVE SMOOTH",
"114 294 LINE",
"114 280 LINE",
"327 280 LINE SMOOTH",
"483 280 OFFCURVE",
"571 371 OFFCURVE",
"570 493 CURVE SMOOTH",
"569 598 OFFCURVE",
"488 660 OFFCURVE",
"363 660 CURVE SMOOTH",
"192 660 LINE",
"39 0 LINE"
);
}
);
};
guideLines = (
{
angle = 256.9483;
position = "{132, 330}";
}
);
layerId = "F97236B5-7CBD-4FD1-81B0-6670342ADB4E";
paths = (
{
closed = 1;
nodes = (
"55 0 LINE",
"205 646 LINE",
"363 646 LINE SMOOTH",
"482 646 OFFCURVE",
"554 587 OFFCURVE",
"554 493 CURVE SMOOTH",
"554 383 OFFCURVE",
"473 294 OFFCURVE",
"329 294 CURVE SMOOTH",
"114 294 LINE",
"114 280 LINE",
"327 280 LINE SMOOTH",
"483 280 OFFCURVE",
"570 371 OFFCURVE",
"570 493 CURVE SMOOTH",
"570 598 OFFCURVE",
"488 660 OFFCURVE",
"363 660 CURVE SMOOTH",
"192 660 LINE",
"39 0 LINE"
);
}
);
width = 569;
}
);
leftKerningGroup = I;
leftMetricsKey = H;
unicode = 0050;
},
{
glyphname = Thorn;
layers = (
{
anchors = (
{
name = bottom;
position = "{87, 0}";
},
{
name = ogonek;
position = "{127, 0}";
},
{
name = top;
position = "{240, 660}";
}
);
background = {
paths = (
{
closed = 1;
nodes = (
"336 132 LINE SMOOTH",
"482 132 OFFCURVE",
"587 227 OFFCURVE",
"585 358 CURVE SMOOTH",
"583 466 OFFCURVE",
"505 538 OFFCURVE",
"373 538 CURVE SMOOTH",
"224 538 LINE",
"204 463 LINE",
"367 463 LINE SMOOTH",
"453 463 OFFCURVE",
"500 423 OFFCURVE",
"502 360 CURVE SMOOTH",
"505 279 OFFCURVE",
"453 207 OFFCURVE",
"345 207 CURVE SMOOTH",
"147 207 LINE",
"130 132 LINE"
);
},
{
closed = 1;
nodes = (
"127 0 LINE",
"280 660 LINE",
"200 660 LINE",
"47 0 LINE"
);
}
);
};
layerId = "DBFAC7D3-9CB2-48DD-9F53-AD59A4BD1301";
paths = (
{
closed = 1;
nodes = (
"336 132 LINE SMOOTH",
"482 132 OFFCURVE",
"584 227 OFFCURVE",
"584 358 CURVE SMOOTH",
"584 466 OFFCURVE",
"505 538 OFFCURVE",
"373 538 CURVE SMOOTH",
"224 538 LINE",
"204 463 LINE",
"367 463 LINE SMOOTH",
"453 463 OFFCURVE",
"502 423 OFFCURVE",
"502 360 CURVE SMOOTH",
"502 279 OFFCURVE",
"453 207 OFFCURVE",
"345 207 CURVE SMOOTH",
"147 207 LINE",
"130 132 LINE"
);
},
{
closed = 1;
nodes = (
"127 0 LINE",
"280 660 LINE",
"200 660 LINE",
"47 0 LINE"
);
}
);
width = 614;
},
{
anchors = (
{
name = bottom;
position = "{109, 0}";
},
{
name = ogonek;
position = "{225, 0}";
},
{
name = top;
position = "{262, 660}";
}
);
layerId = "EA77C764-8343-414A-A941-E69667BA8F3A";
leftMetricsKey = "=I";
paths = (
{
closed = 1;
nodes = (
"394 102 LINE SMOOTH",
"583 102 OFFCURVE",
"696 209 OFFCURVE",
"696 361 CURVE SMOOTH",
"696 495 OFFCURVE",
"593 571 OFFCURVE",
"418 571 CURVE SMOOTH",
"253 571 LINE",
"215 406 LINE",
"390 406 LINE SMOOTH",
"447 406 OFFCURVE",
"467 382 OFFCURVE",
"467 344 CURVE SMOOTH",
"467 302 OFFCURVE",
"433 267 OFFCURVE",
"374 267 CURVE SMOOTH",
"187 267 LINE",
"150 102 LINE"
);
},
{
closed = 1;
nodes = (
"225 0 LINE",
"378 660 LINE",
"145 660 LINE",
"-8 0 LINE"
);
}
);
width = 704;
},
{
anchors = (
{
name = bottom;
position = "{47, 0}";
},
{
name = ogonek;
position = "{55, 0}";
},
{
name = top;
position = "{200, 660}";
}
);
background = {
paths = (
{
closed = 1;
nodes = (
"301 134 LINE SMOOTH",
"458 134 OFFCURVE",
"544 227 OFFCURVE",
"543 347 CURVE SMOOTH",
"542 452 OFFCURVE",
"461 514 OFFCURVE",
"336 514 CURVE SMOOTH",
"169 514 LINE",
"169 500 LINE",
"336 500 LINE SMOOTH",
"455 500 OFFCURVE",
"526 441 OFFCURVE",
"527 347 CURVE SMOOTH",
"528 237 OFFCURVE",
"446 148 OFFCURVE",
"302 148 CURVE SMOOTH",
"85 148 LINE",
"85 134 LINE"
);
},
{
closed = 1;
nodes = (
"55 0 LINE",
"208 660 LINE",
"192 660 LINE",
"39 0 LINE"
);
}
);
};
layerId = "F97236B5-7CBD-4FD1-81B0-6670342ADB4E";
paths = (
{
closed = 1;
nodes = (
"301 134 LINE SMOOTH",
"458 134 OFFCURVE",
"543 227 OFFCURVE",
"543 347 CURVE SMOOTH",
"543 452 OFFCURVE",
"461 514 OFFCURVE",
"336 514 CURVE SMOOTH",
"169 514 LINE",
"169 500 LINE",
"336 500 LINE SMOOTH",
"455 500 OFFCURVE",
"527 441 OFFCURVE",
"527 347 CURVE SMOOTH",
"527 237 OFFCURVE",
"446 148 OFFCURVE",
"302 148 CURVE SMOOTH",
"85 148 LINE",
"85 134 LINE"
);
},
{
closed = 1;
nodes = (
"55 0 LINE",
"208 660 LINE",
"192 660 LINE",
"39 0 LINE"
);
}
);
width = 556;
}
);
leftKerningGroup = I;
leftMetricsKey = H;
unicode = 00DE;
},
{
glyphname = Q;
layers = (
{
anchors = (
{
name = bottom;
position = "{268, -210}";
},
{
name = ogonek;
position = "{473, -190}";
}
);
components = (
{
name = O;
}
);
hints = (
{
horizontal = 1;
place = "{-195, 81}";
type = Stem;
}
);
layerId = "DBFAC7D3-9CB2-48DD-9F53-AD59A4BD1301";
paths = (
{
closed = 1;
nodes = (
"511 -194 OFFCURVE",
"559 -187 OFFCURVE",
"596 -165 CURVE",
"590 -86 LINE",
"557 -106 OFFCURVE",
"525 -116 OFFCURVE",
"481 -116 CURVE SMOOTH",
"408 -116 OFFCURVE",
"363 -85 OFFCURVE",
"363 -23 CURVE SMOOTH",
"363 -5 OFFCURVE",
"366 15 OFFCURVE",
"374 37 CURVE",
"299 20 LINE",
"293 0 OFFCURVE",
"290 -19 OFFCURVE",
"290 -37 CURVE SMOOTH",
"290 -133 OFFCURVE",
"371 -194 OFFCURVE",
"474 -194 CURVE SMOOTH"
);
}
);
width = 742;
},
{
anchors = (
{
name = bottom;
position = "{259, -210}";
},
{
name = ogonek;
position = "{478, -202}";
}
);
components = (
{
name = O;
}
);
guideLines = (
{
angle = 90;
position = "{692, 57}";
}
);
hints = (
{
horizontal = 1;
place = "{-210, 170}";
type = Stem;
}
);
layerId = "EA77C764-8343-414A-A941-E69667BA8F3A";
leftMetricsKey = "=O";
rightMetricsKey = "=O";
paths = (
{
closed = 1;
nodes = (
"524 -210 OFFCURVE",
"563 -198 OFFCURVE",
"593 -182 CURVE",
"593 -29 LINE",
"568 -40 OFFCURVE",
"532 -48 OFFCURVE",
"484 -48 CURVE SMOOTH",
"425 -48 OFFCURVE",
"379 -38 OFFCURVE",
"379 -5 CURVE SMOOTH",
"379 1 OFFCURVE",
"380 9 OFFCURVE",
"384 17 CURVE",
"243 17 LINE",
"235 -11 OFFCURVE",
"235 -29 OFFCURVE",
"235 -44 CURVE SMOOTH",
"235 -166 OFFCURVE",
"356 -210 OFFCURVE",
"466 -210 CURVE SMOOTH"
);
}
);
width = 725;
},
{
anchors = (
{
name = bottom;
position = "{244, -210}";
},
{
name = ogonek;
position = "{464, -191}";
}
);
components = (
{
alignment = -1;
name = O;
}
);
hints = (
{
horizontal = 1;
place = "{-195, 14}";
type = Stem;
}
);
layerId = "F97236B5-7CBD-4FD1-81B0-6670342ADB4E";
paths = (
{
closed = 1;
nodes = (
"495 -195 OFFCURVE",
"530 -186 OFFCURVE",
"555 -170 CURVE",
"549 -158 LINE",
"524 -173 OFFCURVE",
"488 -181 OFFCURVE",
"458 -181 CURVE SMOOTH",
"376 -181 OFFCURVE",
"321 -134 OFFCURVE",
"321 -56 CURVE SMOOTH",
"321 -40 OFFCURVE",
"323 -23 OFFCURVE",
"328 -4 CURVE",
"315 1 LINE",
"309 -20 OFFCURVE",
"306 -40 OFFCURVE",
"306 -58 CURVE SMOOTH",
"306 -142 OFFCURVE",
"367 -195 OFFCURVE",
"456 -195 CURVE SMOOTH"
);
}
);
width = 712;
}
);
leftKerningGroup = O;
leftMetricsKey = O;
widthMetricsKey = O;
rightKerningGroup = O;
unicode = 0051;
},
{
glyphname = R;
layers = (
{
anchors = (
{
name = bottom;
position = "{311, 0}";
},
{
name = ogonek;
position = "{556, 0}";
},
{
name = top;
position = "{403, 660}";
}
);
layerId = "DBFAC7D3-9CB2-48DD-9F53-AD59A4BD1301";
paths = (
{
closed = 1;
nodes = (
"127 0 LINE",
"263 585 LINE",
"400 585 LINE SMOOTH",
"478 585 OFFCURVE",
"527 550 OFFCURVE",
"527 484 CURVE SMOOTH",
"527 405 OFFCURVE",
"476 341 OFFCURVE",
"370 341 CURVE SMOOTH",
"190 341 LINE",
"173 266 LINE",
"378 266 LINE",
"428 273 LINE",
"524 290 OFFCURVE",
"610 369 OFFCURVE",
"610 481 CURVE SMOOTH",
"610 593 OFFCURVE",
"535 660 OFFCURVE",
"416 660 CURVE SMOOTH",
"200 660 LINE",
"47 0 LINE"
);
},
{
closed = 1;
nodes = (
"556 0 LINE",
"437 291 LINE",
"356 281 LINE",
"469 0 LINE"
);
}
);
width = 637;
},
{
anchors = (
{
name = bottom;
position = "{316, 0}";
},
{
name = ogonek;
position = "{654, 0}";
},
{
name = top;
position = "{429, 660}";
}
);
layerId = "EA77C764-8343-414A-A941-E69667BA8F3A";
paths = (
{
closed = 1;
nodes = (
"220 0 LINE",
"334 494 LINE",
"414 494 LINE SMOOTH",
"453 494 OFFCURVE",
"484 479 OFFCURVE",
"484 438 CURVE SMOOTH",
"484 393 OFFCURVE",
"446 364 OFFCURVE",
"389 364 CURVE SMOOTH",
"290 364 LINE",
"255 211 LINE",
"382 211 LINE",
"411 221 LINE",
"587 221 OFFCURVE",
"711 302 OFFCURVE",
"711 466 CURVE SMOOTH",
"711 589 OFFCURVE",
"619 660 OFFCURVE",
"473 660 CURVE SMOOTH",
"145 660 LINE",
"-8 0 LINE"
);
},
{
closed = 1;
nodes = (
"654 0 LINE",
"523 323 LINE",
"318 289 LINE",
"423 0 LINE"
);
}
);
width = 704;
},
{
anchors = (
{
name = bottom;
position = "{281, 0}";
},
{
name = ogonek;
position = "{509, 0}";
},
{
name = top;
position = "{374, 660}";
}
);
guideLines = (
{
angle = 256.9483;
position = "{507, 0}";
}
);
layerId = "F97236B5-7CBD-4FD1-81B0-6670342ADB4E";
paths = (
{
closed = 1;
nodes = (
"55 0 LINE",
"205 646 LINE",
"394 646 LINE SMOOTH",
"513 646 OFFCURVE",
"570 585 OFFCURVE",
"570 497 CURVE SMOOTH",
"570 393 OFFCURVE",
"502 310 OFFCURVE",
"358 310 CURVE SMOOTH",
"115 310 LINE",
"115 296 LINE",
"356 296 LINE",
"356 296 LINE SMOOTH",
"512 296 OFFCURVE",
"586 383 OFFCURVE",
"586 499 CURVE SMOOTH",
"586 598 OFFCURVE",
"519 660 OFFCURVE",
"394 660 CURVE SMOOTH",
"192 660 LINE",
"39 0 LINE"
);
},
{
closed = 1;
nodes = (
"509 0 LINE",
"389 308 LINE",
"372 308 LINE",
"492 0 LINE"
);
}
);
width = 606;
}
);
leftKerningGroup = I;
leftMetricsKey = H;
rightKerningGroup = R;
unicode = 0052;
},
{
glyphname = S;
layers = (
{
anchors = (
{
name = bottom;
position = "{286, 0}";
},
{
name = ogonek;
position = "{323, 0}";
},
{
name = top;
position = "{397, 660}";
}
);
background = {
paths = (
{
closed = 1;
nodes = (
"460 -13 OFFCURVE",
"575 68 OFFCURVE",
"575 196 CURVE SMOOTH",
"575 271 OFFCURVE",
"529 322 OFFCURVE",
"432 350 CURVE SMOOTH",
"313 384 LINE SMOOTH",
"254 401 OFFCURVE",
"217 441 OFFCURVE",
"217 486 CURVE SMOOTH",
"217 545 OFFCURVE",
"267 596 OFFCURVE",
"368 596 CURVE SMOOTH",
"445 596 OFFCURVE",
"522 574 OFFCURVE",
"548 470 CURVE",
"628 509 LINE",
"590 618 OFFCURVE",
"502 671 OFFCURVE",
"373 671 CURVE SMOOTH",
"227 671 OFFCURVE",
"134 583 OFFCURVE",
"134 473 CURVE SMOOTH",
"134 394 OFFCURVE",
"191 334 OFFCURVE",
"293 305 CURVE SMOOTH",
"400 275 LINE SMOOTH",
"460 258 OFFCURVE",
"492 232 OFFCURVE",
"492 183 CURVE SMOOTH",
"492 121 OFFCURVE",
"438 62 OFFCURVE",
"331 67 CURVE SMOOTH",
"233 72 OFFCURVE",
"152 115 OFFCURVE",
"119 227 CURVE",
"39 187 LINE",
"82 63 OFFCURVE",
"182 -3 OFFCURVE",
"325 -8 CURVE SMOOTH"
);
}
);
};
layerId = "DBFAC7D3-9CB2-48DD-9F53-AD59A4BD1301";
paths = (
{
closed = 1;
nodes = (
"467 -8 OFFCURVE",
"575 72 OFFCURVE",
"575 196 CURVE SMOOTH",
"575 271 OFFCURVE",
"529 322 OFFCURVE",
"432 350 CURVE SMOOTH",
"313 384 LINE SMOOTH",
"254 401 OFFCURVE",
"217 441 OFFCURVE",
"217 486 CURVE SMOOTH",
"217 545 OFFCURVE",
"267 596 OFFCURVE",
"368 596 CURVE SMOOTH",
"445 596 OFFCURVE",
"522 574 OFFCURVE",
"548 470 CURVE",
"628 509 LINE",
"590 618 OFFCURVE",
"502 671 OFFCURVE",
"373 671 CURVE SMOOTH",
"227 671 OFFCURVE",
"134 583 OFFCURVE",
"134 473 CURVE SMOOTH",
"134 394 OFFCURVE",
"191 334 OFFCURVE",
"293 305 CURVE SMOOTH",
"400 275 LINE SMOOTH",
"460 258 OFFCURVE",
"492 232 OFFCURVE",
"492 183 CURVE SMOOTH",
"492 123 OFFCURVE",
"442 67 OFFCURVE",
"344 67 CURVE SMOOTH",
"240 67 OFFCURVE",
"153 110 OFFCURVE",
"119 227 CURVE",
"39 187 LINE",
"83 60 OFFCURVE",
"188 -8 OFFCURVE",
"337 -8 CURVE SMOOTH"
);
}
);
width = 639;
},
{
anchors = (
{
name = bottom;
position = "{275, 0}";
},
{
name = ogonek;
position = "{310, 0}";
},
{
name = top;
position = "{399, 660}";
}
);
layerId = "EA77C764-8343-414A-A941-E69667BA8F3A";
paths = (
{
closed = 1;
nodes = (
"493 -13 OFFCURVE",
"617 69 OFFCURVE",
"617 214 CURVE SMOOTH",
"617 312 OFFCURVE",
"559 366 OFFCURVE",
"457 402 CURVE SMOOTH",
"372 432 LINE SMOOTH",
"339 444 OFFCURVE",
"317 454 OFFCURVE",
"317 470 CURVE SMOOTH",
"317 488 OFFCURVE",
"331 497 OFFCURVE",
"364 497 CURVE SMOOTH",
"434 497 OFFCURVE",
"504 461 OFFCURVE",
"554 411 CURVE",
"677 545 LINE",
"599 620 OFFCURVE",
"505 670 OFFCURVE",
"361 670 CURVE SMOOTH",
"199 670 OFFCURVE",
"74 599 OFFCURVE",
"74 450 CURVE SMOOTH",
"74 343 OFFCURVE",
"153 286 OFFCURVE",
"235 257 CURVE SMOOTH",
"328 224 LINE SMOOTH",
"360 213 OFFCURVE",
"373 204 OFFCURVE",
"373 190 CURVE SMOOTH",
"373 172 OFFCURVE",
"360 158 OFFCURVE",
"323 158 CURVE SMOOTH",
"249 158 OFFCURVE",
"151 205 OFFCURVE",
"96 269 CURVE",
"-20 131 LINE",
"67 33 OFFCURVE",
"194 -13 OFFCURVE",
"328 -13 CURVE SMOOTH"
);
}
);
width = 640;
},
{
anchors = (
{
name = bottom;
position = "{338, 0}";
},
{
name = bottomC;
position = "{330, 0}";
},
{
name = ogonek;
position = "{421, 0}";
},
{
name = top;
position = "{331, 660}";
}
);
associatedMasterId = "EA77C764-8343-414A-A941-E69667BA8F3A";
layerId = "A0AF2F36-EC08-4EEE-9202-00FA535E13D8";
name = "Aug 13 18, 16:38";
paths = (
{
closed = 1;
nodes = (
"138 670 OFFCURVE",
"28 578 OFFCURVE",
"28 443 CURVE SMOOTH",
"28 280 OFFCURVE",
"185 251 OFFCURVE",
"292 232 CURVE SMOOTH",
"348 222 OFFCURVE",
"390 214 OFFCURVE",
"390 191 CURVE SMOOTH",
"390 174 OFFCURVE",
"373 161 OFFCURVE",
"317 161 CURVE SMOOTH",
"231 161 OFFCURVE",
"166 186 OFFCURVE",
"110 241 CURVE",
"10 83 LINE",
"91 24 OFFCURVE",
"167 -10 OFFCURVE",
"334 -10 CURVE SMOOTH",
"496 -10 OFFCURVE",
"629 63 OFFCURVE",
"629 203 CURVE SMOOTH",
"629 329 OFFCURVE",
"551 394 OFFCURVE",
"357 429 CURVE SMOOTH",
"305 438 OFFCURVE",
"267 444 OFFCURVE",
"267 461 CURVE SMOOTH",
"267 483 OFFCURVE",
"297 499 OFFCURVE",
"344 499 CURVE SMOOTH",
"419 499 OFFCURVE",
"478 476 OFFCURVE",
"539 420 CURVE",
"641 565 LINE",
"548 646 OFFCURVE",
"463 670 OFFCURVE",
"337 670 CURVE SMOOTH"
);
}
);
width = 646;
},
{
anchors = (
{
name = bottom;
position = "{338, 0}";
},
{
name = bottomC;
position = "{330, 0}";
},
{
name = ogonek;
position = "{421, 0}";
},
{
name = top;
position = "{331, 660}";
}
);
associatedMasterId = "EA77C764-8343-414A-A941-E69667BA8F3A";
background = {
anchors = (
{
name = bottom;
position = "{338, 0}";
},
{
name = bottomC;
position = "{330, 0}";
},
{
name = ogonek;
position = "{421, 0}";
},
{
name = top;
position = "{331, 660}";
}
);
paths = (
{
closed = 1;
nodes = (
"138 670 OFFCURVE",
"28 578 OFFCURVE",
"28 443 CURVE SMOOTH",
"28 287 OFFCURVE",
"169 264 OFFCURVE",
"292 237 CURVE SMOOTH",
"369 220 OFFCURVE",
"391 214 OFFCURVE",
"390 189 CURVE SMOOTH",
"389 172 OFFCURVE",
"373 159 OFFCURVE",
"327 159 CURVE SMOOTH",
"251 159 OFFCURVE",
"158 200 OFFCURVE",
"98 243 CURVE",
"10 83 LINE",
"91 24 OFFCURVE",
"207 -10 OFFCURVE",
"334 -10 CURVE SMOOTH",
"498 -10 OFFCURVE",
"629 63 OFFCURVE",
"629 223 CURVE SMOOTH",
"629 329 OFFCURVE",
"560 387 OFFCURVE",
"402 419 CURVE SMOOTH",
"304 439 OFFCURVE",
"269 447 OFFCURVE",
"269 468 CURVE SMOOTH",
"269 486 OFFCURVE",
"287 499 OFFCURVE",
"339 499 CURVE SMOOTH",
"419 499 OFFCURVE",
"488 470 OFFCURVE",
"549 414 CURVE",
"641 568 LINE",
"558 639 OFFCURVE",
"451 670 OFFCURVE",
"337 670 CURVE SMOOTH"
);
}
);
};
layerId = "20D464A6-D61A-4AD1-AD66-460BEB0B348B";
name = "Sep 2 18, 17:32";
paths = (
{
closed = 1;
nodes = (
"138 670 OFFCURVE",
"28 578 OFFCURVE",
"28 443 CURVE SMOOTH",
"28 287 OFFCURVE",
"169 264 OFFCURVE",
"292 237 CURVE SMOOTH",
"369 220 OFFCURVE",
"391 214 OFFCURVE",
"390 189 CURVE SMOOTH",
"389 172 OFFCURVE",
"373 159 OFFCURVE",
"327 159 CURVE SMOOTH",
"251 159 OFFCURVE",
"158 200 OFFCURVE",
"98 243 CURVE",
"10 83 LINE",
"91 24 OFFCURVE",
"207 -10 OFFCURVE",
"334 -10 CURVE SMOOTH",
"498 -10 OFFCURVE",
"629 63 OFFCURVE",
"629 223 CURVE SMOOTH",
"629 329 OFFCURVE",
"560 387 OFFCURVE",
"402 419 CURVE SMOOTH",
"304 439 OFFCURVE",
"269 447 OFFCURVE",
"269 468 CURVE SMOOTH",
"269 486 OFFCURVE",
"287 499 OFFCURVE",
"339 499 CURVE SMOOTH",
"419 499 OFFCURVE",
"488 470 OFFCURVE",
"549 414 CURVE",
"641 568 LINE",
"558 639 OFFCURVE",
"451 670 OFFCURVE",
"337 670 CURVE SMOOTH"
);
}
);
width = 646;
},
{
anchors = (
{
name = bottom;
position = "{277, 0}";
},
{
name = bottomC;
position = "{269, 0}";
},
{
name = ogonek;
position = "{360, 0}";
},
{
name = top;
position = "{423, 660}";
}
);
associatedMasterId = "EA77C764-8343-414A-A941-E69667BA8F3A";
background = {
anchors = (
{
name = bottom;
position = "{335, 0}";
},
{
name = bottomC;
position = "{327, 0}";
},
{
name = ogonek;
position = "{418, 0}";
},
{
name = top;
position = "{328, 660}";
}
);
paths = (
{
closed = 1;
nodes = (
"234 688 OFFCURVE",
"105 609 OFFCURVE",
"74 475 CURVE SMOOTH",
"45 344 OFFCURVE",
"136 293 OFFCURVE",
"235 258 CURVE SMOOTH",
"328 225 LINE SMOOTH",
"366 211 OFFCURVE",
"377 201 OFFCURVE",
"372 182 CURVE SMOOTH",
"367 165 OFFCURVE",
"348 154 OFFCURVE",
"303 159 CURVE SMOOTH",
"229 168 OFFCURVE",
"135 215 OFFCURVE",
"89 267 CURVE",
"-35 128 LINE",
"26 56 OFFCURVE",
"147 5 OFFCURVE",
"272 -10 CURVE SMOOTH",
"433 -28 OFFCURVE",
"578 30 OFFCURVE",
"614 189 CURVE SMOOTH",
"638 294 OFFCURVE",
"582 353 OFFCURVE",
"457 399 CURVE SMOOTH",
"372 431 LINE SMOOTH",
"337 444 OFFCURVE",
"312 455 OFFCURVE",
"316 473 CURVE SMOOTH",
"320 491 OFFCURVE",
"341 501 OFFCURVE",
"392 496 CURVE SMOOTH",
"471 487 OFFCURVE",
"534 454 OFFCURVE",
"574 396 CURVE",
"706 530 LINE",
"640 609 OFFCURVE",
"550 652 OFFCURVE",
"429 666 CURVE SMOOTH"
);
}
);
};
color = 3;
layerId = "9C844629-BDFC-4994-A3A9-71DDAD355FDF";
name = "Sep 22 18, 18:05";
paths = (
{
closed = 1;
nodes = (
"504 670 OFFCURVE",
"373 670 CURVE SMOOTH",
"201 670 OFFCURVE",
"74 602 OFFCURVE",
"74 437 CURVE SMOOTH",
"74 338 OFFCURVE",
"153 287 OFFCURVE",
"235 258 CURVE SMOOTH",
"328 225 LINE SMOOTH",
"360 213 OFFCURVE",
"373 204 OFFCURVE",
"373 190 CURVE SMOOTH",
"373 172 OFFCURVE",
"360 158 OFFCURVE",
"323 158 CURVE SMOOTH",
"249 158 OFFCURVE",
"151 202 OFFCURVE",
"96 266 CURVE",
"-25 130 LINE",
"50 43 OFFCURVE",
"147 5 OFFCURVE",
"272 -10 CURVE SMOOTH",
"291 -12 OFFCURVE",
"310 -13 OFFCURVE",
"328 -13 CURVE SMOOTH",
"493 -13 OFFCURVE",
"617 68 OFFCURVE",
"617 223 CURVE SMOOTH",
"617 311 OFFCURVE",
"559 367 OFFCURVE",
"457 403 CURVE SMOOTH",
"372 433 LINE SMOOTH",
"339 445 OFFCURVE",
"317 454 OFFCURVE",
"317 470 CURVE SMOOTH",
"317 488 OFFCURVE",
"331 497 OFFCURVE",
"373 497 CURVE SMOOTH",
"437 497 OFFCURVE",
"520 466 OFFCURVE",
"577 402 CURVE",
"700 536 LINE",
"606 634 OFFCURVE"
);
}
);
width = 640;
},
{
anchors = (
{
name = bottom;
position = "{296, 0}";
},
{
name = ogonek;
position = "{345, 0}";
},
{
name = top;
position = "{417, 660}";
}
);
associatedMasterId = "DBFAC7D3-9CB2-48DD-9F53-AD59A4BD1301";
background = {
anchors = (
{
name = bottom;
position = "{296, 0}";
},
{
name = bottomC;
position = "{267, 0}";
},
{
name = ogonek;
position = "{345, 0}";
},
{
name = top;
position = "{417, 660}";
}
);
paths = (
{
closed = 1;
nodes = (
"263 670 OFFCURVE",
"150 580 OFFCURVE",
"126 474 CURVE SMOOTH",
"102 373 OFFCURVE",
"154 319 OFFCURVE",
"321 288 CURVE SMOOTH",
"450 264 OFFCURVE",
"485 231 OFFCURVE",
"471 174 CURVE SMOOTH",
"455 103 OFFCURVE",
"380 65 OFFCURVE",
"281 65 CURVE SMOOTH",
"176 65 OFFCURVE",
"119 113 OFFCURVE",
"103 189 CURVE",
"22 133 LINE",
"48 53 OFFCURVE",
"123 -10 OFFCURVE",
"262 -10 CURVE SMOOTH",
"412 -10 OFFCURVE",
"529 65 OFFCURVE",
"555 178 CURVE SMOOTH",
"579 280 OFFCURVE",
"530 336 OFFCURVE",
"365 366 CURVE SMOOTH",
"233 390 OFFCURVE",
"197 421 OFFCURVE",
"212 483 CURVE SMOOTH",
"226 546 OFFCURVE",
"295 595 OFFCURVE",
"397 595 CURVE SMOOTH",
"492 595 OFFCURVE",
"531 561 OFFCURVE",
"551 474 CURVE",
"632 530 LINE",
"602 622 OFFCURVE",
"532 670 OFFCURVE",
"413 670 CURVE SMOOTH"
);
}
);
};
color = 5;
layerId = "38D64FE0-2FDA-46A5-B02F-77F1AB423649";
name = "Sep 26 18, 16:47";
paths = (
{
closed = 1;
nodes = (
"182 -3 OFFCURVE",
"325 -8 CURVE SMOOTH",
"460 -13 OFFCURVE",
"575 68 OFFCURVE",
"575 196 CURVE SMOOTH",
"575 271 OFFCURVE",
"529 322 OFFCURVE",
"434 349 CURVE SMOOTH",
"313 384 LINE SMOOTH",
"254 401 OFFCURVE",
"217 441 OFFCURVE",
"217 486 CURVE SMOOTH",
"217 545 OFFCURVE",
"267 596 OFFCURVE",
"368 596 CURVE SMOOTH",
"445 596 OFFCURVE",
"522 574 OFFCURVE",
"548 470 CURVE",
"628 509 LINE",
"590 618 OFFCURVE",
"502 671 OFFCURVE",
"373 671 CURVE SMOOTH",
"227 671 OFFCURVE",
"134 583 OFFCURVE",
"134 473 CURVE SMOOTH",
"134 394 OFFCURVE",
"191 333 OFFCURVE",
"287 306 CURVE SMOOTH",
"400 275 LINE SMOOTH",
"460 258 OFFCURVE",
"492 232 OFFCURVE",
"492 183 CURVE SMOOTH",
"492 121 OFFCURVE",
"438 62 OFFCURVE",
"331 67 CURVE SMOOTH",
"233 72 OFFCURVE",
"152 115 OFFCURVE",
"119 227 CURVE",
"39 187 LINE",
"82 63 OFFCURVE"
);
}
);
width = 639;
},
{
anchors = (
{
name = bottom;
position = "{262, 0}";
},
{
name = ogonek;
position = "{299, 0}";
},
{
name = top;
position = "{365, 660}";
}
);
guideLines = (
{
angle = 256.9483;
position = "{546, 196}";
},
{
angle = 256.9483;
position = "{81, 330}";
}
);
layerId = "F97236B5-7CBD-4FD1-81B0-6670342ADB4E";
paths = (
{
closed = 1;
nodes = (
"427 -8 OFFCURVE",
"535 52 OFFCURVE",
"535 170 CURVE SMOOTH",
"535 245 OFFCURVE",
"473 296 OFFCURVE",
"360 326 CURVE SMOOTH",
"286 346 LINE SMOOTH",
"190 372 OFFCURVE",
"141 426 OFFCURVE",
"141 500 CURVE SMOOTH",
"141 588 OFFCURVE",
"221 657 OFFCURVE",
"348 657 CURVE SMOOTH",
"463 657 OFFCURVE",
"544 610 OFFCURVE",
"572 506 CURVE",
"587 511 LINE",
"560 619 OFFCURVE",
"469 671 OFFCURVE",
"349 671 CURVE SMOOTH",
"208 671 OFFCURVE",
"125 596 OFFCURVE",
"125 499 CURVE SMOOTH",
"125 416 OFFCURVE",
"181 358 OFFCURVE",
"281 331 CURVE SMOOTH",
"359 310 LINE SMOOTH",
"461 283 OFFCURVE",
"519 237 OFFCURVE",
"519 168 CURVE SMOOTH",
"519 61 OFFCURVE",
"414 6 OFFCURVE",
"301 6 CURVE SMOOTH",
"169 6 OFFCURVE",
"63 82 OFFCURVE",
"51 190 CURVE",
"35 185 LINE",
"52 70 OFFCURVE",
"158 -8 OFFCURVE",
"301 -8 CURVE SMOOTH"
);
}
);
width = 596;
},
{
anchors = (
{
name = bottom;
position = "{311, 0}";
},
{
name = bottomC;
position = "{279, 0}";
},
{
name = ogonek;
position = "{393, 0}";
},
{
name = top;
position = "{290, 660}";
}
);
associatedMasterId = "F97236B5-7CBD-4FD1-81B0-6670342ADB4E";
layerId = "E7C46275-662C-45AB-A41F-ACA671E3F5BE";
name = "Sep 2 18, 17:31";
paths = (
{
closed = 1;
nodes = (
"147 670 OFFCURVE",
"60 586 OFFCURVE",
"60 492 CURVE SMOOTH",
"60 395 OFFCURVE",
"121 347 OFFCURVE",
"313 315 CURVE SMOOTH",
"475 288 OFFCURVE",
"532 242 OFFCURVE",
"532 160 CURVE SMOOTH",
"532 60 OFFCURVE",
"433 4 OFFCURVE",
"309 4 CURVE SMOOTH",
"179 4 OFFCURVE",
"75 57 OFFCURVE",
"57 174 CURVE",
"42 166 LINE",
"64 45 OFFCURVE",
"171 -10 OFFCURVE",
"309 -10 CURVE SMOOTH",
"450 -10 OFFCURVE",
"548 60 OFFCURVE",
"548 160 CURVE SMOOTH",
"548 254 OFFCURVE",
"486 302 OFFCURVE",
"316 331 CURVE SMOOTH",
"131 363 OFFCURVE",
"76 407 OFFCURVE",
"76 492 CURVE SMOOTH",
"76 584 OFFCURVE",
"161 656 OFFCURVE",
"295 656 CURVE SMOOTH",
"415 656 OFFCURVE",
"496 610 OFFCURVE",
"523 507 CURVE",
"536 517 LINE",
"505 623 OFFCURVE",
"420 670 OFFCURVE",
"295 670 CURVE SMOOTH"
);
}
);
width = 594;
}
);
leftKerningGroup = S;
rightKerningGroup = S;
unicode = 0053;
},
{
glyphname = Germandbls;
layers = (
{
anchors = (
{
name = bottom;
position = "{302, 0}";
},
{
name = ogonek;
position = "{447, 0}";
},
{
name = top;
position = "{455, 660}";
}
);
layerId = "DBFAC7D3-9CB2-48DD-9F53-AD59A4BD1301";
paths = (
{
closed = 1;
nodes = (
"520 -5 OFFCURVE",
"610 74 OFFCURVE",
"610 199 CURVE SMOOTH",
"610 305 OFFCURVE",
"541 367 OFFCURVE",
"448 367 CURVE SMOOTH",
"431 367 LINE",
"678 585 LINE",
"696 660 LINE",
"388 660 LINE SMOOTH",
"244 660 OFFCURVE",
"169 581 OFFCURVE",
"143 469 CURVE SMOOTH",
"35 0 LINE",
"115 0 LINE",
"219 450 LINE SMOOTH",
"238 533 OFFCURVE",
"276 585 OFFCURVE",
"371 585 CURVE SMOOTH",
"574 585 LINE",
"342 375 LINE",
"325 303 LINE",
"412 303 LINE SMOOTH",
"490 303 OFFCURVE",
"529 267 OFFCURVE",
"529 194 CURVE SMOOTH",
"529 113 OFFCURVE",
"473 67 OFFCURVE",
"407 67 CURVE SMOOTH",
"349 67 OFFCURVE",
"305 90 OFFCURVE",
"280 123 CURVE",
"239 57 LINE",
"272 22 OFFCURVE",
"334 -5 OFFCURVE",
"399 -5 CURVE SMOOTH"
);
}
);
width = 646;
},
{
anchors = (
{
name = bottom;
position = "{304, 0}";
},
{
name = ogonek;
position = "{535, 2}";
},
{
name = top;
position = "{457, 660}";
}
);
layerId = "EA77C764-8343-414A-A941-E69667BA8F3A";
paths = (
{
closed = 1;
nodes = (
"607 -5 OFFCURVE",
"705 68 OFFCURVE",
"705 205 CURVE SMOOTH",
"705 298 OFFCURVE",
"639 350 OFFCURVE",
"571 351 CURVE",
"571 351 LINE",
"760 514 LINE",
"794 660 LINE",
"411 660 LINE SMOOTH",
"250 660 OFFCURVE",
"109 565 OFFCURVE",
"69 390 CURVE SMOOTH",
"-21 0 LINE",
"212 0 LINE",
"298 378 LINE SMOOTH",
"315 454 OFFCURVE",
"369 494 OFFCURVE",
"432 494 CURVE SMOOTH",
"531 494 LINE",
"367 355 LINE",
"341 242 LINE",
"422 242 LINE SMOOTH",
"469 242 OFFCURVE",
"489 231 OFFCURVE",
"489 205 CURVE SMOOTH",
"489 167 OFFCURVE",
"458 151 OFFCURVE",
"420 151 CURVE SMOOTH",
"399 151 OFFCURVE",
"359 159 OFFCURVE",
"333 175 CURVE",
"262 50 LINE",
"320 14 OFFCURVE",
"377 -5 OFFCURVE",
"467 -5 CURVE SMOOTH"
);
}
);
width = 738;
},
{
anchors = (
{
name = bottom;
position = "{302, 0}";
},
{
name = ogonek;
position = "{409, 0}";
},
{
name = top;
position = "{455, 660}";
}
);
associatedMasterId = "DBFAC7D3-9CB2-48DD-9F53-AD59A4BD1301";
background = {
paths = (
{
closed = 1;
nodes = (
"552 -15 OFFCURVE",
"642 54 OFFCURVE",
"649 169 CURVE SMOOTH",
"656 287 OFFCURVE",
"578 361 OFFCURVE",
"457 366 CURVE SMOOTH",
"434 367 LINE",
"630 570 LINE",
"635 646 LINE",
"357 662 LINE SMOOTH",
"230 669 OFFCURVE",
"130 589 OFFCURVE",
"122 459 CURVE SMOOTH",
"96 17 LINE",
"176 12 LINE",
"202 453 LINE SMOOTH",
"207 536 OFFCURVE",
"276 593 OFFCURVE",
"353 588 CURVE SMOOTH",
"535 576 LINE",
"349 372 LINE",
"345 304 LINE",
"421 300 LINE SMOOTH",
"517 295 OFFCURVE",
"569 246 OFFCURVE",
"565 174 CURVE SMOOTH",
"561 105 OFFCURVE",
"507 61 OFFCURVE",
"429 65 CURVE SMOOTH",
"376 68 OFFCURVE",
"327 91 OFFCURVE",
"303 123 CURVE",
"266 66 LINE",
"288 29 OFFCURVE",
"350 -3 OFFCURVE",
"433 -8 CURVE SMOOTH"
);
}
);
};
color = 5;
layerId = "A2EBB1B2-81D1-4015-9743-A6682D1F7779";
name = "Oct 2 18, 11:12";
paths = (
{
closed = 1;
nodes = (
"388 660 LINE SMOOTH",
"244 660 OFFCURVE",
"169 581 OFFCURVE",
"143 469 CURVE SMOOTH",
"35 0 LINE",
"115 0 LINE",
"219 450 LINE SMOOTH",
"238 533 OFFCURVE",
"276 585 OFFCURVE",
"371 585 CURVE SMOOTH",
"571 585 LINE",
"561 609 LINE",
"315 346 LINE",
"349 404 LINE",
"325 303 LINE",
"412 303 LINE SMOOTH",
"490 303 OFFCURVE",
"529 267 OFFCURVE",
"529 194 CURVE SMOOTH",
"529 113 OFFCURVE",
"473 67 OFFCURVE",
"407 67 CURVE SMOOTH",
"349 67 OFFCURVE",
"305 90 OFFCURVE",
"280 123 CURVE",
"239 57 LINE",
"272 22 OFFCURVE",
"334 -5 OFFCURVE",
"399 -5 CURVE SMOOTH",
"520 -5 OFFCURVE",
"610 74 OFFCURVE",
"610 199 CURVE SMOOTH",
"610 305 OFFCURVE",
"541 367 OFFCURVE",
"448 367 CURVE SMOOTH",
"403 367 LINE",
"409 348 LINE",
"653 607 LINE",
"620 551 LINE",
"646 660 LINE"
);
}
);
width = 646;
},
{
anchors = (
{
name = bottom;
position = "{271, 0}";
},
{
name = ogonek;
position = "{422, 0}";
},
{
name = top;
position = "{409, 660}";
}
);
guideLines = (
{
angle = 46.1853;
position = "{624, 652}";
},
{
angle = 76.6331;
position = "{355, 354}";
},
{
angle = 180;
position = "{339, 303}";
},
{
angle = 77.0322;
position = "{575, 235}";
}
);
layerId = "F97236B5-7CBD-4FD1-81B0-6670342ADB4E";
paths = (
{
closed = 1;
nodes = (
"500 -5 OFFCURVE",
"578 76 OFFCURVE",
"578 186 CURVE SMOOTH",
"578 302 OFFCURVE",
"505 354 OFFCURVE",
"385 354 CURVE SMOOTH",
"347 354 LINE",
"653 645 LINE",
"656 660 LINE",
"362 660 LINE SMOOTH",
"225 660 OFFCURVE",
"162 581 OFFCURVE",
"136 469 CURVE SMOOTH",
"28 0 LINE",
"44 0 LINE",
"151 463 LINE SMOOTH",
"176 570 OFFCURVE",
"233 646 OFFCURVE",
"361 646 CURVE SMOOTH",
"632 646 LINE",
"325 353 LINE",
"322 340 LINE",
"383 340 LINE SMOOTH",
"496 340 OFFCURVE",
"562 293 OFFCURVE",
"562 186 CURVE SMOOTH",
"562 86 OFFCURVE",
"489 9 OFFCURVE",
"370 9 CURVE SMOOTH",
"312 9 OFFCURVE",
"260 33 OFFCURVE",
"232 73 CURVE",
"220 62 LINE",
"250 20 OFFCURVE",
"305 -5 OFFCURVE",
"370 -5 CURVE SMOOTH"
);
}
);
width = 626;
}
);
leftKerningGroup = Germandbls;
rightKerningGroup = Germandbls;
unicode = 1E9E;
},
{
glyphname = Schwa;
layers = (
{
anchors = (
{
name = bottom;
position = "{304, 0}";
},
{
name = top;
position = "{457, 660}";
}
);
layerId = "DBFAC7D3-9CB2-48DD-9F53-AD59A4BD1301";
paths = (
{
closed = 1;
nodes = (
"567 -10 OFFCURVE",
"679 184 OFFCURVE",
"674 393 CURVE SMOOTH",
"671 570 OFFCURVE",
"553 670 OFFCURVE",
"410 670 CURVE SMOOTH",
"288 670 OFFCURVE",
"189 625 OFFCURVE",
"133 523 CURVE",
"202 483 LINE",
"243 563 OFFCURVE",
"315 594 OFFCURVE",
"400 594 CURVE SMOOTH",
"518 594 OFFCURVE",
"590 513 OFFCURVE",
"590 375 CURVE SMOOTH",
"590 368 OFFCURVE",
"590 362 OFFCURVE",
"590 355 CURVE",
"96 355 LINE",
"89 322 OFFCURVE",
"85 290 OFFCURVE",
"85 260 CURVE SMOOTH",
"85 106 OFFCURVE",
"176 -10 OFFCURVE",
"341 -10 CURVE SMOOTH"
);
},
{
closed = 1;
nodes = (
"226 66 OFFCURVE",
"165 152 OFFCURVE",
"169 275 CURVE",
"580 275 LINE",
"554 160 OFFCURVE",
"482 66 OFFCURVE",
"351 66 CURVE SMOOTH"
);
}
);
width = 723;
},
{
anchors = (
{
name = bottom;
position = "{299, 0}";
},
{
name = top;
position = "{452, 660}";
}
);
layerId = "EA77C764-8343-414A-A941-E69667BA8F3A";
paths = (
{
closed = 1;
nodes = (
"571 -10 OFFCURVE",
"706 148 OFFCURVE",
"706 377 CURVE SMOOTH",
"706 562 OFFCURVE",
"575 670 OFFCURVE",
"393 670 CURVE SMOOTH",
"225 670 OFFCURVE",
"118 598 OFFCURVE",
"69 476 CURVE",
"278 411 LINE",
"299 466 OFFCURVE",
"330 495 OFFCURVE",
"385 495 CURVE SMOOTH",
"438 495 OFFCURVE",
"476 463 OFFCURVE",
"476 392 CURVE SMOOTH",
"476 381 OFFCURVE",
"476 370 OFFCURVE",
"475 359 CURVE",
"54 359 LINE",
"47 335 OFFCURVE",
"46 312 OFFCURVE",
"46 278 CURVE SMOOTH",
"46 98 OFFCURVE",
"167 -10 OFFCURVE",
"348 -10 CURVE SMOOTH"
);
},
{
closed = 1;
nodes = (
"294 167 OFFCURVE",
"270 192 OFFCURVE",
"267 244 CURVE",
"453 244 LINE",
"435 199 OFFCURVE",
"403 167 OFFCURVE",
"349 167 CURVE SMOOTH"
);
}
);
width = 713;
},
{
anchors = (
{
name = bottom;
position = "{286, 0}";
},
{
name = top;
position = "{439, 660}";
}
);
guideLines = (
{
position = "{628, 310}";
},
{
position = "{363, 324}";
},
{
angle = 149.8987;
position = "{189, 503}";
}
);
layerId = "F97236B5-7CBD-4FD1-81B0-6670342ADB4E";
paths = (
{
closed = 1;
nodes = (
"542 -10 OFFCURVE",
"650 173 OFFCURVE",
"650 383 CURVE SMOOTH",
"650 569 OFFCURVE",
"536 670 OFFCURVE",
"384 670 CURVE SMOOTH",
"256 670 OFFCURVE",
"155 605 OFFCURVE",
"111 515 CURVE",
"124 506 LINE",
"169 595 OFFCURVE",
"263 656 OFFCURVE",
"383 656 CURVE SMOOTH",
"526 656 OFFCURVE",
"634 561 OFFCURVE",
"634 380 CURVE SMOOTH",
"634 361 OFFCURVE",
"633 342 OFFCURVE",
"631 324 CURVE",
"67 324 LINE",
"65 306 OFFCURVE",
"64 287 OFFCURVE",
"64 270 CURVE SMOOTH",
"64 112 OFFCURVE",
"154 -10 OFFCURVE",
"319 -10 CURVE SMOOTH"
);
},
{
closed = 1;
nodes = (
"158 4 OFFCURVE",
"67 130 OFFCURVE",
"82 310 CURVE",
"630 310 LINE",
"608 141 OFFCURVE",
"505 4 OFFCURVE",
"320 4 CURVE SMOOTH"
);
}
);
width = 688;
},
{
associatedMasterId = "F97236B5-7CBD-4FD1-81B0-6670342ADB4E";
background = {
paths = (
{
closed = 1;
nodes = (
"512 -10 OFFCURVE",
"617 121 OFFCURVE",
"617 330 CURVE SMOOTH",
"617 539 OFFCURVE",
"508 670 OFFCURVE",
"335 670 CURVE SMOOTH",
"198 670 OFFCURVE",
"93 599 OFFCURVE",
"59 475 CURVE",
"73 470 LINE",
"106 588 OFFCURVE",
"205 656 OFFCURVE",
"335 656 CURVE SMOOTH",
"498 656 OFFCURVE",
"601 530 OFFCURVE",
"601 330 CURVE SMOOTH",
"601 130 OFFCURVE",
"502 4 OFFCURVE",
"332 4 CURVE SMOOTH",
"202 4 OFFCURVE",
"67 97 OFFCURVE",
"67 296 CURVE SMOOTH",
"67 304 OFFCURVE",
"67 309 OFFCURVE",
"68 318 CURVE",
"60 310 LINE",
"605 310 LINE",
"605 324 LINE",
"52 324 LINE",
"51 314 OFFCURVE",
"51 304 OFFCURVE",
"51 294 CURVE SMOOTH",
"51 122 OFFCURVE",
"158 -10 OFFCURVE",
"332 -10 CURVE SMOOTH"
);
}
);
};
layerId = "3BCE766C-3561-45E6-99DF-437201A5BA25";
name = "Aug 15 18, 20:38";
paths = (
{
closed = 1;
nodes = (
"627 535 OFFCURVE",
"514 663 OFFCURVE",
"334 663 CURVE SMOOTH",
"154 663 OFFCURVE",
"41 535 OFFCURVE",
"41 330 CURVE SMOOTH",
"41 126 OFFCURVE",
"154 -3 OFFCURVE",
"334 -3 CURVE SMOOTH",
"514 -3 OFFCURVE",
"627 126 OFFCURVE",
"627 330 CURVE SMOOTH"
);
}
);
width = 668;
},
{
associatedMasterId = "F97236B5-7CBD-4FD1-81B0-6670342ADB4E";
background = {
paths = (
{
closed = 1;
nodes = (
"507 -10 OFFCURVE",
"617 122 OFFCURVE",
"617 330 CURVE SMOOTH",
"617 538 OFFCURVE",
"508 670 OFFCURVE",
"334 670 CURVE SMOOTH",
"201 670 OFFCURVE",
"101 599 OFFCURVE",
"58 475 CURVE",
"73 470 LINE",
"114 587 OFFCURVE",
"206 656 OFFCURVE",
"334 656 CURVE SMOOTH",
"498 656 OFFCURVE",
"601 531 OFFCURVE",
"601 330 CURVE SMOOTH",
"601 130 OFFCURVE",
"498 4 OFFCURVE",
"334 4 CURVE SMOOTH",
"171 4 OFFCURVE",
"65 124 OFFCURVE",
"67 325 CURVE",
"59 318 LINE",
"601 318 LINE",
"601 332 LINE",
"51 332 LINE",
"46 123 OFFCURVE",
"156 -10 OFFCURVE",
"334 -10 CURVE SMOOTH"
);
}
);
};
layerId = "25D4FCF4-BAB9-4D97-9DBE-A3169A9683B0";
name = "Aug 15 18, 20:40";
paths = (
{
closed = 1;
nodes = (
"512 -10 OFFCURVE",
"617 121 OFFCURVE",
"617 330 CURVE SMOOTH",
"617 539 OFFCURVE",
"508 670 OFFCURVE",
"335 670 CURVE SMOOTH",
"198 670 OFFCURVE",
"93 599 OFFCURVE",
"59 475 CURVE",
"73 470 LINE",
"106 588 OFFCURVE",
"205 656 OFFCURVE",
"335 656 CURVE SMOOTH",
"498 656 OFFCURVE",
"601 530 OFFCURVE",
"601 330 CURVE SMOOTH",
"601 130 OFFCURVE",
"502 4 OFFCURVE",
"332 4 CURVE SMOOTH",
"202 4 OFFCURVE",
"67 97 OFFCURVE",
"67 296 CURVE SMOOTH",
"67 304 OFFCURVE",
"67 309 OFFCURVE",
"68 318 CURVE",
"60 310 LINE",
"605 310 LINE",
"605 324 LINE",
"52 324 LINE",
"51 314 OFFCURVE",
"51 304 OFFCURVE",
"51 294 CURVE SMOOTH",
"51 122 OFFCURVE",
"158 -10 OFFCURVE",
"332 -10 CURVE SMOOTH"
);
}
);
width = 673;
}
);
leftKerningGroup = O;
rightKerningGroup = O;
rightMetricsKey = O;
unicode = 018F;
},
{
glyphname = T;
layers = (
{
anchors = (
{
name = bottom;
position = "{240, 0}";
},
{
name = center;
position = "{315, 322}";
},
{
name = ogonek;
position = "{280, 0}";
},
{
name = top;
position = "{391, 660}";
}
);
annotations = (
{
position = "{382, 462}";
text = "if the vertical stem is in middle the right bar looks longer than left";
type = Text;
}
);
layerId = "DBFAC7D3-9CB2-48DD-9F53-AD59A4BD1301";
paths = (
{
closed = 1;
nodes = (
"126 660 LINE",
"108 585 LINE",
"335 585 LINE",
"200 0 LINE",
"280 0 LINE",
"415 585 LINE",
"638 585 LINE",
"656 660 LINE"
);
}
);
width = 592;
},
{
anchors = (
{
name = bottom;
position = "{238, 0}";
},
{
name = bottomC;
position = "{267, 0}";
},
{
name = center;
position = "{313, 322}";
},
{
name = ogonek;
position = "{278, 0}";
},
{
name = top;
position = "{391, 660}";
}
);
associatedMasterId = "DBFAC7D3-9CB2-48DD-9F53-AD59A4BD1301";
background = {
paths = (
{
closed = 1;
nodes = (
"126 660 LINE",
"108 585 LINE",
"333 585 LINE",
"198 0 LINE",
"278 0 LINE",
"413 585 LINE",
"638 585 LINE",
"656 660 LINE"
);
}
);
};
color = 5;
layerId = "E4538E1F-4E4E-4D9C-AA24-FE53ED83C8A3";
name = "Sep 2 18, 15:24";
paths = (
{
closed = 1;
nodes = (
"126 660 LINE",
"108 585 LINE",
"333 585 LINE",
"198 0 LINE",
"278 0 LINE",
"413 585 LINE",
"638 585 LINE",
"656 660 LINE"
);
}
);
width = 592;
},
{
anchors = (
{
name = bottom;
position = "{285, 0}";
},
{
name = center;
position = "{352, 289}";
},
{
name = ogonek;
position = "{402, 0}";
},
{
name = top;
position = "{438, 660}";
}
);
layerId = "EA77C764-8343-414A-A941-E69667BA8F3A";
paths = (
{
closed = 1;
nodes = (
"115 660 LINE",
"75 489 LINE",
"282 489 LINE",
"169 0 LINE",
"402 0 LINE",
"515 489 LINE",
"721 489 LINE",
"761 660 LINE"
);
}
);
width = 686;
},
{
anchors = (
{
name = bottom;
position = "{210, 0}";
},
{
name = center;
position = "{289, 341}";
},
{
name = ogonek;
position = "{218, 0}";
},
{
name = top;
position = "{363, 660}";
}
);
layerId = "F97236B5-7CBD-4FD1-81B0-6670342ADB4E";
paths = (
{
closed = 1;
nodes = (
"106 660 LINE",
"102 646 LINE",
"351 646 LINE",
"202 0 LINE",
"218 0 LINE",
"367 646 LINE",
"614 646 LINE",
"618 660 LINE"
);
}
);
width = 534;
}
);
leftKerningGroup = T;
rightKerningGroup = T;
unicode = 0054;
},
{
glyphname = Tcedilla;
layers = (
{
components = (
{
name = T;
}
);
layerId = "DBFAC7D3-9CB2-48DD-9F53-AD59A4BD1301";
paths = (
{
closed = 1;
nodes = (
"272 -215 OFFCURVE",
"335 -173 OFFCURVE",
"335 -90 CURVE SMOOTH",
"335 -34 OFFCURVE",
"302 4 OFFCURVE",
"244 29 CURVE",
"200 0 LINE",
"247 -19 OFFCURVE",
"273 -44 OFFCURVE",
"273 -87 CURVE SMOOTH",
"273 -125 OFFCURVE",
"247 -152 OFFCURVE",
"208 -152 CURVE SMOOTH",
"180 -152 OFFCURVE",
"153 -142 OFFCURVE",
"135 -121 CURVE",
"103 -171 LINE",
"119 -193 OFFCURVE",
"158 -215 OFFCURVE",
"205 -215 CURVE SMOOTH"
);
}
);
width = 592;
},
{
components = (
{
name = T;
}
);
layerId = "EA77C764-8343-414A-A941-E69667BA8F3A";
leftMetricsKey = "=T";
rightMetricsKey = "=T";
paths = (
{
closed = 1;
nodes = (
"340 -218 OFFCURVE",
"401 -163 OFFCURVE",
"401 -81 CURVE SMOOTH",
"401 -20 OFFCURVE",
"353 21 OFFCURVE",
"269 29 CURVE",
"223 6 LINE",
"269 -8 OFFCURVE",
"291 -31 OFFCURVE",
"291 -55 CURVE SMOOTH",
"291 -82 OFFCURVE",
"268 -107 OFFCURVE",
"237 -107 CURVE SMOOTH",
"222 -107 OFFCURVE",
"196 -101 OFFCURVE",
"181 -89 CURVE",
"129 -178 LINE",
"160 -205 OFFCURVE",
"198 -218 OFFCURVE",
"251 -218 CURVE SMOOTH"
);
}
);
width = 686;
},
{
components = (
{
name = T;
}
);
layerId = "F97236B5-7CBD-4FD1-81B0-6670342ADB4E";
paths = (
{
closed = 1;
nodes = (
"227 -201 OFFCURVE",
"270 -162 OFFCURVE",
"270 -98 CURVE SMOOTH",
"270 -56 OFFCURVE",
"247 -22 OFFCURVE",
"214 3 CURVE",
"202 0 LINE",
"235 -26 OFFCURVE",
"255 -60 OFFCURVE",
"255 -99 CURVE SMOOTH",
"255 -154 OFFCURVE",
"218 -188 OFFCURVE",
"168 -188 CURVE SMOOTH",
"125 -188 OFFCURVE",
"105 -168 OFFCURVE",
"93 -144 CURVE",
"83 -155 LINE",
"95 -179 OFFCURVE",
"118 -201 OFFCURVE",
"168 -201 CURVE SMOOTH"
);
}
);
width = 534;
}
);
leftKerningGroup = T;
leftMetricsKey = T;
rightKerningGroup = T;
rightMetricsKey = T;
unicode = 0162;
},
{
glyphname = U;
layers = (
{
anchors = (
{
name = bottom;
position = "{311, 0}";
},
{
name = ogonek;
position = "{400, 2}";
},
{
name = top;
position = "{430, 640}";
},
{
name = top_ring;
position = "{413, 608}";
},
{
name = topright;
position = "{704, 660}";
}
);
layerId = "DBFAC7D3-9CB2-48DD-9F53-AD59A4BD1301";
paths = (
{
closed = 1;
nodes = (
"471 -10 OFFCURVE",
"563 84 OFFCURVE",
"596 226 CURVE SMOOTH",
"696 660 LINE",
"616 660 LINE",
"521 249 LINE SMOOTH",
"495 137 OFFCURVE",
"436 65 OFFCURVE",
"330 65 CURVE SMOOTH",
"216 65 OFFCURVE",
"147 133 OFFCURVE",
"177 267 CURVE SMOOTH",
"267 660 LINE",
"187 660 LINE",
"99 286 LINE SMOOTH",
"56 100 OFFCURVE",
"150 -10 OFFCURVE",
"325 -10 CURVE SMOOTH"
);
}
);
width = 693;
},
{
anchors = (
{
name = bottom;
position = "{302, 0}";
},
{
name = ogonek;
position = "{447, -1}";
},
{
name = top;
position = "{451, 660}";
},
{
name = top_ring;
position = "{449, 653}";
},
{
name = topright;
position = "{770, 660}";
}
);
layerId = "EA77C764-8343-414A-A941-E69667BA8F3A";
paths = (
{
closed = 1;
nodes = (
"532 -10 OFFCURVE",
"633 75 OFFCURVE",
"678 266 CURVE SMOOTH",
"770 660 LINE",
"537 660 LINE",
"444 259 LINE SMOOTH",
"429 192 OFFCURVE",
"404 165 OFFCURVE",
"353 165 CURVE SMOOTH",
"293 165 OFFCURVE",
"262 204 OFFCURVE",
"277 270 CURVE SMOOTH",
"366 660 LINE",
"132 660 LINE",
"47 297 LINE SMOOTH",
"3 106 OFFCURVE",
"118 -10 OFFCURVE",
"332 -10 CURVE SMOOTH"
);
}
);
width = 711;
},
{
anchors = (
{
name = bottom;
position = "{306, 0}";
},
{
name = ogonek;
position = "{403, 2}";
},
{
name = top;
position = "{430, 640}";
},
{
name = top_ring;
position = "{413, 608}";
}
);
associatedMasterId = "DBFAC7D3-9CB2-48DD-9F53-AD59A4BD1301";
color = 6;
layerId = "821C8BD2-7F7C-4D66-871D-485775EA3075";
name = "Sep 30 18, 15:21";
paths = (
{
closed = 1;
nodes = (
"616 660 LINE",
"521 249 LINE SMOOTH",
"495 137 OFFCURVE",
"434 65 OFFCURVE",
"327 65 CURVE SMOOTH",
"214 65 OFFCURVE",
"147 135 OFFCURVE",
"175 257 CURVE SMOOTH",
"267 660 LINE",
"187 660 LINE",
"97 277 LINE SMOOTH",
"56 102 OFFCURVE",
"149 -10 OFFCURVE",
"323 -10 CURVE SMOOTH",
"470 -10 OFFCURVE",
"563 82 OFFCURVE",
"596 226 CURVE SMOOTH",
"696 660 LINE"
);
}
);
width = 693;
},
{
anchors = (
{
name = bottom;
position = "{249, 0}";
},
{
name = ogonek;
position = "{339, -8}";
},
{
name = top;
position = "{420, 620}";
},
{
name = top_ring;
position = "{415, 598}";
},
{
name = topright;
position = "{690, 660}";
}
);
layerId = "F97236B5-7CBD-4FD1-81B0-6670342ADB4E";
paths = (
{
closed = 1;
nodes = (
"453 -10 OFFCURVE",
"535 84 OFFCURVE",
"572 245 CURVE SMOOTH",
"668 660 LINE",
"652 660 LINE",
"557 250 LINE SMOOTH",
"520 92 OFFCURVE",
"442 4 OFFCURVE",
"307 4 CURVE SMOOTH",
"150 4 OFFCURVE",
"64 102 OFFCURVE",
"104 271 CURVE SMOOTH",
"195 660 LINE",
"179 660 LINE",
"89 276 LINE SMOOTH",
"48 100 OFFCURVE",
"132 -10 OFFCURVE",
"307 -10 CURVE SMOOTH"
);
}
);
width = 656;
}
);
leftKerningGroup = U;
rightKerningGroup = U;
rightMetricsKey = "=|";
unicode = 0055;
},
{
glyphname = V;
layers = (
{
anchors = (
{
name = bottom;
position = "{256, 0}";
},
{
name = ogonek;
position = "{302, 0}";
},
{
name = top;
position = "{409, 660}";
}
);
guideLines = (
{
angle = 180;
position = "{286, 202}";
}
);
layerId = "DBFAC7D3-9CB2-48DD-9F53-AD59A4BD1301";
paths = (
{
closed = 1;
nodes = (
"612 660 LINE",
"335 203 LINE",
"269 73 LINE",
"257 204 LINE",
"199 660 LINE",
"118 660 LINE",
"209 0 LINE",
"300 0 LINE",
"700 660 LINE"
);
}
);
width = 628;
},
{
anchors = (
{
name = bottom;
position = "{289, 0}";
},
{
name = ogonek;
position = "{427, 0}";
},
{
name = top;
position = "{428, 660}";
}
);
layerId = "EA77C764-8343-414A-A941-E69667BA8F3A";
paths = (
{
closed = 1;
nodes = (
"558 660 LINE",
"378 304 LINE",
"322 176 LINE",
"320 305 LINE",
"309 660 LINE",
"90 660 LINE",
"150 0 LINE",
"427 0 LINE",
"793 660 LINE"
);
}
);
width = 687;
},
{
anchors = (
{
name = bottom;
position = "{225, 0}";
},
{
name = ogonek;
position = "{237, 0}";
},
{
name = top;
position = "{378, 660}";
}
);
layerId = "F97236B5-7CBD-4FD1-81B0-6670342ADB4E";
paths = (
{
closed = 1;
nodes = (
"624 660 LINE",
"269 84 LINE",
"229 18 LINE",
"218 89 LINE",
"128 660 LINE",
"112 660 LINE",
"215 0 LINE",
"237 0 LINE",
"643 660 LINE"
);
}
);
width = 565;
}
);
unicode = 0056;
},
{
glyphname = W;
layers = (
{
anchors = (
{
name = bottom;
position = "{421, 0}";
},
{
name = ogonek;
position = "{658, 0}";
},
{
name = top;
position = "{558, 660}";
}
);
guideLines = (
{
angle = 180;
position = "{296, 202}";
}
);
layerId = "DBFAC7D3-9CB2-48DD-9F53-AD59A4BD1301";
paths = (
{
closed = 1;
nodes = (
"263 0 LINE",
"471 428 LINE",
"537 577 LINE",
"538 577 LINE",
"539 428 LINE",
"557 0 LINE",
"658 0 LINE",
"1001 660 LINE",
"915 660 LINE",
"623 78 LINE",
"605 660 LINE",
"507 660 LINE",
"232 83 LINE",
"205 660 LINE",
"128 660 LINE",
"166 0 LINE"
);
}
);
width = 939;
},
{
anchors = (
{
name = bottom;
position = "{447, 0}";
},
{
name = ogonek;
position = "{782, 0}";
},
{
name = top;
position = "{594, 660}";
}
);
layerId = "EA77C764-8343-414A-A941-E69667BA8F3A";
paths = (
{
closed = 1;
nodes = (
"374 0 LINE",
"476 248 LINE",
"546 425 LINE",
"549 425 LINE",
"534 248 LINE",
"530 0 LINE",
"782 0 LINE",
"1123 660 LINE",
"867 660 LINE",
"691 187 LINE",
"690 660 LINE",
"490 660 LINE",
"300 187 LINE",
"317 660 LINE",
"87 660 LINE",
"121 0 LINE"
);
}
);
width = 1021;
},
{
anchors = (
{
name = bottom;
position = "{388, 0}";
},
{
name = ogonek;
position = "{597, 0}";
},
{
name = top;
position = "{541, 660}";
}
);
layerId = "F97236B5-7CBD-4FD1-81B0-6670342ADB4E";
paths = (
{
closed = 1;
nodes = (
"199 0 LINE",
"464 502 LINE",
"535 641 LINE",
"536 641 LINE",
"544 514 LINE",
"575 0 LINE",
"597 0 LINE",
"964 660 LINE",
"946 660 LINE",
"589 18 LINE",
"551 660 LINE",
"528 660 LINE",
"193 19 LINE",
"134 660 LINE",
"118 660 LINE",
"179 0 LINE"
);
}
);
width = 892;
}
);
leftKerningGroup = W;
rightKerningGroup = W;
unicode = 0057;
},
{
glyphname = X;
layers = (
{
anchors = (
{
name = bottom;
position = "{237, 0}";
},
{
name = ogonek;
position = "{502, 0}";
},
{
name = top;
position = "{390, 660}";
}
);
layerId = "DBFAC7D3-9CB2-48DD-9F53-AD59A4BD1301";
paths = (
{
closed = 1;
nodes = (
"63 0 LINE",
"304 277 LINE",
"417 0 LINE",
"501 0 LINE",
"363 336 LINE",
"645 660 LINE",
"552 660 LINE",
"332 405 LINE",
"231 660 LINE",
"143 660 LINE",
"272 347 LINE",
"-34 0 LINE"
);
}
);
width = 588;
},
{
anchors = (
{
name = bottom;
position = "{284, 0}";
},
{
name = ogonek;
position = "{654, 0}";
},
{
name = top;
position = "{437, 660}";
}
);
guideLines = (
{
angle = 90;
position = "{689, 439}";
},
{
angle = 90;
position = "{5, 379}";
}
);
layerId = "EA77C764-8343-414A-A941-E69667BA8F3A";
paths = (
{
closed = 1;
nodes = (
"218 0 LINE",
"341 158 LINE",
"400 0 LINE",
"654 0 LINE",
"493 332 LINE",
"788 660 LINE",
"527 660 LINE",
"411 503 LINE",
"353 660 LINE",
"100 660 LINE",
"246 341 LINE",
"-62 0 LINE"
);
}
);
width = 708;
},
{
anchors = (
{
name = bottom;
position = "{200, 0}";
},
{
name = ogonek;
position = "{440, 0}";
},
{
name = top;
position = "{353, 660}";
}
);
layerId = "F97236B5-7CBD-4FD1-81B0-6670342ADB4E";
paths = (
{
closed = 1;
nodes = (
"-20 0 LINE",
"280 327 LINE",
"424 0 LINE",
"441 0 LINE",
"292 337 LINE",
"583 660 LINE",
"562 660 LINE",
"284 351 LINE",
"147 660 LINE",
"131 660 LINE",
"273 341 LINE",
"-41 0 LINE"
);
}
);
width = 516;
}
);
unicode = 0058;
},
{
glyphname = Y;
layers = (
{
anchors = (
{
name = bottom;
position = "{223, 0}";
},
{
name = ogonek;
position = "{263, 0}";
},
{
name = top;
position = "{359, 640}";
}
);
layerId = "DBFAC7D3-9CB2-48DD-9F53-AD59A4BD1301";
paths = (
{
closed = 1;
nodes = (
"263 0 LINE",
"322 251 LINE",
"642 660 LINE",
"546 660 LINE",
"370 437 LINE",
"295 333 LINE",
"268 431 LINE",
"196 660 LINE",
"110 660 LINE",
"243 258 LINE",
"183 0 LINE"
);
}
);
width = 562;
},
{
anchors = (
{
name = bottom;
position = "{298, 0}";
},
{
name = ogonek;
position = "{415, 0}";
},
{
name = top;
position = "{433, 660}";
}
);
layerId = "EA77C764-8343-414A-A941-E69667BA8F3A";
paths = (
{
closed = 1;
nodes = (
"415 0 LINE",
"466 221 LINE",
"799 660 LINE",
"556 660 LINE",
"457 509 LINE",
"389 392 LINE",
"364 509 LINE",
"323 660 LINE",
"104 660 LINE",
"237 237 LINE",
"182 0 LINE"
);
}
);
width = 713;
},
{
anchors = (
{
name = bottom;
position = "{193, 0}";
},
{
name = ogonek;
position = "{201, 0}";
},
{
name = top;
position = "{336, 620}";
}
);
layerId = "F97236B5-7CBD-4FD1-81B0-6670342ADB4E";
paths = (
{
closed = 1;
nodes = (
"201 0 LINE",
"260 255 LINE",
"582 660 LINE",
"562 660 LINE",
"380 431 LINE",
"255 272 LINE",
"207 419 LINE",
"128 660 LINE",
"111 660 LINE",
"244 255 LINE",
"185 0 LINE"
);
}
);
width = 503;
}
);
leftKerningGroup = Y;
rightKerningGroup = Y;
unicode = 0059;
},
{
glyphname = Z;
layers = (
{
anchors = (
{
name = bottom;
position = "{286, 0}";
},
{
name = ogonek;
position = "{490, 0}";
},
{
name = top;
position = "{372, 660}";
}
);
layerId = "DBFAC7D3-9CB2-48DD-9F53-AD59A4BD1301";
paths = (
{
closed = 1;
nodes = (
"497 0 LINE",
"515 75 LINE",
"114 75 LINE",
"606 588 LINE",
"623 660 LINE",
"148 660 LINE",
"130 585 LINE",
"504 585 LINE",
"14 73 LINE",
"-3 0 LINE"
);
}
);
width = 591;
},
{
anchors = (
{
name = bottom;
position = "{284, 0}";
},
{
name = ogonek;
position = "{560, 0}";
},
{
name = top;
position = "{399, 660}";
}
);
layerId = "EA77C764-8343-414A-A941-E69667BA8F3A";
paths = (
{
closed = 1;
nodes = (
"570 0 LINE",
"609 166 LINE",
"267 166 LINE",
"667 491 LINE",
"706 660 LINE",
"116 660 LINE",
"77 494 LINE",
"414 494 LINE",
"13 169 LINE",
"-26 0 LINE"
);
}
);
width = 644;
},
{
anchors = (
{
name = bottom;
position = "{242, 0}";
},
{
name = ogonek;
position = "{460, 0}";
},
{
name = top;
position = "{354, 660}";
}
);
guideLines = (
{
angle = 76.8473;
position = "{460, 0}";
},
{
angle = 76.8473;
position = "{-29, 0}";
},
{
angle = 76.8473;
position = "{434, 0}";
}
);
layerId = "F97236B5-7CBD-4FD1-81B0-6670342ADB4E";
paths = (
{
closed = 1;
nodes = (
"460 0 LINE",
"464 14 LINE",
"-5 14 LINE",
"585 646 LINE",
"588 660 LINE",
"124 660 LINE",
"121 646 LINE",
"564 646 LINE",
"-26 14 LINE",
"-29 0 LINE"
);
}
);
width = 542;
}
);
leftKerningGroup = Z;
rightKerningGroup = Z;
unicode = 005A;
},
{
glyphname = R.ss03;
layers = (
{
anchors = (
{
name = bottom;
position = "{310, 0}";
},
{
name = ogonek;
position = "{523, 0}";
},
{
name = top;
position = "{395, 660}";
}
);
layerId = "DBFAC7D3-9CB2-48DD-9F53-AD59A4BD1301";
paths = (
{
closed = 1;
nodes = (
"127 0 LINE",
"191 277 LINE",
"354 277 LINE SMOOTH",
"422 277 OFFCURVE",
"475 249 OFFCURVE",
"454 140 CURVE SMOOTH",
"439 64 OFFCURVE",
"443 18 OFFCURVE",
"446 0 CURVE",
"524 0 LINE",
"524 3 LINE",
"521 22 OFFCURVE",
"511 45 OFFCURVE",
"533 163 CURVE SMOOTH",
"549 246 OFFCURVE",
"513 299 OFFCURVE",
"439 309 CURVE",
"439 309 LINE",
"550 327 OFFCURVE",
"612 400 OFFCURVE",
"609 497 CURVE SMOOTH",
"606 599 OFFCURVE",
"532 660 OFFCURVE",
"400 660 CURVE SMOOTH",
"200 660 LINE",
"47 0 LINE"
);
},
{
closed = 1;
nodes = (
"263 585 LINE",
"385 585 LINE SMOOTH",
"481 585 OFFCURVE",
"524 552 OFFCURVE",
"526 489 CURVE SMOOTH",
"528 412 OFFCURVE",
"477 352 OFFCURVE",
"369 352 CURVE SMOOTH",
"209 352 LINE"
);
}
);
width = 635;
},
{
anchors = (
{
name = bottom;
position = "{304, 0}";
},
{
name = ogonek;
position = "{634, 0}";
},
{
name = top;
position = "{429, 660}";
}
);
layerId = "EA77C764-8343-414A-A941-E69667BA8F3A";
paths = (
{
closed = 1;
nodes = (
"220 0 LINE",
"271 219 LINE",
"330 219 LINE SMOOTH",
"379 219 OFFCURVE",
"400 202 OFFCURVE",
"400 151 CURVE SMOOTH",
"400 86 OFFCURVE",
"387 45 OFFCURVE",
"393 0 CURVE",
"634 0 LINE",
"635 5 LINE",
"621 48 OFFCURVE",
"630 86 OFFCURVE",
"633 175 CURVE SMOOTH",
"635 228 OFFCURVE",
"618 269 OFFCURVE",
"557 287 CURVE",
"558 289 LINE",
"647 311 OFFCURVE",
"713 370 OFFCURVE",
"713 476 CURVE SMOOTH",
"713 594 OFFCURVE",
"631 660 OFFCURVE",
"490 660 CURVE SMOOTH",
"145 660 LINE",
"-8 0 LINE"
);
},
{
closed = 1;
nodes = (
"334 494 LINE",
"413 494 LINE SMOOTH",
"462 494 OFFCURVE",
"487 479 OFFCURVE",
"487 440 CURVE SMOOTH",
"487 395 OFFCURVE",
"453 372 OFFCURVE",
"405 372 CURVE SMOOTH",
"306 372 LINE"
);
}
);
width = 705;
},
{
anchors = (
{
name = bottom;
position = "{281, 0}";
},
{
name = ogonek;
position = "{487, 0}";
},
{
name = top;
position = "{374, 660}";
}
);
layerId = "F97236B5-7CBD-4FD1-81B0-6670342ADB4E";
paths = (
{
closed = 1;
nodes = (
"55 0 LINE",
"125 302 LINE",
"346 302 LINE SMOOTH",
"479 302 OFFCURVE",
"499 249 OFFCURVE",
"479 140 CURVE SMOOTH",
"462 45 OFFCURVE",
"464 15 OFFCURVE",
"471 0 CURVE",
"487 0 LINE",
"487 2 LINE",
"482 16 OFFCURVE",
"475 31 OFFCURVE",
"495 140 CURVE SMOOTH",
"516 252 OFFCURVE",
"478 304 OFFCURVE",
"405 308 CURVE",
"402 308 LINE",
"493 316 OFFCURVE",
"585 367 OFFCURVE",
"585 501 CURVE SMOOTH",
"585 618 OFFCURVE",
"497 660 OFFCURVE",
"396 660 CURVE SMOOTH",
"192 660 LINE",
"39 0 LINE"
);
},
{
closed = 1;
nodes = (
"204 646 LINE",
"392 646 LINE SMOOTH",
"488 646 OFFCURVE",
"569 612 OFFCURVE",
"569 501 CURVE SMOOTH",
"569 361 OFFCURVE",
"467 316 OFFCURVE",
"345 316 CURVE SMOOTH",
"128 316 LINE"
);
}
);
width = 594;
}
);
leftKerningGroup = I;
rightKerningGroup = R;
userData = {
com.typemytype.robofont.layerData = {
background = {
anchors = (
);
components = (
{
baseGlyph = R;
transformation = (
1,
0,
0,
1,
"-600",
0
);
}
);
contours = (
{
points = (
{
segmentType = line;
smooth = 0;
x = 114;
y = 300;
},
{
segmentType = line;
smooth = 1;
x = 356;
y = 300;
},
{
smooth = 0;
x = 464;
y = 300;
},
{
smooth = 0;
x = 515;
y = 245;
},
{
segmentType = curve;
smooth = 1;
x = 518;
y = 157;
},
{
smooth = 0;
x = 521;
y = 25;
},
{
smooth = 0;
x = 536;
y = 6;
},
{
segmentType = curve;
smooth = 0;
x = 542;
y = 0;
},
{
segmentType = line;
smooth = 0;
x = 558;
y = 0;
},
{
segmentType = line;
smooth = 0;
x = 558;
y = 2;
},
{
smooth = 0;
x = 550;
y = 10;
},
{
smooth = 0;
x = 535;
y = 22;
},
{
segmentType = curve;
smooth = 1;
x = 531;
y = 160;
},
{
smooth = 0;
x = 529;
y = 243;
},
{
smooth = 0;
x = 483;
y = 294;
},
{
segmentType = curve;
smooth = 0;
x = 401;
y = 308;
},
{
smooth = 0;
x = 495;
y = 325;
},
{
smooth = 0;
x = 545;
y = 391;
},
{
segmentType = curve;
smooth = 1;
x = 545;
y = 484;
},
{
smooth = 0;
x = 545;
y = 598;
},
{
smooth = 0;
x = 457;
y = 660;
},
{
segmentType = curve;
smooth = 1;
x = 336;
y = 660;
},
{
segmentType = line;
smooth = 0;
x = 100;
y = 660;
},
{
segmentType = line;
smooth = 0;
x = 100;
y = 0;
},
{
segmentType = line;
smooth = 0;
x = 114;
y = 0;
}
);
},
{
points = (
{
segmentType = line;
smooth = 0;
x = 114;
y = 647;
},
{
segmentType = line;
smooth = 1;
x = 336;
y = 647;
},
{
smooth = 0;
x = 450;
y = 647;
},
{
smooth = 0;
x = 531;
y = 588;
},
{
segmentType = curve;
smooth = 1;
x = 531;
y = 484;
},
{
smooth = 0;
x = 531;
y = 375;
},
{
smooth = 0;
x = 462;
y = 313;
},
{
segmentType = curve;
smooth = 1;
x = 330;
y = 313;
},
{
segmentType = line;
smooth = 0;
x = 114;
y = 313;
}
);
}
);
lib = {
};
name = R.alt;
unicodes = (
);
width = 612;
};
};
};
},
{
glyphname = G.ss04;
layers = (
{
anchors = (
{
name = bottom;
position = "{387, 16}";
},
{
name = ogonek;
position = "{433, 0}";
},
{
name = top;
position = "{440, 660}";
}
);
layerId = "DBFAC7D3-9CB2-48DD-9F53-AD59A4BD1301";
paths = (
{
closed = 1;
nodes = (
"551 -8 OFFCURVE",
"674 99 OFFCURVE",
"674 336 CURVE",
"391 336 LINE",
"374 261 LINE",
"592 261 LINE",
"592 143 OFFCURVE",
"501 68 OFFCURVE",
"383 68 CURVE SMOOTH",
"247 68 OFFCURVE",
"171 164 OFFCURVE",
"171 302 CURVE SMOOTH",
"171 448 OFFCURVE",
"258 596 OFFCURVE",
"427 596 CURVE SMOOTH",
"508 596 OFFCURVE",
"582 561 OFFCURVE",
"607 465 CURVE",
"688 493 LINE",
"650 626 OFFCURVE",
"541 670 OFFCURVE",
"429 670 CURVE SMOOTH",
"206 670 OFFCURVE",
"87 486 OFFCURVE",
"87 290 CURVE SMOOTH",
"87 116 OFFCURVE",
"205 -8 OFFCURVE",
"369 -8 CURVE SMOOTH"
);
}
);
width = 709;
},
{
anchors = (
{
name = bottom;
position = "{320, 0}";
},
{
name = ogonek;
position = "{342, 0}";
},
{
name = top;
position = "{436, 660}";
}
);
layerId = "EA77C764-8343-414A-A941-E69667BA8F3A";
paths = (
{
closed = 1;
nodes = (
"571 -10 OFFCURVE",
"688 105 OFFCURVE",
"712 377 CURVE",
"378 377 LINE",
"346 237 LINE",
"468 237 LINE",
"453 189 OFFCURVE",
"426 157 OFFCURVE",
"377 157 CURVE SMOOTH",
"309 157 OFFCURVE",
"274 212 OFFCURVE",
"274 294 CURVE SMOOTH",
"274 415 OFFCURVE",
"338 495 OFFCURVE",
"415 495 CURVE SMOOTH",
"470 495 OFFCURVE",
"493 459 OFFCURVE",
"493 412 CURVE",
"709 444 LINE",
"697 582 OFFCURVE",
"581 670 OFFCURVE",
"418 670 CURVE SMOOTH",
"177 670 OFFCURVE",
"42 497 OFFCURVE",
"42 278 CURVE SMOOTH",
"42 100 OFFCURVE",
"178 -10 OFFCURVE",
"350 -10 CURVE SMOOTH"
);
}
);
width = 720;
},
{
anchors = (
{
name = bottom;
position = "{338, 0}";
},
{
name = ogonek;
position = "{386, 0}";
},
{
name = top;
position = "{460, 660}";
}
);
associatedMasterId = "DBFAC7D3-9CB2-48DD-9F53-AD59A4BD1301";
background = {
anchors = (
{
name = bottom;
position = "{330, 0}";
},
{
name = bottomC;
position = "{299, 0}";
},
{
name = ogonek;
position = "{378, 0}";
},
{
name = top;
position = "{452, 660}";
}
);
paths = (
{
closed = 1;
nodes = (
"480 -10 OFFCURVE",
"603 103 OFFCURVE",
"642 272 CURVE SMOOTH",
"656 333 LINE",
"366 333 LINE",
"349 258 LINE",
"605 258 LINE",
"572 299 LINE",
"561 252 LINE SMOOTH",
"541 168 OFFCURVE",
"466 65 OFFCURVE",
"322 65 CURVE SMOOTH",
"177 65 OFFCURVE",
"122 164 OFFCURVE",
"160 330 CURVE SMOOTH",
"198 496 OFFCURVE",
"310 595 OFFCURVE",
"440 595 CURVE SMOOTH",
"530 595 OFFCURVE",
"588 555 OFFCURVE",
"599 479 CURVE",
"681 519 LINE",
"655 621 OFFCURVE",
"586 670 OFFCURVE",
"457 670 CURVE SMOOTH",
"276 670 OFFCURVE",
"125 539 OFFCURVE",
"76 330 CURVE SMOOTH",
"27 121 OFFCURVE",
"114 -10 OFFCURVE",
"298 -10 CURVE SMOOTH"
);
}
);
};
color = 5;
layerId = "DA6A99F1-5D92-456B-8899-067917049CCD";
name = "Sep 30 18, 15:02";
paths = (
{
closed = 1;
nodes = (
"574 253 LINE",
"567 222 LINE SMOOTH",
"544 120 OFFCURVE",
"478 68 OFFCURVE",
"371 68 CURVE SMOOTH",
"240 68 OFFCURVE",
"168 144 OFFCURVE",
"168 284 CURVE SMOOTH",
"168 438 OFFCURVE",
"257 596 OFFCURVE",
"423 596 CURVE SMOOTH",
"513 596 OFFCURVE",
"580 559 OFFCURVE",
"604 465 CURVE",
"685 493 LINE",
"648 624 OFFCURVE",
"547 670 OFFCURVE",
"428 670 CURVE SMOOTH",
"205 670 OFFCURVE",
"84 479 OFFCURVE",
"84 275 CURVE SMOOTH",
"84 97 OFFCURVE",
"198 -8 OFFCURVE",
"359 -8 CURVE SMOOTH",
"510 -8 OFFCURVE",
"608 71 OFFCURVE",
"641 215 CURVE SMOOTH",
"667 328 LINE",
"384 328 LINE",
"367 253 LINE"
);
}
);
width = 702;
},
{
anchors = (
{
name = bottom;
position = "{339, 0}";
},
{
name = ogonek;
position = "{371, 0}";
},
{
name = top;
position = "{425, 660}";
}
);
layerId = "F97236B5-7CBD-4FD1-81B0-6670342ADB4E";
paths = (
{
closed = 1;
nodes = (
"531 -9 OFFCURVE",
"623 127 OFFCURVE",
"632 310 CURVE",
"372 310 LINE",
"369 296 LINE",
"617 296 LINE",
"602 138 OFFCURVE",
"524 5 OFFCURVE",
"350 5 CURVE SMOOTH",
"199 5 OFFCURVE",
"91 108 OFFCURVE",
"91 289 CURVE SMOOTH",
"91 472 OFFCURVE",
"201 656 OFFCURVE",
"410 656 CURVE SMOOTH",
"519 656 OFFCURVE",
"599 597 OFFCURVE",
"634 489 CURVE",
"649 493 LINE",
"613 607 OFFCURVE",
"528 670 OFFCURVE",
"411 670 CURVE SMOOTH",
"190 670 OFFCURVE",
"75 482 OFFCURVE",
"75 286 CURVE SMOOTH",
"75 94 OFFCURVE",
"189 -9 OFFCURVE",
"350 -9 CURVE SMOOTH"
);
}
);
width = 669;
}
);
leftKerningGroup = O;
leftMetricsKey = O;
rightKerningGroup = G;
userData = {
com.typemytype.robofont.layerData = {
background = {
anchors = (
);
components = (
);
contours = (
{
points = (
{
smooth = 0;
x = 152;
y = 670;
},
{
smooth = 0;
x = 36;
y = 539;
},
{
segmentType = curve;
smooth = 1;
x = 36;
y = 330;
},
{
smooth = 0;
x = 36;
y = 121;
},
{
smooth = 0;
x = 152;
y = "-10";
},
{
segmentType = curve;
smooth = 1;
x = 337;
y = "-10";
},
{
smooth = 0;
x = 522;
y = "-10";
},
{
smooth = 0;
x = 638;
y = 121;
},
{
segmentType = curve;
smooth = 1;
x = 638;
y = 330;
},
{
smooth = 0;
x = 638;
y = 539;
},
{
smooth = 0;
x = 522;
y = 670;
},
{
segmentType = curve;
smooth = 1;
x = 337;
y = 670;
}
);
},
{
points = (
{
smooth = 0;
x = 512;
y = 656;
},
{
smooth = 0;
x = 622;
y = 530;
},
{
segmentType = curve;
smooth = 1;
x = 622;
y = 330;
},
{
smooth = 0;
x = 622;
y = 130;
},
{
smooth = 0;
x = 512;
y = 4;
},
{
segmentType = curve;
smooth = 1;
x = 337;
y = 4;
},
{
smooth = 0;
x = 162;
y = 4;
},
{
smooth = 0;
x = 52;
y = 130;
},
{
segmentType = curve;
smooth = 1;
x = 52;
y = 330;
},
{
smooth = 0;
x = 52;
y = 530;
},
{
smooth = 0;
x = 162;
y = 656;
},
{
segmentType = curve;
smooth = 1;
x = 337;
y = 656;
}
);
}
);
lib = {
};
name = G.alt;
unicodes = (
);
width = 684;
};
};
};
},
{
glyphname = IJ.ss05;
layers = (
{
layerId = "DBFAC7D3-9CB2-48DD-9F53-AD59A4BD1301";
paths = (
{
closed = 1;
nodes = (
"419 -8 OFFCURVE",
"478 84 OFFCURVE",
"507 207 CURVE SMOOTH",
"612 660 LINE",
"531 660 LINE",
"431 227 LINE SMOOTH",
"405 110 OFFCURVE",
"373 64 OFFCURVE",
"275 64 CURVE SMOOTH",
"201 64 OFFCURVE",
"156 104 OFFCURVE",
"168 193 CURVE",
"92 193 LINE",
"68 69 OFFCURVE",
"148 -8 OFFCURVE",
"266 -8 CURVE SMOOTH"
);
},
{
closed = 1;
nodes = (
"188 287 LINE",
"274 660 LINE",
"194 660 LINE",
"108 287 LINE"
);
}
);
width = 611;
},
{
layerId = "EA77C764-8343-414A-A941-E69667BA8F3A";
paths = (
{
closed = 1;
nodes = (
"513 -10 OFFCURVE",
"596 93 OFFCURVE",
"633 252 CURVE SMOOTH",
"727 660 LINE",
"494 660 LINE",
"408 289 LINE SMOOTH",
"388 201 OFFCURVE",
"370 165 OFFCURVE",
"323 165 CURVE SMOOTH",
"284 165 OFFCURVE",
"253 187 OFFCURVE",
"269 246 CURVE",
"38 246 LINE",
"10 97 OFFCURVE",
"109 -10 OFFCURVE",
"312 -10 CURVE SMOOTH"
);
},
{
closed = 1;
nodes = (
"278 292 LINE",
"363 660 LINE",
"130 660 LINE",
"45 292 LINE"
);
}
);
width = 667;
},
{
layerId = "F97236B5-7CBD-4FD1-81B0-6670342ADB4E";
paths = (
{
closed = 1;
nodes = (
"347 -10 OFFCURVE",
"415 51 OFFCURVE",
"446 187 CURVE SMOOTH",
"555 660 LINE",
"539 660 LINE",
"431 189 LINE SMOOTH",
"402 62 OFFCURVE",
"336 4 OFFCURVE",
"234 4 CURVE SMOOTH",
"132 4 OFFCURVE",
"67 63 OFFCURVE",
"85 163 CURVE",
"70 163 LINE",
"50 56 OFFCURVE",
"120 -10 OFFCURVE",
"233 -10 CURVE SMOOTH"
);
},
{
closed = 1;
nodes = (
"107 262 LINE",
"199 660 LINE",
"183 660 LINE",
"91 262 LINE"
);
}
);
width = 545;
}
);
leftKerningGroup = I;
rightKerningGroup = I;
rightMetricsKey = J;
},
{
glyphname = a;
layers = (
{
anchors = (
{
name = bottom;
position = "{276, 0}";
},
{
name = bottomC;
position = "{480, 0}";
},
{
name = ogonek;
position = "{538, 0}";
},
{
name = top;
position = "{276, 500}";
}
);
associatedMasterId = "DBFAC7D3-9CB2-48DD-9F53-AD59A4BD1301";
layerId = "C5C0F014-DC76-40FF-983E-C2E6887A2566";
name = "Aug 29 18, 22:54";
paths = (
{
closed = 1;
nodes = (
"171 510 OFFCURVE",
"92 462 OFFCURVE",
"66 388 CURVE",
"125 345 LINE",
"152 408 OFFCURVE",
"202 440 OFFCURVE",
"268 440 CURVE SMOOTH",
"343 440 OFFCURVE",
"385 396 OFFCURVE",
"385 330 CURVE SMOOTH",
"385 112 LINE",
"385 102 LINE SMOOTH",
"385 16 OFFCURVE",
"419 -10 OFFCURVE",
"478 -10 CURVE SMOOTH",
"503 -10 OFFCURVE",
"524 -5 OFFCURVE",
"538 0 CURVE",
"543 63 LINE",
"531 60 OFFCURVE",
"516 58 OFFCURVE",
"503 58 CURVE SMOOTH",
"475 58 OFFCURVE",
"465 70 OFFCURVE",
"465 94 CURVE SMOOTH",
"465 340 LINE SMOOTH",
"465 456 OFFCURVE",
"382 510 OFFCURVE",
"268 510 CURVE SMOOTH"
);
},
{
closed = 1;
nodes = (
"252 280 LINE SMOOTH",
"123 258 OFFCURVE",
"57 199 OFFCURVE",
"57 124 CURVE SMOOTH",
"57 34 OFFCURVE",
"133 -10 OFFCURVE",
"227 -10 CURVE SMOOTH",
"315 -10 OFFCURVE",
"407 42 OFFCURVE",
"407 125 CURVE",
"385 168 LINE",
"385 102 OFFCURVE",
"311 60 OFFCURVE",
"231 60 CURVE SMOOTH",
"174 60 OFFCURVE",
"140 82 OFFCURVE",
"140 124 CURVE SMOOTH",
"140 171 OFFCURVE",
"185 200 OFFCURVE",
"273 216 CURVE SMOOTH",
"431 245 LINE",
"420 308 LINE"
);
}
);
width = 566;
},
{
anchors = (
{
name = bottom;
position = "{211, 0}";
},
{
name = bottomC;
position = "{411, 0}";
},
{
name = ogonek;
position = "{468, 0}";
},
{
name = top;
position = "{327, 500}";
}
);
associatedMasterId = "DBFAC7D3-9CB2-48DD-9F53-AD59A4BD1301";
background = {
components = (
{
name = d;
}
);
};
color = 5;
layerId = "F0FD5FCA-E2FC-4C89-A57B-0238B86A9448";
leftMetricsKey = "=o";
rightMetricsKey = "=u";
name = "Sep 2 18, 19:09";
paths = (
{
closed = 1;
nodes = (
"336 -8 OFFCURVE",
"409 49 OFFCURVE",
"429 135 CURVE",
"419 123 LINE",
"397 0 LINE",
"467 0 LINE",
"583 500 LINE",
"503 500 LINE",
"467 344 LINE",
"482 352 LINE",
"477 447 OFFCURVE",
"407 510 OFFCURVE",
"306 510 CURVE SMOOTH",
"161 510 OFFCURVE",
"53 381 OFFCURVE",
"53 214 CURVE SMOOTH",
"53 83 OFFCURVE",
"135 -8 OFFCURVE",
"252 -8 CURVE SMOOTH"
);
},
{
closed = 1;
nodes = (
"185 61 OFFCURVE",
"133 116 OFFCURVE",
"133 216 CURVE SMOOTH",
"133 343 OFFCURVE",
"207 441 OFFCURVE",
"311 441 CURVE SMOOTH",
"393 441 OFFCURVE",
"445 384 OFFCURVE",
"445 295 CURVE SMOOTH",
"445 161 OFFCURVE",
"369 61 OFFCURVE",
"275 61 CURVE SMOOTH"
);
}
);
width = 614;
},
{
anchors = (
{
name = bottom;
position = "{210, 0}";
},
{
name = bottomC;
position = "{410, 0}";
},
{
name = ogonek;
position = "{467, 0}";
},
{
name = top;
position = "{326, 500}";
}
);
associatedMasterId = "DBFAC7D3-9CB2-48DD-9F53-AD59A4BD1301";
background = {
anchors = (
{
name = bottom;
position = "{210, 0}";
},
{
name = bottomC;
position = "{410, 0}";
},
{
name = ogonek;
position = "{467, 0}";
},
{
name = top;
position = "{326, 500}";
}
);
paths = (
{
closed = 1;
nodes = (
"335 -8 OFFCURVE",
"408 49 OFFCURVE",
"428 135 CURVE",
"418 123 LINE",
"396 0 LINE",
"466 0 LINE",
"582 500 LINE",
"502 500 LINE",
"466 344 LINE",
"481 352 LINE",
"476 447 OFFCURVE",
"406 510 OFFCURVE",
"305 510 CURVE SMOOTH",
"160 510 OFFCURVE",
"52 381 OFFCURVE",
"52 214 CURVE SMOOTH",
"52 83 OFFCURVE",
"134 -8 OFFCURVE",
"251 -8 CURVE SMOOTH"
);
},
{
closed = 1;
nodes = (
"184 61 OFFCURVE",
"132 116 OFFCURVE",
"132 216 CURVE SMOOTH",
"132 343 OFFCURVE",
"206 441 OFFCURVE",
"310 441 CURVE SMOOTH",
"392 441 OFFCURVE",
"444 384 OFFCURVE",
"444 295 CURVE SMOOTH",
"444 161 OFFCURVE",
"368 61 OFFCURVE",
"274 61 CURVE SMOOTH"
);
}
);
};
color = 5;
guideLines = (
{
angle = 77;
position = "{555, 730}";
}
);
layerId = "E9A8B459-8ECA-41D2-8CD5-57926DC264B7";
leftMetricsKey = "=o";
rightMetricsKey = "=u";
name = "Sep 2 18, 19:12";
paths = (
{
closed = 1;
nodes = (
"326 -8 OFFCURVE",
"408 49 OFFCURVE",
"428 135 CURVE",
"418 123 LINE",
"396 0 LINE",
"466 0 LINE",
"582 500 LINE",
"502 500 LINE",
"466 344 LINE",
"481 352 LINE",
"476 447 OFFCURVE",
"412 509 OFFCURVE",
"311 509 CURVE SMOOTH",
"158 509 OFFCURVE",
"52 370 OFFCURVE",
"52 209 CURVE SMOOTH",
"52 80 OFFCURVE",
"129 -8 OFFCURVE",
"242 -8 CURVE SMOOTH"
);
},
{
closed = 1;
nodes = (
"183 61 OFFCURVE",
"131 113 OFFCURVE",
"131 205 CURVE SMOOTH",
"131 336 OFFCURVE",
"207 440 OFFCURVE",
"316 440 CURVE SMOOTH",
"393 440 OFFCURVE",
"446 382 OFFCURVE",
"446 289 CURVE SMOOTH",
"446 164 OFFCURVE",
"367 61 OFFCURVE",
"271 61 CURVE SMOOTH"
);
}
);
width = 613;
},
{
anchors = (
{
name = bottom;
position = "{253, 0}";
},
{
name = ogonek;
position = "{469, 0}";
},
{
name = top;
position = "{330, 500}";
}
);
guideLines = (
{
angle = 77;
position = "{557, 730}";
}
);
layerId = "DBFAC7D3-9CB2-48DD-9F53-AD59A4BD1301";
leftMetricsKey = "=o";
rightMetricsKey = "=u";
paths = (
{
closed = 1;
nodes = (
"320 -8 OFFCURVE",
"384 31 OFFCURVE",
"416 93 CURVE",
"399 0 LINE",
"469 0 LINE",
"585 500 LINE",
"505 500 LINE",
"479 387 LINE",
"461 462 OFFCURVE",
"398 510 OFFCURVE",
"310 510 CURVE SMOOTH",
"162 510 OFFCURVE",
"55 378 OFFCURVE",
"55 212 CURVE SMOOTH",
"55 82 OFFCURVE",
"135 -8 OFFCURVE",
"251 -8 CURVE SMOOTH"
);
},
{
closed = 1;
nodes = (
"182 60 OFFCURVE",
"134 115 OFFCURVE",
"134 213 CURVE SMOOTH",
"134 341 OFFCURVE",
"209 441 OFFCURVE",
"315 441 CURVE SMOOTH",
"395 441 OFFCURVE",
"447 383 OFFCURVE",
"447 293 CURVE SMOOTH",
"447 162 OFFCURVE",
"366 60 OFFCURVE",
"272 60 CURVE SMOOTH"
);
}
);
width = 616;
},
{
anchors = (
{
name = bottom;
position = "{261, 0}";
},
{
name = ogonek;
position = "{523, 0}";
},
{
name = top;
position = "{353, 500}";
}
);
layerId = "EA77C764-8343-414A-A941-E69667BA8F3A";
rightMetricsKey = "=u";
paths = (
{
closed = 1;
nodes = (
"241 -10 OFFCURVE",
"297 29 OFFCURVE",
"330 95 CURVE",
"313 0 LINE",
"523 0 LINE",
"639 500 LINE",
"409 500 LINE",
"386 400 LINE",
"371 485 OFFCURVE",
"309 510 OFFCURVE",
"257 510 CURVE SMOOTH",
"103 510 OFFCURVE",
"15 336 OFFCURVE",
"15 178 CURVE SMOOTH",
"15 51 OFFCURVE",
"85 -10 OFFCURVE",
"174 -10 CURVE SMOOTH"
);
},
{
closed = 1;
nodes = (
"254 152 OFFCURVE",
"242 174 OFFCURVE",
"242 209 CURVE SMOOTH",
"242 250 OFFCURVE",
"264 347 OFFCURVE",
"319 347 CURVE SMOOTH",
"345 347 OFFCURVE",
"358 328 OFFCURVE",
"358 295 CURVE SMOOTH",
"358 243 OFFCURVE",
"333 152 OFFCURVE",
"284 152 CURVE SMOOTH"
);
}
);
width = 619;
},
{
anchors = (
{
name = bottom;
position = "{277, 0}";
},
{
name = bottomC;
position = "{520, 0}";
},
{
name = ogonek;
position = "{579, 10}";
},
{
name = top;
position = "{277, 500}";
}
);
associatedMasterId = "EA77C764-8343-414A-A941-E69667BA8F3A";
background = {
anchors = (
{
name = bottom;
position = "{277, 0}";
},
{
name = bottomC;
position = "{520, 0}";
},
{
name = ogonek;
position = "{579, 10}";
},
{
name = top;
position = "{277, 500}";
}
);
paths = (
{
closed = 1;
nodes = (
"115 510 OFFCURVE",
"32 441 OFFCURVE",
"22 329 CURVE",
"212 300 LINE",
"214 349 OFFCURVE",
"237 361 OFFCURVE",
"265 361 CURVE SMOOTH",
"294 361 OFFCURVE",
"310 343 OFFCURVE",
"310 312 CURVE SMOOTH",
"310 112 LINE",
"342 117 LINE",
"342 32 OFFCURVE",
"407 -10 OFFCURVE",
"499 -10 CURVE SMOOTH",
"530 -10 OFFCURVE",
"555 -4 OFFCURVE",
"579 10 CURVE",
"597 127 LINE",
"591 124 OFFCURVE",
"583 123 OFFCURVE",
"572 123 CURVE SMOOTH",
"550 123 OFFCURVE",
"538 136 OFFCURVE",
"538 164 CURVE SMOOTH",
"538 304 LINE SMOOTH",
"538 441 OFFCURVE",
"457 510 OFFCURVE",
"278 510 CURVE SMOOTH"
);
},
{
closed = 1;
nodes = (
"208 272 LINE SMOOTH",
"66 243 OFFCURVE",
"16 194 OFFCURVE",
"16 112 CURVE SMOOTH",
"16 35 OFFCURVE",
"71 -10 OFFCURVE",
"174 -10 CURVE SMOOTH",
"316 -10 OFFCURVE",
"372 74 OFFCURVE",
"372 164 CURVE",
"310 164 LINE",
"310 131 OFFCURVE",
"291 115 OFFCURVE",
"267 115 CURVE SMOOTH",
"248 115 OFFCURVE",
"232 126 OFFCURVE",
"232 150 CURVE SMOOTH",
"232 175 OFFCURVE",
"249 194 OFFCURVE",
"277 202 CURVE SMOOTH",
"360 226 LINE",
"342 299 LINE"
);
}
);
};
layerId = "E752BC1F-2B09-41E3-8F44-434560433477";
name = Original;
paths = (
{
closed = 1;
nodes = (
"310 164 LINE SMOOTH",
"310 131 OFFCURVE",
"291 115 OFFCURVE",
"267 115 CURVE SMOOTH",
"248 115 OFFCURVE",
"232 126 OFFCURVE",
"232 150 CURVE SMOOTH",
"232 175 OFFCURVE",
"249 194 OFFCURVE",
"277 202 CURVE SMOOTH",
"325 217 LINE",
"326 296 LINE",
"208 272 LINE SMOOTH",
"66 243 OFFCURVE",
"16 194 OFFCURVE",
"16 112 CURVE SMOOTH",
"16 35 OFFCURVE",
"71 -10 OFFCURVE",
"174 -10 CURVE SMOOTH",
"296 -10 OFFCURVE",
"355 51 OFFCURVE",
"368 127 CURVE",
"342 127 LINE",
"342 117 LINE SMOOTH",
"342 31 OFFCURVE",
"407 -10 OFFCURVE",
"499 -10 CURVE SMOOTH",
"530 -10 OFFCURVE",
"555 -4 OFFCURVE",
"579 10 CURVE",
"597 127 LINE",
"591 124 OFFCURVE",
"583 123 OFFCURVE",
"572 123 CURVE SMOOTH",
"550 123 OFFCURVE",
"538 136 OFFCURVE",
"538 164 CURVE SMOOTH",
"538 304 LINE SMOOTH",
"538 441 OFFCURVE",
"457 510 OFFCURVE",
"278 510 CURVE SMOOTH",
"115 510 OFFCURVE",
"32 441 OFFCURVE",
"22 329 CURVE",
"212 300 LINE",
"214 349 OFFCURVE",
"237 361 OFFCURVE",
"265 361 CURVE SMOOTH",
"294 361 OFFCURVE",
"310 343 OFFCURVE",
"310 312 CURVE SMOOTH"
);
}
);
width = 588;
},
{
anchors = (
{
name = bottom;
position = "{219, 0}";
},
{
name = bottomC;
position = "{178, 0}";
},
{
name = center;
position = "{307, 250}";
},
{
name = ogonek;
position = "{527, 0}";
},
{
name = top;
position = "{335, 500}";
}
);
associatedMasterId = "EA77C764-8343-414A-A941-E69667BA8F3A";
background = {
paths = (
{
closed = 1;
nodes = (
"271 -10 OFFCURVE",
"344 62 OFFCURVE",
"365 183 CURVE",
"353 202 LINE",
"317 0 LINE",
"527 0 LINE",
"643 500 LINE",
"413 500 LINE",
"370 313 LINE",
"391 343 LINE",
"397 476 OFFCURVE",
"330 510 OFFCURVE",
"256 510 CURVE SMOOTH",
"107 510 OFFCURVE",
"18 357 OFFCURVE",
"18 187 CURVE SMOOTH",
"18 70 OFFCURVE",
"77 -10 OFFCURVE",
"180 -10 CURVE SMOOTH"
);
},
{
closed = 1;
nodes = (
"258 152 OFFCURVE",
"246 174 OFFCURVE",
"246 209 CURVE SMOOTH",
"246 250 OFFCURVE",
"268 347 OFFCURVE",
"323 347 CURVE SMOOTH",
"349 347 OFFCURVE",
"362 328 OFFCURVE",
"362 295 CURVE SMOOTH",
"362 243 OFFCURVE",
"337 152 OFFCURVE",
"288 152 CURVE SMOOTH"
);
}
);
};
color = 5;
layerId = "9BE619CA-A95E-4149-8132-0E8DB245C4BB";
leftMetricsKey = "=d";
rightMetricsKey = "=n";
name = "Sep 12 18, 22:05";
paths = (
{
closed = 1;
nodes = (
"281 -10 OFFCURVE",
"344 64 OFFCURVE",
"365 183 CURVE",
"353 202 LINE",
"317 0 LINE",
"527 0 LINE",
"643 500 LINE",
"413 500 LINE",
"370 313 LINE",
"391 343 LINE",
"397 475 OFFCURVE",
"327 510 OFFCURVE",
"255 510 CURVE SMOOTH",
"107 510 OFFCURVE",
"21 362 OFFCURVE",
"21 192 CURVE SMOOTH",
"21 74 OFFCURVE",
"85 -10 OFFCURVE",
"188 -10 CURVE SMOOTH"
);
},
{
closed = 1;
nodes = (
"258 152 OFFCURVE",
"246 174 OFFCURVE",
"246 209 CURVE SMOOTH",
"246 250 OFFCURVE",
"268 347 OFFCURVE",
"323 347 CURVE SMOOTH",
"349 347 OFFCURVE",
"362 328 OFFCURVE",
"362 295 CURVE SMOOTH",
"362 243 OFFCURVE",
"337 152 OFFCURVE",
"288 152 CURVE SMOOTH"
);
}
);
width = 622;
},
{
anchors = (
{
name = bottom;
position = "{242, 0}";
},
{
name = ogonek;
position = "{440, 0}";
},
{
name = top;
position = "{315, 500}";
}
);
guideLines = (
{
angle = 77;
position = "{540, 500}";
}
);
layerId = "F97236B5-7CBD-4FD1-81B0-6670342ADB4E";
leftMetricsKey = "=o";
rightMetricsKey = "=u";
paths = (
{
closed = 1;
nodes = (
"353 -10 OFFCURVE",
"417 50 OFFCURVE",
"453 126 CURVE",
"424 0 LINE",
"440 0 LINE",
"556 500 LINE",
"540 500 LINE",
"497 316 LINE",
"498 430 OFFCURVE",
"427 510 OFFCURVE",
"304 510 CURVE SMOOTH",
"146 510 OFFCURVE",
"48 381 OFFCURVE",
"48 217 CURVE SMOOTH",
"48 85 OFFCURVE",
"125 -10 OFFCURVE",
"253 -10 CURVE SMOOTH"
);
},
{
closed = 1;
nodes = (
"148 4 OFFCURVE",
"64 82 OFFCURVE",
"64 216 CURVE SMOOTH",
"64 380 OFFCURVE",
"160 496 OFFCURVE",
"303 496 CURVE SMOOTH",
"399 496 OFFCURVE",
"486 441 OFFCURVE",
"486 302 CURVE SMOOTH",
"486 159 OFFCURVE",
"398 4 OFFCURVE",
"257 4 CURVE SMOOTH"
);
}
);
width = 582;
},
{
anchors = (
{
name = bottom;
position = "{242, 0}";
},
{
name = ogonek;
position = "{440, 0}";
},
{
name = top;
position = "{315, 500}";
}
);
associatedMasterId = "F97236B5-7CBD-4FD1-81B0-6670342ADB4E";
background = {
anchors = (
{
name = bottom;
position = "{180, 0}";
},
{
name = ogonek;
position = "{448, 0}";
},
{
name = top;
position = "{296, 500}";
}
);
paths = (
{
closed = 1;
nodes = (
"380 165 LINE SMOOTH",
"354 51 OFFCURVE",
"228 4 OFFCURVE",
"151 4 CURVE SMOOTH",
"58 4 OFFCURVE",
"17 43 OFFCURVE",
"34 114 CURVE SMOOTH",
"48 176 OFFCURVE",
"102 215 OFFCURVE",
"197 233 CURVE SMOOTH",
"408 273 LINE",
"412 287 LINE",
"189 245 LINE SMOOTH",
"95 227 OFFCURVE",
"34 187 OFFCURVE",
"17 112 CURVE SMOOTH",
"-1 34 OFFCURVE",
"47 -10 OFFCURVE",
"146 -10 CURVE SMOOTH",
"235 -10 OFFCURVE",
"344 37 OFFCURVE",
"381 136 CURVE",
"372 130 LINE",
"362 84 LINE SMOOTH",
"344 6 OFFCURVE",
"380 -8 OFFCURVE",
"410 -8 CURVE SMOOTH",
"425 -8 OFFCURVE",
"438 -5 OFFCURVE",
"448 0 CURVE",
"453 14 LINE",
"442 8 OFFCURVE",
"432 6 OFFCURVE",
"417 6 CURVE SMOOTH",
"380 6 OFFCURVE",
"365 29 OFFCURVE",
"376 78 CURVE SMOOTH",
"436 336 LINE SMOOTH",
"461 446 OFFCURVE",
"413 510 OFFCURVE",
"304 510 CURVE SMOOTH",
"214 510 OFFCURVE",
"137 471 OFFCURVE",
"88 388 CURVE",
"99 378 LINE",
"147 462 OFFCURVE",
"220 496 OFFCURVE",
"301 496 CURVE SMOOTH",
"400 496 OFFCURVE",
"442 434 OFFCURVE",
"420 336 CURVE SMOOTH"
);
}
);
};
color = 5;
layerId = "21495AB6-DFE5-43D7-95A9-B9B8ACEA7AEB";
leftMetricsKey = "=o";
rightMetricsKey = "=u";
name = "Nov 4 18, 15:23";
paths = (
{
closed = 1;
nodes = (
"359 -10 OFFCURVE",
"421 46 OFFCURVE",
"456 120 CURVE",
"461 159 LINE",
"424 0 LINE",
"440 0 LINE",
"556 500 LINE",
"540 500 LINE",
"482 252 LINE",
"486 240 LINE",
"489 262 OFFCURVE",
"492 283 OFFCURVE",
"492 303 CURVE SMOOTH",
"492 443 OFFCURVE",
"401 510 OFFCURVE",
"297 510 CURVE SMOOTH",
"142 510 OFFCURVE",
"48 381 OFFCURVE",
"48 217 CURVE SMOOTH",
"48 89 OFFCURVE",
"122 -10 OFFCURVE",
"257 -10 CURVE SMOOTH"
);
},
{
closed = 1;
nodes = (
"143 4 OFFCURVE",
"64 87 OFFCURVE",
"64 216 CURVE SMOOTH",
"64 380 OFFCURVE",
"160 496 OFFCURVE",
"296 496 CURVE SMOOTH",
"390 496 OFFCURVE",
"479 438 OFFCURVE",
"479 289 CURVE SMOOTH",
"479 123 OFFCURVE",
"391 4 OFFCURVE",
"254 4 CURVE SMOOTH"
);
}
);
width = 582;
},
{
anchors = (
{
name = bottom;
position = "{253, 0}";
},
{
name = ogonek;
position = "{469, 0}";
},
{
name = top;
position = "{330, 500}";
}
);
associatedMasterId = "DBFAC7D3-9CB2-48DD-9F53-AD59A4BD1301";
background = {
components = (
{
name = o;
}
);
};
color = 6;
guideLines = (
{
angle = 77;
position = "{557, 730}";
}
);
layerId = "CCEA1B4E-1786-4211-9EFB-77535D0637C9";
leftMetricsKey = "=o";
rightMetricsKey = "=u";
name = "Nov 4 18, 15:23";
paths = (
{
closed = 1;
nodes = (
"335 -8 OFFCURVE",
"411 49 OFFCURVE",
"431 135 CURVE",
"421 123 LINE",
"399 0 LINE",
"469 0 LINE",
"585 500 LINE",
"505 500 LINE",
"469 344 LINE",
"484 352 LINE",
"479 447 OFFCURVE",
"411 510 OFFCURVE",
"310 510 CURVE SMOOTH",
"162 510 OFFCURVE",
"55 378 OFFCURVE",
"55 212 CURVE SMOOTH",
"55 82 OFFCURVE",
"135 -8 OFFCURVE",
"251 -8 CURVE SMOOTH"
);
},
{
closed = 1;
nodes = (
"182 60 OFFCURVE",
"134 115 OFFCURVE",
"134 213 CURVE SMOOTH",
"134 341 OFFCURVE",
"209 441 OFFCURVE",
"315 441 CURVE SMOOTH",
"395 441 OFFCURVE",
"447 383 OFFCURVE",
"447 293 CURVE SMOOTH",
"447 162 OFFCURVE",
"366 60 OFFCURVE",
"272 60 CURVE SMOOTH"
);
}
);
width = 616;
},
{
anchors = (
{
name = bottom;
position = "{261, 0}";
},
{
name = ogonek;
position = "{523, 0}";
},
{
name = top;
position = "{353, 500}";
}
);
associatedMasterId = "EA77C764-8343-414A-A941-E69667BA8F3A";
background = {
paths = (
{
closed = 1;
nodes = (
"277 -10 OFFCURVE",
"340 64 OFFCURVE",
"361 183 CURVE",
"349 202 LINE",
"313 0 LINE",
"523 0 LINE",
"639 500 LINE",
"409 500 LINE",
"366 313 LINE",
"387 343 LINE",
"393 475 OFFCURVE",
"323 510 OFFCURVE",
"251 510 CURVE SMOOTH",
"103 510 OFFCURVE",
"17 362 OFFCURVE",
"17 192 CURVE SMOOTH",
"17 74 OFFCURVE",
"81 -10 OFFCURVE",
"184 -10 CURVE SMOOTH"
);
},
{
closed = 1;
nodes = (
"254 152 OFFCURVE",
"242 174 OFFCURVE",
"242 209 CURVE SMOOTH",
"242 250 OFFCURVE",
"264 347 OFFCURVE",
"319 347 CURVE SMOOTH",
"345 347 OFFCURVE",
"358 328 OFFCURVE",
"358 295 CURVE SMOOTH",
"358 243 OFFCURVE",
"333 152 OFFCURVE",
"284 152 CURVE SMOOTH"
);
}
);
};
color = 5;
layerId = "BA4DFCDE-5911-42D6-A6FE-70747F361B13";
leftMetricsKey = "=d";
rightMetricsKey = "=n";
name = "Nov 4 18, 15:23";
paths = (
{
closed = 1;
nodes = (
"267 -10 OFFCURVE",
"337 64 OFFCURVE",
"358 183 CURVE",
"349 202 LINE",
"313 0 LINE",
"523 0 LINE",
"639 500 LINE",
"409 500 LINE",
"366 313 LINE",
"389 343 LINE",
"395 475 OFFCURVE",
"319 510 OFFCURVE",
"257 510 CURVE SMOOTH",
"103 510 OFFCURVE",
"15 336 OFFCURVE",
"15 178 CURVE SMOOTH",
"15 51 OFFCURVE",
"85 -10 OFFCURVE",
"174 -10 CURVE SMOOTH"
);
},
{
closed = 1;
nodes = (
"254 152 OFFCURVE",
"242 174 OFFCURVE",
"242 209 CURVE SMOOTH",
"242 250 OFFCURVE",
"264 347 OFFCURVE",
"319 347 CURVE SMOOTH",
"345 347 OFFCURVE",
"358 328 OFFCURVE",
"358 295 CURVE SMOOTH",
"358 243 OFFCURVE",
"333 152 OFFCURVE",
"284 152 CURVE SMOOTH"
);
}
);
width = 618;
},
{
anchors = (
{
name = bottom;
position = "{242, 0}";
},
{
name = ogonek;
position = "{440, 0}";
},
{
name = top;
position = "{315, 500}";
}
);
associatedMasterId = "F97236B5-7CBD-4FD1-81B0-6670342ADB4E";
background = {
anchors = (
{
name = bottom;
position = "{242, 0}";
},
{
name = ogonek;
position = "{440, 0}";
},
{
name = top;
position = "{315, 500}";
}
);
paths = (
{
closed = 1;
nodes = (
"359 -10 OFFCURVE",
"421 46 OFFCURVE",
"456 120 CURVE",
"461 159 LINE",
"424 0 LINE",
"440 0 LINE",
"556 500 LINE",
"540 500 LINE",
"482 252 LINE",
"486 240 LINE",
"489 262 OFFCURVE",
"492 283 OFFCURVE",
"492 303 CURVE SMOOTH",
"492 443 OFFCURVE",
"401 510 OFFCURVE",
"297 510 CURVE SMOOTH",
"142 510 OFFCURVE",
"48 381 OFFCURVE",
"48 217 CURVE SMOOTH",
"48 89 OFFCURVE",
"122 -10 OFFCURVE",
"257 -10 CURVE SMOOTH"
);
},
{
closed = 1;
nodes = (
"143 4 OFFCURVE",
"64 87 OFFCURVE",
"64 216 CURVE SMOOTH",
"64 380 OFFCURVE",
"160 496 OFFCURVE",
"296 496 CURVE SMOOTH",
"390 496 OFFCURVE",
"479 438 OFFCURVE",
"479 289 CURVE SMOOTH",
"479 123 OFFCURVE",
"391 4 OFFCURVE",
"254 4 CURVE SMOOTH"
);
}
);
};
color = 5;
layerId = "4D2E129F-C06F-49A4-BF3F-13AC2B0B450A";
leftMetricsKey = "=o";
rightMetricsKey = "=u";
name = "Nov 5 18, 15:45";
paths = (
{
closed = 1;
nodes = (
"352 -10 OFFCURVE",
"412 39 OFFCURVE",
"448 105 CURVE",
"424 0 LINE",
"440 0 LINE",
"556 500 LINE",
"540 500 LINE",
"492 294 LINE",
"496 425 OFFCURVE",
"417 510 OFFCURVE",
"297 510 CURVE SMOOTH",
"142 510 OFFCURVE",
"48 381 OFFCURVE",
"48 217 CURVE SMOOTH",
"48 89 OFFCURVE",
"122 -10 OFFCURVE",
"257 -10 CURVE SMOOTH"
);
},
{
closed = 1;
nodes = (
"143 4 OFFCURVE",
"64 87 OFFCURVE",
"64 216 CURVE SMOOTH",
"64 380 OFFCURVE",
"160 496 OFFCURVE",
"296 496 CURVE SMOOTH",
"390 496 OFFCURVE",
"479 438 OFFCURVE",
"479 289 CURVE SMOOTH",
"479 123 OFFCURVE",
"391 4 OFFCURVE",
"254 4 CURVE SMOOTH"
);
}
);
width = 582;
},
{
anchors = (
{
name = bottom;
position = "{242, 0}";
},
{
name = ogonek;
position = "{440, 0}";
},
{
name = top;
position = "{315, 500}";
}
);
associatedMasterId = "F97236B5-7CBD-4FD1-81B0-6670342ADB4E";
background = {
anchors = (
{
name = bottom;
position = "{242, 0}";
},
{
name = ogonek;
position = "{440, 0}";
},
{
name = top;
position = "{315, 500}";
}
);
paths = (
{
closed = 1;
nodes = (
"352 -10 OFFCURVE",
"412 39 OFFCURVE",
"448 105 CURVE",
"424 0 LINE",
"440 0 LINE",
"556 500 LINE",
"540 500 LINE",
"492 294 LINE",
"496 425 OFFCURVE",
"417 510 OFFCURVE",
"297 510 CURVE SMOOTH",
"142 510 OFFCURVE",
"48 381 OFFCURVE",
"48 217 CURVE SMOOTH",
"48 89 OFFCURVE",
"122 -10 OFFCURVE",
"257 -10 CURVE SMOOTH"
);
},
{
closed = 1;
nodes = (
"143 4 OFFCURVE",
"64 87 OFFCURVE",
"64 216 CURVE SMOOTH",
"64 380 OFFCURVE",
"160 496 OFFCURVE",
"296 496 CURVE SMOOTH",
"390 496 OFFCURVE",
"479 438 OFFCURVE",
"479 289 CURVE SMOOTH",
"479 123 OFFCURVE",
"391 4 OFFCURVE",
"254 4 CURVE SMOOTH"
);
}
);
};
color = 5;
layerId = "ADC8FE79-4982-4CCA-9E7B-7CFA4615A719";
leftMetricsKey = "=o";
rightMetricsKey = "=u";
name = "Nov 5 18, 15:47";
paths = (
{
closed = 1;
nodes = (
"367 -10 OFFCURVE",
"432 56 OFFCURVE",
"470 153 CURVE",
"458 146 LINE",
"424 0 LINE",
"440 0 LINE",
"556 500 LINE",
"540 500 LINE",
"483 255 LINE",
"496 296 LINE",
"499 440 OFFCURVE",
"411 510 OFFCURVE",
"303 510 CURVE SMOOTH",
"144 510 OFFCURVE",
"48 381 OFFCURVE",
"48 217 CURVE SMOOTH",
"48 85 OFFCURVE",
"122 -10 OFFCURVE",
"257 -10 CURVE SMOOTH"
);
},
{
closed = 1;
nodes = (
"143 4 OFFCURVE",
"64 84 OFFCURVE",
"64 216 CURVE SMOOTH",
"64 380 OFFCURVE",
"162 496 OFFCURVE",
"302 496 CURVE SMOOTH",
"382 496 OFFCURVE",
"483 449 OFFCURVE",
"483 300 CURVE SMOOTH",
"483 137 OFFCURVE",
"397 4 OFFCURVE",
"256 4 CURVE SMOOTH"
);
}
);
width = 582;
}
);
leftKerningGroup = o;
rightKerningGroup = u;
unicode = 0061;
},
{
glyphname = ae;
layers = (
{
anchors = (
{
name = bottom;
position = "{369, 0}";
},
{
name = ogonek;
position = "{658, 0}";
},
{
name = top;
position = "{461, 500}";
}
);
background = {
anchors = (
{
name = bottom;
position = "{369, 0}";
},
{
name = ogonek;
position = "{658, 0}";
},
{
name = top;
position = "{461, 500}";
}
);
paths = (
{
closed = 1;
nodes = (
"324 -10 OFFCURVE",
"406 74 OFFCURVE",
"415 160 CURVE",
"399 158 LINE",
"392 73 OFFCURVE",
"472 -9 OFFCURVE",
"592 -9 CURVE SMOOTH",
"681 -9 OFFCURVE",
"753 31 OFFCURVE",
"797 95 CURVE",
"734 137 LINE",
"706 90 OFFCURVE",
"663 60 OFFCURVE",
"599 60 CURVE SMOOTH",
"515 60 OFFCURVE",
"458 120 OFFCURVE",
"458 209 CURVE SMOOTH",
"458 319 OFFCURVE",
"506 440 OFFCURVE",
"641 440 CURVE SMOOTH",
"704 440 OFFCURVE",
"749 392 OFFCURVE",
"749 320 CURVE SMOOTH",
"749 314 OFFCURVE",
"749 307 OFFCURVE",
"748 301 CURVE",
"452 301 LINE",
"443 231 LINE",
"813 231 LINE",
"822 261 OFFCURVE",
"827 290 OFFCURVE",
"827 317 CURVE SMOOTH",
"827 427 OFFCURVE",
"759 509 OFFCURVE",
"649 509 CURVE SMOOTH",
"556 509 OFFCURVE",
"481 468 OFFCURVE",
"441 405 CURVE",
"454 401 LINE",
"449 456 OFFCURVE",
"384 509 OFFCURVE",
"297 509 CURVE SMOOTH",
"193 509 OFFCURVE",
"118 466 OFFCURVE",
"77 388 CURVE",
"135 347 LINE",
"169 412 OFFCURVE",
"215 440 OFFCURVE",
"289 440 CURVE SMOOTH",
"357 440 OFFCURVE",
"400 401 OFFCURVE",
"400 342 CURVE SMOOTH",
"400 332 OFFCURVE",
"399 321 OFFCURVE",
"396 309 CURVE SMOOTH",
"370 194 LINE SMOOTH",
"351 109 OFFCURVE",
"300 58 OFFCURVE",
"213 58 CURVE SMOOTH",
"153 58 OFFCURVE",
"124 85 OFFCURVE",
"124 132 CURVE SMOOTH",
"124 188 OFFCURVE",
"173 206 OFFCURVE",
"251 217 CURVE SMOOTH",
"414 239 LINE",
"417 301 LINE",
"223 276 LINE SMOOTH",
"117 262 OFFCURVE",
"41 219 OFFCURVE",
"41 129 CURVE SMOOTH",
"41 51 OFFCURVE",
"94 -10 OFFCURVE",
"206 -10 CURVE SMOOTH"
);
}
);
};
hints = (
{
horizontal = 1;
place = "{-10, 70}";
type = Stem;
},
{
horizontal = 1;
place = "{510, 70}";
type = Stem;
}
);
layerId = "DBFAC7D3-9CB2-48DD-9F53-AD59A4BD1301";
paths = (
{
closed = 1;
nodes = (
"324 -10 OFFCURVE",
"406 74 OFFCURVE",
"415 160 CURVE",
"399 148 LINE",
"399 66 OFFCURVE",
"477 -9 OFFCURVE",
"592 -9 CURVE SMOOTH",
"681 -9 OFFCURVE",
"753 31 OFFCURVE",
"797 95 CURVE",
"734 137 LINE",
"706 90 OFFCURVE",
"663 60 OFFCURVE",
"599 60 CURVE SMOOTH",
"515 60 OFFCURVE",
"458 120 OFFCURVE",
"458 209 CURVE SMOOTH",
"458 319 OFFCURVE",
"506 440 OFFCURVE",
"641 440 CURVE SMOOTH",
"704 440 OFFCURVE",
"749 392 OFFCURVE",
"749 320 CURVE SMOOTH",
"749 314 OFFCURVE",
"749 307 OFFCURVE",
"748 301 CURVE",
"452 301 LINE",
"443 231 LINE",
"813 231 LINE",
"822 261 OFFCURVE",
"827 290 OFFCURVE",
"827 317 CURVE SMOOTH",
"827 427 OFFCURVE",
"759 509 OFFCURVE",
"649 509 CURVE SMOOTH",
"556 509 OFFCURVE",
"481 468 OFFCURVE",
"441 405 CURVE",
"454 401 LINE",
"449 456 OFFCURVE",
"384 509 OFFCURVE",
"297 509 CURVE SMOOTH",
"193 509 OFFCURVE",
"118 466 OFFCURVE",
"77 388 CURVE",
"135 347 LINE",
"169 412 OFFCURVE",
"215 440 OFFCURVE",
"289 440 CURVE SMOOTH",
"357 440 OFFCURVE",
"400 401 OFFCURVE",
"400 342 CURVE SMOOTH",
"400 332 OFFCURVE",
"399 321 OFFCURVE",
"396 309 CURVE SMOOTH",
"370 194 LINE SMOOTH",
"351 109 OFFCURVE",
"300 58 OFFCURVE",
"213 58 CURVE SMOOTH",
"153 58 OFFCURVE",
"124 85 OFFCURVE",
"124 132 CURVE SMOOTH",
"124 188 OFFCURVE",
"173 206 OFFCURVE",
"251 217 CURVE SMOOTH",
"414 239 LINE",
"417 301 LINE",
"223 276 LINE SMOOTH",
"117 262 OFFCURVE",
"41 219 OFFCURVE",
"41 129 CURVE SMOOTH",
"41 51 OFFCURVE",
"94 -10 OFFCURVE",
"206 -10 CURVE SMOOTH"
);
}
);
width = 883;
},
{
anchors = (
{
name = bottom;
position = "{361, 0}";
},
{
name = ogonek;
position = "{692, 5}";
},
{
name = top;
position = "{472, 500}";
}
);
hints = (
{
horizontal = 1;
origin = "{0, 39}";
target = "{0, 22}";
type = Stem;
},
{
horizontal = 1;
origin = "{0, 11}";
target = "{0, 28}";
type = Stem;
}
);
layerId = "EA77C764-8343-414A-A941-E69667BA8F3A";
rightMetricsKey = "=e";
paths = (
{
closed = 1;
nodes = (
"319 -10 OFFCURVE",
"393 63 OFFCURVE",
"413 143 CURVE",
"364 150 LINE",
"390 49 OFFCURVE",
"478 -9 OFFCURVE",
"594 -9 CURVE SMOOTH",
"707 -9 OFFCURVE",
"810 39 OFFCURVE",
"841 124 CURVE",
"649 186 LINE",
"641 162 OFFCURVE",
"623 141 OFFCURVE",
"588 141 CURVE SMOOTH",
"552 141 OFFCURVE",
"525 158 OFFCURVE",
"525 204 CURVE SMOOTH",
"525 266 OFFCURVE",
"541 359 OFFCURVE",
"607 359 CURVE SMOOTH",
"628 359 OFFCURVE",
"647 347 OFFCURVE",
"647 310 CURVE SMOOTH",
"647 304 OFFCURVE",
"647 298 OFFCURVE",
"646 291 CURVE",
"520 291 LINE",
"509 206 LINE",
"855 206 LINE",
"863 233 OFFCURVE",
"865 262 OFFCURVE",
"865 287 CURVE SMOOTH",
"865 418 OFFCURVE",
"773 510 OFFCURVE",
"631 510 CURVE SMOOTH",
"522 510 OFFCURVE",
"468 466 OFFCURVE",
"418 404 CURVE",
"460 387 LINE",
"454 466 OFFCURVE",
"390 510 OFFCURVE",
"280 510 CURVE SMOOTH",
"126 510 OFFCURVE",
"50 436 OFFCURVE",
"35 330 CURVE",
"226 300 LINE",
"232 338 OFFCURVE",
"246 363 OFFCURVE",
"277 363 CURVE SMOOTH",
"309 363 OFFCURVE",
"322 347 OFFCURVE",
"322 319 CURVE SMOOTH",
"322 312 OFFCURVE",
"321 303 OFFCURVE",
"319 293 CURVE SMOOTH",
"288 156 LINE SMOOTH",
"283 132 OFFCURVE",
"267 121 OFFCURVE",
"243 121 CURVE SMOOTH",
"218 121 OFFCURVE",
"204 135 OFFCURVE",
"204 155 CURVE SMOOTH",
"204 183 OFFCURVE",
"223 197 OFFCURVE",
"255 202 CURVE SMOOTH",
"316 211 LINE",
"335 292 LINE",
"165 273 LINE SMOOTH",
"84 264 OFFCURVE",
"2 226 OFFCURVE",
"2 129 CURVE SMOOTH",
"2 41 OFFCURVE",
"71 -10 OFFCURVE",
"173 -10 CURVE SMOOTH"
);
}
);
width = 884;
},
{
anchors = (
{
name = bottom;
position = "{361, 0}";
},
{
name = ogonek;
position = "{647, 0}";
},
{
name = top;
position = "{442, 500}";
}
);
background = {
anchors = (
{
name = bottom;
position = "{361, 0}";
},
{
name = ogonek;
position = "{647, 0}";
},
{
name = top;
position = "{442, 500}";
}
);
paths = (
{
closed = 1;
nodes = (
"278 -10 OFFCURVE",
"355 41 OFFCURVE",
"392 210 CURVE",
"389 207 LINE",
"392 98 OFFCURVE",
"451 -9 OFFCURVE",
"583 -9 CURVE SMOOTH",
"680 -9 OFFCURVE",
"743 41 OFFCURVE",
"783 106 CURVE",
"770 114 LINE",
"732 50 OFFCURVE",
"670 5 OFFCURVE",
"583 5 CURVE SMOOTH",
"461 5 OFFCURVE",
"403 102 OFFCURVE",
"403 217 CURVE SMOOTH",
"403 379 OFFCURVE",
"498 495 OFFCURVE",
"626 495 CURVE SMOOTH",
"729 495 OFFCURVE",
"789 410 OFFCURVE",
"789 303 CURVE SMOOTH",
"789 293 OFFCURVE",
"789 283 OFFCURVE",
"787 274 CURVE",
"402 274 LINE",
"402 260 LINE",
"800 260 LINE",
"803 275 OFFCURVE",
"804 291 OFFCURVE",
"804 306 CURVE SMOOTH",
"804 423 OFFCURVE",
"737 509 OFFCURVE",
"626 509 CURVE SMOOTH",
"523 509 OFFCURVE",
"451 445 OFFCURVE",
"417 362 CURVE",
"421 362 LINE",
"421 455 OFFCURVE",
"359 509 OFFCURVE",
"259 509 CURVE SMOOTH",
"164 509 OFFCURVE",
"113 465 OFFCURVE",
"78 392 CURVE",
"90 385 LINE",
"124 457 OFFCURVE",
"172 495 OFFCURVE",
"259 495 CURVE SMOOTH",
"345 495 OFFCURVE",
"408 450 OFFCURVE",
"408 362 CURVE SMOOTH",
"408 347 OFFCURVE",
"405 329 OFFCURVE",
"401 312 CURVE SMOOTH",
"381 218 LINE SMOOTH",
"347 60 OFFCURVE",
"277 4 OFFCURVE",
"167 4 CURVE SMOOTH",
"92 4 OFFCURVE",
"37 40 OFFCURVE",
"37 111 CURVE SMOOTH",
"37 186 OFFCURVE",
"102 232 OFFCURVE",
"237 245 CURVE SMOOTH",
"399 260 LINE",
"399 274 LINE",
"228 258 LINE SMOOTH",
"89 245 OFFCURVE",
"20 192 OFFCURVE",
"20 110 CURVE SMOOTH",
"20 30 OFFCURVE",
"84 -10 OFFCURVE",
"168 -10 CURVE SMOOTH"
);
}
);
};
guideLines = (
{
angle = 77;
position = "{5, 161}";
}
);
hints = (
{
horizontal = 1;
place = "{-10, 14}";
type = Stem;
},
{
horizontal = 1;
place = "{510, 14}";
type = Stem;
},
{
horizontal = 1;
place = "{-10, 14}";
type = Stem;
},
{
horizontal = 1;
place = "{510, 14}";
type = Stem;
},
{
horizontal = 1;
place = "{-10, 14}";
type = Stem;
},
{
horizontal = 1;
place = "{510, -14}";
type = Stem;
},
{
horizontal = 1;
place = "{218, -20}";
target = down;
type = TopGhost;
}
);
layerId = "F97236B5-7CBD-4FD1-81B0-6670342ADB4E";
paths = (
{
closed = 1;
nodes = (
"278 -10 OFFCURVE",
"355 41 OFFCURVE",
"392 210 CURVE",
"389 207 LINE",
"392 98 OFFCURVE",
"451 -9 OFFCURVE",
"583 -9 CURVE SMOOTH",
"680 -9 OFFCURVE",
"743 41 OFFCURVE",
"783 106 CURVE",
"770 114 LINE",
"732 50 OFFCURVE",
"670 5 OFFCURVE",
"583 5 CURVE SMOOTH",
"461 5 OFFCURVE",
"403 102 OFFCURVE",
"403 217 CURVE SMOOTH",
"403 379 OFFCURVE",
"498 495 OFFCURVE",
"626 495 CURVE SMOOTH",
"729 495 OFFCURVE",
"789 410 OFFCURVE",
"789 303 CURVE SMOOTH",
"789 293 OFFCURVE",
"789 283 OFFCURVE",
"787 274 CURVE",
"402 274 LINE",
"402 260 LINE",
"800 260 LINE",
"803 275 OFFCURVE",
"804 291 OFFCURVE",
"804 306 CURVE SMOOTH",
"804 423 OFFCURVE",
"737 509 OFFCURVE",
"626 509 CURVE SMOOTH",
"523 509 OFFCURVE",
"451 445 OFFCURVE",
"417 362 CURVE",
"421 362 LINE",
"421 455 OFFCURVE",
"359 509 OFFCURVE",
"259 509 CURVE SMOOTH",
"164 509 OFFCURVE",
"113 465 OFFCURVE",
"78 392 CURVE",
"90 385 LINE",
"124 457 OFFCURVE",
"172 495 OFFCURVE",
"259 495 CURVE SMOOTH",
"345 495 OFFCURVE",
"408 450 OFFCURVE",
"408 362 CURVE SMOOTH",
"408 347 OFFCURVE",
"405 329 OFFCURVE",
"401 312 CURVE SMOOTH",
"381 218 LINE SMOOTH",
"347 60 OFFCURVE",
"277 4 OFFCURVE",
"167 4 CURVE SMOOTH",
"92 4 OFFCURVE",
"37 40 OFFCURVE",
"37 111 CURVE SMOOTH",
"37 186 OFFCURVE",
"102 232 OFFCURVE",
"237 245 CURVE SMOOTH",
"399 260 LINE",
"399 274 LINE",
"228 258 LINE SMOOTH",
"89 245 OFFCURVE",
"20 192 OFFCURVE",
"20 110 CURVE SMOOTH",
"20 30 OFFCURVE",
"84 -10 OFFCURVE",
"168 -10 CURVE SMOOTH"
);
}
);
width = 848;
},
{
anchors = (
{
name = bottom;
position = "{366, 0}";
},
{
name = ogonek;
position = "{671, 2}";
},
{
name = top;
position = "{465, 500}";
}
);
associatedMasterId = "DBFAC7D3-9CB2-48DD-9F53-AD59A4BD1301";
background = {
paths = (
{
closed = 1;
nodes = (
"335 -10 OFFCURVE",
"420 53 OFFCURVE",
"434 140 CURVE",
"402 141 LINE",
"432 42 OFFCURVE",
"512 -10 OFFCURVE",
"622 -10 CURVE SMOOTH",
"720 -10 OFFCURVE",
"802 35 OFFCURVE",
"834 114 CURVE",
"724 156 LINE",
"704 116 OFFCURVE",
"674 92 OFFCURVE",
"620 92 CURVE SMOOTH",
"551 92 OFFCURVE",
"499 134 OFFCURVE",
"492 207 CURVE",
"492 207 LINE",
"839 207 LINE",
"841 233 OFFCURVE",
"843 254 OFFCURVE",
"843 277 CURVE SMOOTH",
"843 411 OFFCURVE",
"761 510 OFFCURVE",
"617 510 CURVE SMOOTH",
"529 510 OFFCURVE",
"457 468 OFFCURVE",
"418 397 CURVE",
"461 397 LINE",
"434 473 OFFCURVE",
"363 510 OFFCURVE",
"268 510 CURVE SMOOTH",
"151 510 OFFCURVE",
"61 448 OFFCURVE",
"49 364 CURVE",
"163 328 LINE",
"181 387 OFFCURVE",
"220 410 OFFCURVE",
"268 410 CURVE SMOOTH",
"323 410 OFFCURVE",
"358 376 OFFCURVE",
"358 318 CURVE SMOOTH",
"358 299 LINE",
"182 264 LINE SMOOTH",
"96 247 OFFCURVE",
"45 201 OFFCURVE",
"45 127 CURVE SMOOTH",
"45 37 OFFCURVE",
"114 -10 OFFCURVE",
"218 -10 CURVE SMOOTH"
);
},
{
closed = 1;
nodes = (
"205 87 OFFCURVE",
"185 110 OFFCURVE",
"185 138 CURVE SMOOTH",
"185 171 OFFCURVE",
"203 184 OFFCURVE",
"253 194 CURVE SMOOTH",
"358 216 LINE",
"358 180 LINE SMOOTH",
"358 115 OFFCURVE",
"306 87 OFFCURVE",
"250 87 CURVE SMOOTH"
);
},
{
closed = 1;
nodes = (
"504 370 OFFCURVE",
"546 409 OFFCURVE",
"609 409 CURVE SMOOTH",
"669 409 OFFCURVE",
"709 368 OFFCURVE",
"712 302 CURVE",
"493 302 LINE"
);
}
);
};
color = 6;
hints = (
{
horizontal = 1;
origin = "{0, 39}";
target = "{0, 22}";
type = Stem;
},
{
horizontal = 1;
origin = "{0, 11}";
target = "{0, 28}";
type = Stem;
}
);
layerId = "5FCE1A4A-5D3D-46F8-B40C-619307937B93";
name = "{137}";
paths = (
{
closed = 1;
nodes = (
"322 -10 OFFCURVE",
"401 70 OFFCURVE",
"414 154 CURVE",
"386 155 LINE",
"391 64 OFFCURVE",
"474 -9 OFFCURVE",
"593 -9 CURVE SMOOTH",
"691 -9 OFFCURVE",
"775 34 OFFCURVE",
"814 106 CURVE",
"702 156 LINE",
"681 117 OFFCURVE",
"648 91 OFFCURVE",
"595 91 CURVE SMOOTH",
"529 91 OFFCURVE",
"483 134 OFFCURVE",
"483 207 CURVE SMOOTH",
"483 299 OFFCURVE",
"519 409 OFFCURVE",
"628 409 CURVE SMOOTH",
"675 409 OFFCURVE",
"710 375 OFFCURVE",
"710 316 CURVE SMOOTH",
"710 311 OFFCURVE",
"710 305 OFFCURVE",
"709 300 CURVE",
"478 300 LINE",
"468 206 LINE",
"829 206 LINE",
"838 242 OFFCURVE",
"841 275 OFFCURVE",
"841 306 CURVE SMOOTH",
"841 424 OFFCURVE",
"764 509 OFFCURVE",
"642 509 CURVE SMOOTH",
"543 509 OFFCURVE",
"476 467 OFFCURVE",
"432 405 CURVE",
"456 396 LINE",
"451 460 OFFCURVE",
"386 509 OFFCURVE",
"291 509 CURVE SMOOTH",
"168 509 OFFCURVE",
"92 455 OFFCURVE",
"61 366 CURVE",
"170 329 LINE",
"193 384 OFFCURVE",
"227 411 OFFCURVE",
"284 411 CURVE SMOOTH",
"339 411 OFFCURVE",
"370 380 OFFCURVE",
"370 333 CURVE SMOOTH",
"370 324 OFFCURVE",
"369 314 OFFCURVE",
"367 303 CURVE SMOOTH",
"339 180 LINE SMOOTH",
"325 118 OFFCURVE",
"287 87 OFFCURVE",
"224 87 CURVE SMOOTH",
"178 87 OFFCURVE",
"154 109 OFFCURVE",
"154 141 CURVE SMOOTH",
"154 186 OFFCURVE",
"192 193 OFFCURVE",
"253 201 CURVE SMOOTH",
"377 218 LINE",
"386 300 LINE",
"201 277 LINE SMOOTH",
"104 265 OFFCURVE",
"26 222 OFFCURVE",
"26 129 CURVE SMOOTH",
"26 47 OFFCURVE",
"85 -10 OFFCURVE",
"193 -10 CURVE SMOOTH"
);
}
);
width = 884;
},
{
anchors = (
{
name = bottom;
position = "{364, 0}";
},
{
name = ogonek;
position = "{678, 3}";
},
{
name = top;
position = "{468, 500}";
}
);
associatedMasterId = "DBFAC7D3-9CB2-48DD-9F53-AD59A4BD1301";
background = {
paths = (
{
closed = 1;
nodes = (
"337 -10 OFFCURVE",
"412 57 OFFCURVE",
"428 142 CURVE",
"392 148 LINE",
"420 44 OFFCURVE",
"499 -10 OFFCURVE",
"615 -10 CURVE SMOOTH",
"718 -10 OFFCURVE",
"806 36 OFFCURVE",
"835 122 CURVE",
"698 167 LINE",
"683 131 OFFCURVE",
"660 110 OFFCURVE",
"613 110 CURVE SMOOTH",
"555 110 OFFCURVE",
"511 141 OFFCURVE",
"503 207 CURVE",
"503 207 LINE",
"840 207 LINE",
"842 228 OFFCURVE",
"844 250 OFFCURVE",
"844 273 CURVE SMOOTH",
"844 411 OFFCURVE",
"761 510 OFFCURVE",
"610 510 CURVE SMOOTH",
"522 510 OFFCURVE",
"450 468 OFFCURVE",
"410 397 CURVE",
"465 399 LINE",
"447 474 OFFCURVE",
"374 510 OFFCURVE",
"265 510 CURVE SMOOTH",
"137 510 OFFCURVE",
"45 441 OFFCURVE",
"34 352 CURVE",
"179 318 LINE",
"192 374 OFFCURVE",
"224 393 OFFCURVE",
"264 393 CURVE SMOOTH",
"311 393 OFFCURVE",
"339 364 OFFCURVE",
"339 315 CURVE SMOOTH",
"339 302 LINE",
"169 268 LINE SMOOTH",
"83 251 OFFCURVE",
"32 201 OFFCURVE",
"32 128 CURVE SMOOTH",
"32 38 OFFCURVE",
"97 -10 OFFCURVE",
"208 -10 CURVE SMOOTH"
);
},
{
closed = 1;
nodes = (
"218 99 OFFCURVE",
"199 119 OFFCURVE",
"199 144 CURVE SMOOTH",
"199 176 OFFCURVE",
"216 188 OFFCURVE",
"257 197 CURVE SMOOTH",
"339 215 LINE",
"339 186 LINE SMOOTH",
"339 130 OFFCURVE",
"298 99 OFFCURVE",
"254 99 CURVE SMOOTH"
);
},
{
closed = 1;
nodes = (
"513 360 OFFCURVE",
"546 391 OFFCURVE",
"599 391 CURVE SMOOTH",
"649 391 OFFCURVE",
"680 356 OFFCURVE",
"683 298 CURVE",
"503 298 LINE"
);
}
);
};
color = 6;
hints = (
{
horizontal = 1;
origin = "{0, 39}";
target = "{0, 22}";
type = Stem;
},
{
horizontal = 1;
origin = "{0, 11}";
target = "{0, 28}";
type = Stem;
}
);
layerId = "CA24DBCA-2BFE-463B-B689-0732378DABA2";
name = "{170}";
paths = (
{
closed = 1;
nodes = (
"321 -10 OFFCURVE",
"398 67 OFFCURVE",
"414 150 CURVE",
"378 153 LINE",
"391 59 OFFCURVE",
"476 -9 OFFCURVE",
"593 -9 CURVE SMOOTH",
"697 -9 OFFCURVE",
"787 36 OFFCURVE",
"823 112 CURVE",
"683 166 LINE",
"667 133 OFFCURVE",
"639 109 OFFCURVE",
"592 109 CURVE SMOOTH",
"537 109 OFFCURVE",
"498 143 OFFCURVE",
"498 206 CURVE SMOOTH",
"498 287 OFFCURVE",
"527 391 OFFCURVE",
"621 391 CURVE SMOOTH",
"658 391 OFFCURVE",
"688 366 OFFCURVE",
"688 318 CURVE SMOOTH",
"688 312 OFFCURVE",
"688 306 OFFCURVE",
"687 299 CURVE",
"493 299 LINE",
"483 206 LINE",
"838 206 LINE",
"847 237 OFFCURVE",
"850 270 OFFCURVE",
"850 299 CURVE SMOOTH",
"850 422 OFFCURVE",
"767 510 OFFCURVE",
"638 510 CURVE SMOOTH",
"536 510 OFFCURVE",
"473 467 OFFCURVE",
"427 404 CURVE",
"458 393 LINE",
"452 462 OFFCURVE",
"388 510 OFFCURVE",
"287 510 CURVE SMOOTH",
"153 510 OFFCURVE",
"77 448 OFFCURVE",
"52 353 CURVE",
"190 319 LINE",
"207 368 OFFCURVE",
"234 394 OFFCURVE",
"282 394 CURVE SMOOTH",
"328 394 OFFCURVE",
"353 369 OFFCURVE",
"353 328 CURVE SMOOTH",
"353 320 OFFCURVE",
"352 310 OFFCURVE",
"350 299 CURVE SMOOTH",
"321 171 LINE SMOOTH",
"310 123 OFFCURVE",
"280 99 OFFCURVE",
"231 99 CURVE SMOOTH",
"192 99 OFFCURVE",
"172 115 OFFCURVE",
"172 146 CURVE SMOOTH",
"172 185 OFFCURVE",
"203 193 OFFCURVE",
"253 200 CURVE SMOOTH",
"355 214 LINE",
"368 302 LINE",
"188 280 LINE SMOOTH",
"97 269 OFFCURVE",
"18 223 OFFCURVE",
"18 129 CURVE SMOOTH",
"18 45 OFFCURVE",
"80 -10 OFFCURVE",
"186 -10 CURVE SMOOTH"
);
}
);
width = 884;
}
);
leftKerningGroup = a;
rightKerningGroup = e;
rightMetricsKey = "=e";
unicode = 00E6;
},
{
glyphname = b;
layers = (
{
anchors = (
{
name = bottom;
position = "{260, 0}";
},
{
name = ogonek;
position = "{387, 5}";
},
{
name = top;
position = "{233, 700}";
}
);
background = {
anchors = (
{
name = bottom;
position = "{260, 0}";
},
{
name = ogonek;
position = "{387, 5}";
},
{
name = top;
position = "{233, 700}";
}
);
paths = (
{
closed = 1;
nodes = (
"451 -10 OFFCURVE",
"561 119 OFFCURVE",
"561 286 CURVE SMOOTH",
"561 427 OFFCURVE",
"480 508 OFFCURVE",
"372 508 CURVE SMOOTH",
"291 508 OFFCURVE",
"222 460 OFFCURVE",
"196 397 CURVE",
"201 391 LINE",
"280 730 LINE",
"200 730 LINE",
"31 0 LINE",
"111 0 LINE",
"145 147 LINE",
"134 135 LINE",
"139 58 OFFCURVE",
"203 -10 OFFCURVE",
"306 -10 CURVE SMOOTH"
);
},
{
closed = 1;
nodes = (
"216 59 OFFCURVE",
"169 118 OFFCURVE",
"169 205 CURVE SMOOTH",
"169 341 OFFCURVE",
"243 439 OFFCURVE",
"349 439 CURVE SMOOTH",
"425 439 OFFCURVE",
"482 389 OFFCURVE",
"482 288 CURVE SMOOTH",
"482 155 OFFCURVE",
"402 59 OFFCURVE",
"305 59 CURVE SMOOTH"
);
}
);
};
layerId = "DBFAC7D3-9CB2-48DD-9F53-AD59A4BD1301";
paths = (
{
closed = 1;
nodes = (
"301 508 OFFCURVE",
"239 471 OFFCURVE",
"208 420 CURVE",
"280 730 LINE",
"200 730 LINE",
"31 0 LINE",
"111 0 LINE",
"137 113 LINE",
"152 45 OFFCURVE",
"213 -10 OFFCURVE",
"306 -10 CURVE SMOOTH",
"451 -10 OFFCURVE",
"561 119 OFFCURVE",
"561 286 CURVE SMOOTH",
"561 427 OFFCURVE",
"480 508 OFFCURVE",
"372 508 CURVE SMOOTH"
);
},
{
closed = 1;
nodes = (
"216 59 OFFCURVE",
"169 118 OFFCURVE",
"169 205 CURVE SMOOTH",
"169 341 OFFCURVE",
"243 439 OFFCURVE",
"349 439 CURVE SMOOTH",
"425 439 OFFCURVE",
"482 389 OFFCURVE",
"482 288 CURVE SMOOTH",
"482 155 OFFCURVE",
"402 59 OFFCURVE",
"305 59 CURVE SMOOTH"
);
}
);
width = 616;
},
{
anchors = (
{
name = bottom;
position = "{260, 0}";
},
{
name = bottomC;
position = "{260, 0}";
},
{
name = ogonek;
position = "{387, 17}";
},
{
name = top;
position = "{233, 700}";
}
);
associatedMasterId = "DBFAC7D3-9CB2-48DD-9F53-AD59A4BD1301";
background = {
anchors = (
{
name = bottom;
position = "{260, 0}";
},
{
name = bottomC;
position = "{260, 0}";
},
{
name = ogonek;
position = "{387, 17}";
},
{
name = top;
position = "{233, 700}";
}
);
paths = (
{
closed = 1;
nodes = (
"291 508 OFFCURVE",
"222 460 OFFCURVE",
"196 397 CURVE",
"201 391 LINE",
"280 730 LINE",
"200 730 LINE",
"31 0 LINE",
"111 0 LINE",
"137 114 LINE",
"151 46 OFFCURVE",
"212 -10 OFFCURVE",
"306 -10 CURVE SMOOTH",
"451 -10 OFFCURVE",
"561 119 OFFCURVE",
"561 286 CURVE SMOOTH",
"561 427 OFFCURVE",
"474 508 OFFCURVE",
"373 508 CURVE SMOOTH"
);
},
{
closed = 1;
nodes = (
"425 439 OFFCURVE",
"482 389 OFFCURVE",
"482 288 CURVE SMOOTH",
"482 155 OFFCURVE",
"402 59 OFFCURVE",
"305 59 CURVE SMOOTH",
"216 59 OFFCURVE",
"169 118 OFFCURVE",
"169 205 CURVE SMOOTH",
"169 341 OFFCURVE",
"243 439 OFFCURVE",
"349 439 CURVE SMOOTH"
);
}
);
};
color = 5;
layerId = "B012002F-C5D8-4EF6-8679-5FA56821E693";
rightMetricsKey = "=o";
name = "Sep 11 18, 12:29";
paths = (
{
closed = 1;
nodes = (
"291 508 OFFCURVE",
"222 460 OFFCURVE",
"196 397 CURVE",
"201 391 LINE",
"280 730 LINE",
"200 730 LINE",
"31 0 LINE",
"111 0 LINE",
"137 114 LINE",
"151 46 OFFCURVE",
"212 -10 OFFCURVE",
"306 -10 CURVE SMOOTH",
"451 -10 OFFCURVE",
"561 119 OFFCURVE",
"561 286 CURVE SMOOTH",
"561 427 OFFCURVE",
"474 508 OFFCURVE",
"373 508 CURVE SMOOTH"
);
},
{
closed = 1;
nodes = (
"425 439 OFFCURVE",
"482 389 OFFCURVE",
"482 288 CURVE SMOOTH",
"482 155 OFFCURVE",
"402 59 OFFCURVE",
"305 59 CURVE SMOOTH",
"216 59 OFFCURVE",
"169 118 OFFCURVE",
"169 205 CURVE SMOOTH",
"169 341 OFFCURVE",
"243 439 OFFCURVE",
"349 439 CURVE SMOOTH"
);
}
);
width = 617;
},
{
anchors = (
{
name = bottom;
position = "{258, 0}";
},
{
name = ogonek;
position = "{442, 0}";
},
{
name = top;
position = "{257, 700}";
}
);
background = {
anchors = (
{
name = bottom;
position = "{258, 0}";
},
{
name = ogonek;
position = "{442, 0}";
},
{
name = top;
position = "{257, 700}";
}
);
paths = (
{
closed = 1;
nodes = (
"520 -10 OFFCURVE",
"604 169 OFFCURVE",
"604 325 CURVE SMOOTH",
"604 448 OFFCURVE",
"545 510 OFFCURVE",
"456 510 CURVE SMOOTH",
"363 510 OFFCURVE",
"292 436 OFFCURVE",
"271 317 CURVE",
"283 313 LINE",
"372 700 LINE",
"142 700 LINE",
"-20 0 LINE",
"202 0 LINE",
"255 187 LINE",
"226 138 LINE",
"226 21 OFFCURVE",
"308 -10 OFFCURVE",
"378 -10 CURVE SMOOTH"
);
},
{
closed = 1;
nodes = (
"274 153 OFFCURVE",
"261 172 OFFCURVE",
"261 205 CURVE SMOOTH",
"261 257 OFFCURVE",
"286 348 OFFCURVE",
"335 348 CURVE SMOOTH",
"365 348 OFFCURVE",
"377 326 OFFCURVE",
"377 291 CURVE SMOOTH",
"377 250 OFFCURVE",
"355 153 OFFCURVE",
"300 153 CURVE SMOOTH"
);
}
);
};
layerId = "EA77C764-8343-414A-A941-E69667BA8F3A";
leftMetricsKey = "=n";
paths = (
{
closed = 1;
nodes = (
"394 510 OFFCURVE",
"342 477 OFFCURVE",
"308 420 CURVE",
"372 700 LINE",
"142 700 LINE",
"-20 0 LINE",
"202 0 LINE",
"230 98 LINE",
"246 14 OFFCURVE",
"317 -10 OFFCURVE",
"378 -10 CURVE SMOOTH",
"520 -10 OFFCURVE",
"604 169 OFFCURVE",
"604 325 CURVE SMOOTH",
"604 448 OFFCURVE",
"545 510 OFFCURVE",
"456 510 CURVE SMOOTH"
);
},
{
closed = 1;
nodes = (
"274 153 OFFCURVE",
"261 172 OFFCURVE",
"261 205 CURVE SMOOTH",
"261 257 OFFCURVE",
"286 348 OFFCURVE",
"335 348 CURVE SMOOTH",
"365 348 OFFCURVE",
"377 326 OFFCURVE",
"377 291 CURVE SMOOTH",
"377 250 OFFCURVE",
"355 153 OFFCURVE",
"300 153 CURVE SMOOTH"
);
}
);
width = 619;
},
{
anchors = (
{
name = bottom;
position = "{317, 0}";
},
{
name = bottomC;
position = "{441, 0}";
},
{
name = ogonek;
position = "{493, 10}";
},
{
name = top;
position = "{154, 700}";
}
);
associatedMasterId = "EA77C764-8343-414A-A941-E69667BA8F3A";
background = {
anchors = (
{
name = bottom;
position = "{317, 0}";
},
{
name = bottomC;
position = "{441, 0}";
},
{
name = ogonek;
position = "{493, 10}";
},
{
name = top;
position = "{154, 700}";
}
);
components = (
{
name = bowl;
transform = "{-1, 0, 0, 1, 682, 0}";
}
);
paths = (
{
closed = 1;
nodes = (
"39 700 LINE",
"39 219 LINE",
"39 0 LINE",
"241 0 LINE",
"249 162 LINE",
"269 219 LINE",
"269 700 LINE"
);
}
);
};
components = (
{
name = bowl;
transform = "{-1, 0, 0, 1, 682, 0}";
}
);
layerId = "9FCCE1AF-45CC-4AC1-82E0-65BEEFE8838A";
leftMetricsKey = "=n";
rightMetricsKey = "=o+5";
name = "Sep 11 18, 12:29";
paths = (
{
closed = 1;
nodes = (
"39 700 LINE",
"39 219 LINE",
"39 0 LINE",
"241 0 LINE",
"249 162 LINE",
"269 219 LINE",
"269 700 LINE"
);
}
);
width = 627;
},
{
anchors = (
{
name = bottom;
position = "{238, 0}";
},
{
name = ogonek;
position = "{360, 21}";
},
{
name = top;
position = "{190, 680}";
}
);
background = {
anchors = (
{
name = bottom;
position = "{238, 0}";
},
{
name = ogonek;
position = "{360, 21}";
},
{
name = top;
position = "{190, 680}";
}
);
paths = (
{
closed = 1;
nodes = (
"444 -10 OFFCURVE",
"534 126 OFFCURVE",
"534 285 CURVE SMOOTH",
"534 411 OFFCURVE",
"462 510 OFFCURVE",
"336 510 CURVE SMOOTH",
"235 510 OFFCURVE",
"150 452 OFFCURVE",
"117 350 CURVE",
"121 341 LINE",
"211 730 LINE",
"195 730 LINE",
"27 0 LINE",
"43 0 LINE",
"100 248 LINE",
"88 218 LINE",
"83 86 OFFCURVE",
"157 -10 OFFCURVE",
"292 -10 CURVE SMOOTH"
);
},
{
closed = 1;
nodes = (
"179 4 OFFCURVE",
"103 80 OFFCURVE",
"103 203 CURVE SMOOTH",
"103 369 OFFCURVE",
"189 496 OFFCURVE",
"335 496 CURVE SMOOTH",
"439 496 OFFCURVE",
"518 415 OFFCURVE",
"518 286 CURVE SMOOTH",
"518 127 OFFCURVE",
"428 4 OFFCURVE",
"293 4 CURVE SMOOTH"
);
}
);
};
layerId = "F97236B5-7CBD-4FD1-81B0-6670342ADB4E";
rightMetricsKey = "=p";
paths = (
{
closed = 1;
nodes = (
"247 510 OFFCURVE",
"171 465 OFFCURVE",
"131 385 CURVE",
"211 730 LINE",
"195 730 LINE",
"27 0 LINE",
"43 0 LINE",
"88 195 LINE",
"92 75 OFFCURVE",
"165 -10 OFFCURVE",
"292 -10 CURVE SMOOTH",
"444 -10 OFFCURVE",
"534 126 OFFCURVE",
"534 285 CURVE SMOOTH",
"534 411 OFFCURVE",
"462 510 OFFCURVE",
"336 510 CURVE SMOOTH"
);
},
{
closed = 1;
nodes = (
"179 4 OFFCURVE",
"103 80 OFFCURVE",
"103 203 CURVE SMOOTH",
"103 369 OFFCURVE",
"189 496 OFFCURVE",
"335 496 CURVE SMOOTH",
"439 496 OFFCURVE",
"518 415 OFFCURVE",
"518 286 CURVE SMOOTH",
"518 127 OFFCURVE",
"428 4 OFFCURVE",
"293 4 CURVE SMOOTH"
);
}
);
width = 582;
},
{
anchors = (
{
name = bottom;
position = "{302, 0}";
},
{
name = bottomC;
position = "{302, 0}";
},
{
name = ogonek;
position = "{422, 21}";
},
{
name = top;
position = "{93, 680}";
}
);
associatedMasterId = "F97236B5-7CBD-4FD1-81B0-6670342ADB4E";
background = {
anchors = (
{
name = bottom;
position = "{302, 0}";
},
{
name = bottomC;
position = "{302, 0}";
},
{
name = ogonek;
position = "{422, 21}";
},
{
name = top;
position = "{93, 680}";
}
);
components = (
{
alignment = -1;
name = bowl;
transform = "{-1, 0, 0, 1, 658, 0}";
}
);
paths = (
{
closed = 1;
nodes = (
"85 730 LINE",
"85 101 LINE",
"85 0 LINE",
"101 0 LINE",
"101 173 LINE",
"101 176 LINE",
"101 730 LINE"
);
}
);
};
components = (
{
alignment = -1;
name = bowl;
transform = "{-1, 0, 0, 1, 658, 0}";
}
);
layerId = "02B8E596-D437-468A-B554-61BDDD378C3D";
name = "Sep 11 18, 12:29";
paths = (
{
closed = 1;
nodes = (
"85 730 LINE",
"85 101 LINE",
"85 0 LINE",
"101 0 LINE",
"101 173 LINE",
"101 176 LINE",
"101 730 LINE"
);
}
);
width = 585;
},
{
anchors = (
{
name = bottom;
position = "{302, 0}";
},
{
name = bottomC;
position = "{302, 0}";
},
{
name = ogonek;
position = "{422, 21}";
},
{
name = top;
position = "{93, 680}";
}
);
associatedMasterId = "F97236B5-7CBD-4FD1-81B0-6670342ADB4E";
background = {
anchors = (
{
name = bottom;
position = "{302, 0}";
},
{
name = bottomC;
position = "{302, 0}";
},
{
name = ogonek;
position = "{422, 21}";
},
{
name = top;
position = "{93, 680}";
}
);
components = (
{
alignment = -1;
name = bowl;
transform = "{-1, 0, 0, 1, 658, 0}";
}
);
paths = (
{
closed = 1;
nodes = (
"85 730 LINE",
"85 101 LINE",
"85 0 LINE",
"101 0 LINE",
"101 173 LINE",
"101 176 LINE",
"101 730 LINE"
);
}
);
};
components = (
{
alignment = -1;
name = bowl;
transform = "{-1, 0, 0, 1, 658, 0}";
}
);
layerId = "C08C24F8-FC6F-4739-B6E2-54E32AA40A93";
name = "Sep 11 18, 12:43";
paths = (
{
closed = 1;
nodes = (
"85 730 LINE",
"85 0 LINE",
"101 0 LINE",
"101 730 LINE"
);
}
);
width = 585;
},
{
anchors = (
{
name = bottom;
position = "{238, 0}";
},
{
name = ogonek;
position = "{360, 21}";
},
{
name = top;
position = "{190, 680}";
}
);
associatedMasterId = "F97236B5-7CBD-4FD1-81B0-6670342ADB4E";
background = {
anchors = (
{
name = bottom;
position = "{238, 0}";
},
{
name = ogonek;
position = "{360, 21}";
},
{
name = top;
position = "{190, 680}";
}
);
paths = (
{
closed = 1;
nodes = (
"440 -10 OFFCURVE",
"534 121 OFFCURVE",
"534 285 CURVE SMOOTH",
"534 411 OFFCURVE",
"463 510 OFFCURVE",
"326 510 CURVE SMOOTH",
"227 510 OFFCURVE",
"158 451 OFFCURVE",
"124 379 CURVE",
"121 341 LINE",
"212 730 LINE",
"195 730 LINE",
"27 0 LINE",
"43 0 LINE",
"100 248 LINE",
"96 260 LINE",
"93 238 OFFCURVE",
"90 217 OFFCURVE",
"90 197 CURVE SMOOTH",
"90 57 OFFCURVE",
"181 -10 OFFCURVE",
"285 -10 CURVE SMOOTH"
);
},
{
closed = 1;
nodes = (
"192 4 OFFCURVE",
"103 60 OFFCURVE",
"103 210 CURVE SMOOTH",
"103 376 OFFCURVE",
"192 496 OFFCURVE",
"322 496 CURVE SMOOTH",
"436 496 OFFCURVE",
"518 415 OFFCURVE",
"518 286 CURVE SMOOTH",
"518 122 OFFCURVE",
"422 4 OFFCURVE",
"286 4 CURVE SMOOTH"
);
}
);
};
color = 5;
layerId = "1FE55CC0-9F80-4F7B-9DB8-8D580A993E00";
name = "Nov 5 18, 10:41";
paths = (
{
closed = 1;
nodes = (
"440 -10 OFFCURVE",
"534 121 OFFCURVE",
"534 285 CURVE SMOOTH",
"534 411 OFFCURVE",
"463 510 OFFCURVE",
"326 510 CURVE SMOOTH",
"227 510 OFFCURVE",
"158 451 OFFCURVE",
"124 379 CURVE",
"121 341 LINE",
"212 730 LINE",
"195 730 LINE",
"27 0 LINE",
"43 0 LINE",
"100 248 LINE",
"97 260 LINE",
"67 123 OFFCURVE",
"131 -10 OFFCURVE",
"285 -10 CURVE SMOOTH"
);
},
{
closed = 1;
nodes = (
"192 4 OFFCURVE",
"103 60 OFFCURVE",
"103 210 CURVE SMOOTH",
"103 376 OFFCURVE",
"192 496 OFFCURVE",
"322 496 CURVE SMOOTH",
"436 496 OFFCURVE",
"518 415 OFFCURVE",
"518 286 CURVE SMOOTH",
"518 122 OFFCURVE",
"422 4 OFFCURVE",
"286 4 CURVE SMOOTH"
);
}
);
width = 573;
}
);
leftKerningGroup = h;
leftMetricsKey = n;
rightKerningGroup = o;
rightMetricsKey = p;
unicode = 0062;
},
{
glyphname = c;
layers = (
{
anchors = (
{
name = bottom;
position = "{235, 0}";
},
{
name = ogonek;
position = "{357, 17}";
},
{
name = top;
position = "{324, 500}";
}
);
layerId = "DBFAC7D3-9CB2-48DD-9F53-AD59A4BD1301";
paths = (
{
closed = 1;
nodes = (
"371 -9 OFFCURVE",
"450 34 OFFCURVE",
"485 111 CURVE",
"407 139 LINE",
"388 87 OFFCURVE",
"337 60 OFFCURVE",
"285 60 CURVE SMOOTH",
"189 60 OFFCURVE",
"138 130 OFFCURVE",
"138 218 CURVE SMOOTH",
"138 351 OFFCURVE",
"213 440 OFFCURVE",
"315 440 CURVE SMOOTH",
"393 440 OFFCURVE",
"433 393 OFFCURVE",
"439 335 CURVE",
"523 355 LINE",
"505 443 OFFCURVE",
"432 509 OFFCURVE",
"319 509 CURVE SMOOTH",
"162 509 OFFCURVE",
"57 388 OFFCURVE",
"57 217 CURVE SMOOTH",
"57 92 OFFCURVE",
"138 -9 OFFCURVE",
"277 -9 CURVE SMOOTH"
);
}
);
width = 538;
},
{
anchors = (
{
name = bottom;
position = "{240, 0}";
},
{
name = bottomC;
position = "{257, 0}";
},
{
name = ogonek;
position = "{368, 10}";
},
{
name = top;
position = "{356, 500}";
}
);
associatedMasterId = "EA77C764-8343-414A-A941-E69667BA8F3A";
background = {
paths = (
{
closed = 1;
nodes = (
"191 510 OFFCURVE",
"58 416 OFFCURVE",
"20 250 CURVE SMOOTH",
"-18 84 OFFCURVE",
"68 -10 OFFCURVE",
"249 -10 CURVE SMOOTH",
"401 -10 OFFCURVE",
"513 63 OFFCURVE",
"535 147 CURVE",
"344 211 LINE",
"331 168 OFFCURVE",
"313 145 OFFCURVE",
"284 145 CURVE SMOOTH",
"251 145 OFFCURVE",
"230 161 OFFCURVE",
"250 247 CURVE SMOOTH",
"269 330 OFFCURVE",
"291 355 OFFCURVE",
"331 355 CURVE SMOOTH",
"359 355 OFFCURVE",
"370 331 OFFCURVE",
"355 278 CURVE",
"582 340 LINE",
"598 421 OFFCURVE",
"541 510 OFFCURVE",
"357 510 CURVE SMOOTH"
);
}
);
};
color = 5;
layerId = "EA4A7343-740B-4E60-9229-61F785C2BBD8";
leftMetricsKey = "=o";
name = "Sep 14 18, 20:24";
paths = (
{
closed = 1;
nodes = (
"579 337 LINE",
"576 444 OFFCURVE",
"463 510 OFFCURVE",
"332 510 CURVE SMOOTH",
"135 510 OFFCURVE",
"21 397 OFFCURVE",
"21 229 CURVE SMOOTH",
"21 81 OFFCURVE",
"132 -10 OFFCURVE",
"292 -10 CURVE SMOOTH",
"430 -10 OFFCURVE",
"530 46 OFFCURVE",
"549 144 CURVE",
"346 210 LINE",
"336 173 OFFCURVE",
"317 144 OFFCURVE",
"288 144 CURVE SMOOTH",
"262 144 OFFCURVE",
"246 158 OFFCURVE",
"246 193 CURVE SMOOTH",
"246 251 OFFCURVE",
"274 356 OFFCURVE",
"331 356 CURVE SMOOTH",
"366 356 OFFCURVE",
"373 325 OFFCURVE",
"361 280 CURVE"
);
}
);
width = 582;
},
{
anchors = (
{
name = bottom;
position = "{263, 3}";
},
{
name = ogonek;
position = "{367, 10}";
},
{
name = top;
position = "{355, 500}";
}
);
layerId = "EA77C764-8343-414A-A941-E69667BA8F3A";
leftMetricsKey = "=o";
paths = (
{
closed = 1;
nodes = (
"417 -10 OFFCURVE",
"507 49 OFFCURVE",
"547 141 CURVE",
"346 204 LINE",
"336 169 OFFCURVE",
"314 144 OFFCURVE",
"288 144 CURVE SMOOTH",
"262 144 OFFCURVE",
"242 156 OFFCURVE",
"242 193 CURVE SMOOTH",
"242 249 OFFCURVE",
"268 354 OFFCURVE",
"323 354 CURVE SMOOTH",
"362 354 OFFCURVE",
"368 326 OFFCURVE",
"359 278 CURVE",
"575 308 LINE",
"581 433 OFFCURVE",
"476 510 OFFCURVE",
"323 510 CURVE SMOOTH",
"121 510 OFFCURVE",
"19 373 OFFCURVE",
"19 218 CURVE SMOOTH",
"19 81 OFFCURVE",
"121 -10 OFFCURVE",
"292 -10 CURVE SMOOTH"
);
}
);
width = 579;
},
{
anchors = (
{
name = bottom;
position = "{240, 0}";
},
{
name = bottomC;
position = "{257, 0}";
},
{
name = ogonek;
position = "{368, 10}";
},
{
name = top;
position = "{356, 500}";
}
);
associatedMasterId = "EA77C764-8343-414A-A941-E69667BA8F3A";
background = {
paths = (
{
closed = 1;
nodes = (
"191 510 OFFCURVE",
"58 416 OFFCURVE",
"20 250 CURVE SMOOTH",
"-18 84 OFFCURVE",
"68 -10 OFFCURVE",
"249 -10 CURVE SMOOTH",
"401 -10 OFFCURVE",
"513 63 OFFCURVE",
"535 147 CURVE",
"344 211 LINE",
"331 168 OFFCURVE",
"313 145 OFFCURVE",
"284 145 CURVE SMOOTH",
"251 145 OFFCURVE",
"230 161 OFFCURVE",
"250 247 CURVE SMOOTH",
"269 330 OFFCURVE",
"291 355 OFFCURVE",
"331 355 CURVE SMOOTH",
"359 355 OFFCURVE",
"370 331 OFFCURVE",
"355 278 CURVE",
"582 340 LINE",
"598 421 OFFCURVE",
"541 510 OFFCURVE",
"357 510 CURVE SMOOTH"
);
}
);
};
color = 5;
layerId = "2F798955-B6F6-406E-9CD7-40B6A648DBFC";
leftMetricsKey = "=o";
name = "Sep 14 18, 20:33";
paths = (
{
closed = 1;
nodes = (
"346 210 LINE",
"336 173 OFFCURVE",
"317 144 OFFCURVE",
"288 144 CURVE SMOOTH",
"262 144 OFFCURVE",
"246 158 OFFCURVE",
"246 193 CURVE SMOOTH",
"246 251 OFFCURVE",
"274 356 OFFCURVE",
"331 356 CURVE SMOOTH",
"356 356 OFFCURVE",
"367 340 OFFCURVE",
"367 314 CURVE SMOOTH",
"367 302 OFFCURVE",
"364 288 OFFCURVE",
"360 275 CURVE",
"577 311 LINE",
"578 318 OFFCURVE",
"578 326 OFFCURVE",
"578 333 CURVE SMOOTH",
"578 444 OFFCURVE",
"464 510 OFFCURVE",
"332 510 CURVE SMOOTH",
"135 510 OFFCURVE",
"21 397 OFFCURVE",
"21 229 CURVE SMOOTH",
"21 81 OFFCURVE",
"132 -10 OFFCURVE",
"292 -10 CURVE SMOOTH",
"430 -10 OFFCURVE",
"530 46 OFFCURVE",
"549 144 CURVE"
);
}
);
width = 582;
},
{
anchors = (
{
name = bottom;
position = "{239, 0}";
},
{
name = bottomC;
position = "{256, 0}";
},
{
name = ogonek;
position = "{367, 10}";
},
{
name = top;
position = "{355, 500}";
}
);
associatedMasterId = "EA77C764-8343-414A-A941-E69667BA8F3A";
background = {
paths = (
{
closed = 1;
nodes = (
"190 510 OFFCURVE",
"57 416 OFFCURVE",
"19 250 CURVE SMOOTH",
"-19 84 OFFCURVE",
"67 -10 OFFCURVE",
"248 -10 CURVE SMOOTH",
"400 -10 OFFCURVE",
"512 63 OFFCURVE",
"534 147 CURVE",
"343 211 LINE",
"330 168 OFFCURVE",
"312 145 OFFCURVE",
"283 145 CURVE SMOOTH",
"250 145 OFFCURVE",
"229 161 OFFCURVE",
"249 247 CURVE SMOOTH",
"268 330 OFFCURVE",
"290 355 OFFCURVE",
"330 355 CURVE SMOOTH",
"358 355 OFFCURVE",
"369 331 OFFCURVE",
"354 278 CURVE",
"581 340 LINE",
"597 421 OFFCURVE",
"540 510 OFFCURVE",
"356 510 CURVE SMOOTH"
);
}
);
};
color = 5;
layerId = "C7E33F1B-D17F-489C-B5A4-53EF5684496A";
leftMetricsKey = "=o";
name = "Sep 16 18, 14:39";
paths = (
{
closed = 1;
nodes = (
"345 210 LINE",
"335 173 OFFCURVE",
"316 144 OFFCURVE",
"287 144 CURVE SMOOTH",
"261 144 OFFCURVE",
"245 158 OFFCURVE",
"245 193 CURVE SMOOTH",
"245 251 OFFCURVE",
"273 356 OFFCURVE",
"330 356 CURVE SMOOTH",
"355 356 OFFCURVE",
"366 340 OFFCURVE",
"366 314 CURVE SMOOTH",
"366 302 OFFCURVE",
"363 288 OFFCURVE",
"359 275 CURVE",
"576 308 LINE",
"577 315 OFFCURVE",
"577 323 OFFCURVE",
"577 330 CURVE SMOOTH",
"577 446 OFFCURVE",
"452 510 OFFCURVE",
"323 510 CURVE SMOOTH",
"134 510 OFFCURVE",
"20 392 OFFCURVE",
"20 226 CURVE SMOOTH",
"20 81 OFFCURVE",
"125 -10 OFFCURVE",
"301 -10 CURVE SMOOTH",
"433 -10 OFFCURVE",
"520 48 OFFCURVE",
"548 144 CURVE"
);
}
);
width = 581;
},
{
anchors = (
{
name = bottom;
position = "{239, 0}";
},
{
name = bottomC;
position = "{256, 0}";
},
{
name = ogonek;
position = "{367, 10}";
},
{
name = top;
position = "{355, 500}";
}
);
associatedMasterId = "EA77C764-8343-414A-A941-E69667BA8F3A";
background = {
paths = (
{
closed = 1;
nodes = (
"345 210 LINE",
"335 173 OFFCURVE",
"316 144 OFFCURVE",
"287 144 CURVE SMOOTH",
"261 144 OFFCURVE",
"245 158 OFFCURVE",
"245 193 CURVE SMOOTH",
"245 251 OFFCURVE",
"273 356 OFFCURVE",
"330 356 CURVE SMOOTH",
"355 356 OFFCURVE",
"366 340 OFFCURVE",
"366 314 CURVE SMOOTH",
"366 302 OFFCURVE",
"363 288 OFFCURVE",
"359 275 CURVE",
"576 308 LINE",
"577 315 OFFCURVE",
"577 323 OFFCURVE",
"577 330 CURVE SMOOTH",
"577 446 OFFCURVE",
"452 510 OFFCURVE",
"323 510 CURVE SMOOTH",
"134 510 OFFCURVE",
"20 392 OFFCURVE",
"20 226 CURVE SMOOTH",
"20 81 OFFCURVE",
"125 -10 OFFCURVE",
"301 -10 CURVE SMOOTH",
"433 -10 OFFCURVE",
"520 48 OFFCURVE",
"548 144 CURVE"
);
}
);
};
color = 5;
layerId = "EC585C1D-2353-4B12-94B9-A1402CF5D71D";
leftMetricsKey = "=o";
name = "Sep 16 18, 16:58";
paths = (
{
closed = 1;
nodes = (
"345 210 LINE",
"335 173 OFFCURVE",
"316 144 OFFCURVE",
"287 144 CURVE SMOOTH",
"261 144 OFFCURVE",
"245 158 OFFCURVE",
"245 193 CURVE SMOOTH",
"245 251 OFFCURVE",
"273 356 OFFCURVE",
"330 356 CURVE SMOOTH",
"355 356 OFFCURVE",
"366 343 OFFCURVE",
"366 314 CURVE SMOOTH",
"366 303 OFFCURVE",
"363 290 OFFCURVE",
"360 278 CURVE",
"576 308 LINE",
"577 315 OFFCURVE",
"577 323 OFFCURVE",
"577 330 CURVE SMOOTH",
"577 439 OFFCURVE",
"459 511 OFFCURVE",
"331 511 CURVE SMOOTH",
"149 511 OFFCURVE",
"20 404 OFFCURVE",
"20 220 CURVE SMOOTH",
"20 72 OFFCURVE",
"120 -10 OFFCURVE",
"296 -10 CURVE SMOOTH",
"428 -10 OFFCURVE",
"520 48 OFFCURVE",
"548 144 CURVE"
);
}
);
width = 581;
},
{
anchors = (
{
name = bottom;
position = "{237, 0}";
},
{
name = ogonek;
position = "{374, 21}";
},
{
name = top;
position = "{306, 500}";
}
);
layerId = "F97236B5-7CBD-4FD1-81B0-6670342ADB4E";
paths = (
{
closed = 1;
nodes = (
"351 -10 OFFCURVE",
"420 43 OFFCURVE",
"456 118 CURVE",
"444 125 LINE",
"411 55 OFFCURVE",
"346 4 OFFCURVE",
"262 4 CURVE SMOOTH",
"150 4 OFFCURVE",
"63 83 OFFCURVE",
"63 217 CURVE SMOOTH",
"63 368 OFFCURVE",
"150 496 OFFCURVE",
"299 496 CURVE SMOOTH",
"389 496 OFFCURVE",
"449 445 OFFCURVE",
"468 360 CURVE",
"483 363 LINE",
"463 456 OFFCURVE",
"394 510 OFFCURVE",
"299 510 CURVE SMOOTH",
"142 510 OFFCURVE",
"47 378 OFFCURVE",
"47 214 CURVE SMOOTH",
"47 78 OFFCURVE",
"139 -10 OFFCURVE",
"259 -10 CURVE SMOOTH"
);
}
);
width = 516;
},
{
anchors = (
{
name = bottom;
position = "{275, 0}";
},
{
name = bottomC;
position = "{258, 0}";
},
{
name = ogonek;
position = "{396, 21}";
},
{
name = top;
position = "{275, 500}";
}
);
associatedMasterId = "F97236B5-7CBD-4FD1-81B0-6670342ADB4E";
background = {
components = (
{
name = o;
}
);
};
layerId = "62BDE2BC-CDC7-427D-B6E9-CC7C6B6F8AEE";
name = "Sep 11 18, 12:42";
paths = (
{
closed = 1;
nodes = (
"136 510 OFFCURVE",
"51 412 OFFCURVE",
"51 250 CURVE SMOOTH",
"51 88 OFFCURVE",
"133 -10 OFFCURVE",
"278 -10 CURVE SMOOTH",
"379 -10 OFFCURVE",
"465 47 OFFCURVE",
"482 137 CURVE",
"468 142 LINE",
"454 57 OFFCURVE",
"371 4 OFFCURVE",
"278 4 CURVE SMOOTH",
"143 4 OFFCURVE",
"67 97 OFFCURVE",
"67 250 CURVE SMOOTH",
"67 403 OFFCURVE",
"146 496 OFFCURVE",
"281 496 CURVE SMOOTH",
"375 496 OFFCURVE",
"442 449 OFFCURVE",
"464 366 CURVE",
"478 373 LINE",
"454 461 OFFCURVE",
"380 510 OFFCURVE",
"281 510 CURVE SMOOTH"
);
}
);
width = 524;
}
);
leftKerningGroup = o;
leftMetricsKey = o;
rightKerningGroup = c;
unicode = 0063;
},
